<svg width="200" height="200" viewBox="0 0 200 200" fill="none" xmlns="http://www.w3.org/2000/svg">
<path fill-rule="evenodd" clip-rule="evenodd" d="M89.9733 169.438H188.807C194.972 169.438 200 174.522 200 180.755V188.683C200 194.917 194.972 200 188.807 200H41.6068C9.02851 200 0 186.771 0 157.935V92.1928C0 78.6184 6.16355 66.3148 16.9873 58.2829L84.4606 8.21071C99.1521 -2.69219 118.791 -2.74074 133.536 8.0891L180.096 42.2874L190.136 49.4925C192.919 51.4892 194.524 54.3324 194.811 57.7705C195.098 61.2083 193.985 64.2826 191.572 66.7224L89.9733 169.438ZM154.341 61.1429L115.769 32.8125C111.662 29.7959 106.44 29.8098 102.348 32.8462L34.8751 82.9184C31.81 85.1924 30.2301 88.348 30.2301 92.1918V157.934C30.2301 164.263 35.3481 169.438 41.6073 169.438H47.2241L154.342 61.1424L154.341 61.1429Z" fill="#7453EE"/>
</svg>
