<svg width="18" height="18" viewBox="0 0 18 18" fill="none" xmlns="http://www.w3.org/2000/svg">
<path d="M16.8 9.92008H2.4V3.18681C2.3993 2.93324 2.44904 2.68205 2.54632 2.44778C2.6436 2.21351 2.7865 2.00082 2.96674 1.82201L2.98174 1.80705C3.26421 1.52569 3.62688 1.33818 4.02019 1.27015C4.41351 1.20211 4.81829 1.25686 5.17924 1.42692C4.83835 1.99229 4.69666 2.65508 4.77669 3.30998C4.85671 3.96488 5.15386 4.57432 5.62091 5.04145L6.03158 5.45109L5.27569 6.20515L6.12416 7.05152L6.88005 6.2975L11.0684 2.11962L11.8243 1.36561L10.9758 0.519199L10.2198 1.27321L9.80918 0.863568C9.3175 0.374482 8.66938 0.0729918 7.97774 0.0116347C7.28611 -0.0497224 6.59482 0.132944 6.02434 0.527802C5.42277 0.148837 4.70988 -0.0147657 4.00277 0.0638713C3.29566 0.142508 2.63639 0.458708 2.13326 0.960527L2.11826 0.97549C1.82623 1.26521 1.5947 1.60982 1.43708 1.9894C1.27946 2.36897 1.19888 2.77596 1.2 3.18681V9.92008H0V11.1171H1.2V12.2655C1.19997 12.362 1.21557 12.4579 1.2462 12.5494L2.3625 15.8898C2.42207 16.0687 2.53662 16.2242 2.68988 16.3344C2.84313 16.4446 3.0273 16.5039 3.21623 16.5037H3.69998L3.2625 18H4.51249L4.95 16.5037H12.7538L13.2038 18H14.4563L14.0063 16.5037H14.7836C14.9726 16.5039 15.1568 16.4447 15.3101 16.3345C15.4633 16.2243 15.5779 16.0687 15.6375 15.8898L16.7537 12.5494C16.7844 12.4579 16.8 12.362 16.8 12.2655V11.1171H18V9.92008H16.8ZM6.4695 1.70998C6.8001 1.38092 7.24805 1.19611 7.71508 1.19611C8.18211 1.19611 8.63006 1.38092 8.96066 1.70998L9.37125 2.11962L6.88016 4.60454L6.4695 4.19497C6.13964 3.86518 5.95439 3.41834 5.95439 2.95247C5.95439 2.48661 6.13964 2.03977 6.4695 1.70998ZM15.6 12.2169L14.5675 15.3067H3.43245L2.4 12.2169V11.1171H15.6V12.2169Z" fill="#263238"/>
</svg>
