<svg width="28" height="21" viewBox="0 0 28 21" fill="none" xmlns="http://www.w3.org/2000/svg">
<path d="M25 8.99062C24.3696 8.72646 23.6885 8.59034 23 8.59091H5C4.31157 8.59027 3.63051 8.72619 3 8.99003C2.10888 9.36201 1.35058 9.97375 0.817809 10.7505C0.285033 11.5272 0.000851529 12.4352 0 13.3636V20.0455C0 20.2986 0.105357 20.5414 0.292893 20.7204C0.48043 20.8994 0.734784 21 1 21C1.26522 21 1.51957 20.8994 1.70711 20.7204C1.89464 20.5414 2 20.2986 2 20.0455V19.5682C2.00162 19.4421 2.05482 19.3216 2.14824 19.2324C2.24166 19.1432 2.3679 19.0925 2.5 19.0909H25.5C25.6321 19.0925 25.7583 19.1432 25.8518 19.2324C25.9452 19.3216 25.9984 19.4421 26 19.5682V20.0455C26 20.2986 26.1054 20.5414 26.2929 20.7204C26.4804 20.8994 26.7348 21 27 21C27.2652 21 27.5196 20.8994 27.7071 20.7204C27.8946 20.5414 28 20.2986 28 20.0455V13.3636C27.999 12.4353 27.7148 11.5274 27.182 10.7508C26.6493 9.97421 25.891 9.36257 25 8.99062ZM21.5 0H6.5C5.57174 0 4.6815 0.351988 4.02513 0.97853C3.36875 1.60507 3 2.45484 3 3.34091V7.63636C3.00003 7.67334 3.00906 7.70981 3.02638 7.74289C3.0437 7.77597 3.06884 7.80475 3.09981 7.82696C3.13078 7.84918 3.16674 7.86422 3.20484 7.8709C3.24295 7.87758 3.28216 7.87572 3.31938 7.86545C3.86529 7.71304 4.43122 7.6359 5 7.63636H5.26438C5.32608 7.63674 5.38575 7.61531 5.43191 7.57621C5.47806 7.53711 5.50743 7.4831 5.51438 7.42457C5.56892 6.95815 5.80154 6.52725 6.16781 6.21417C6.53408 5.90108 7.00833 5.72775 7.5 5.72727H11C11.492 5.72731 11.9667 5.90044 12.3334 6.21357C12.7 6.5267 12.9329 6.95785 12.9875 7.42457C12.9944 7.4831 13.0238 7.53711 13.07 7.57621C13.1161 7.61531 13.1758 7.63674 13.2375 7.63636H14.7663C14.828 7.63674 14.8876 7.61531 14.9338 7.57621C14.9799 7.53711 15.0093 7.4831 15.0163 7.42457C15.0708 6.95846 15.3031 6.52781 15.669 6.21476C16.0349 5.90172 16.5087 5.72819 17 5.72727H20.5C20.992 5.72731 21.4667 5.90044 21.8334 6.21357C22.2 6.5267 22.4329 6.95785 22.4875 7.42457C22.4944 7.4831 22.5238 7.53711 22.57 7.57621C22.6161 7.61531 22.6758 7.63674 22.7375 7.63636H23C23.5688 7.6361 24.1347 7.71345 24.6806 7.86605C24.7179 7.87633 24.7572 7.87818 24.7953 7.87147C24.8335 7.86476 24.8695 7.84967 24.9004 7.82738C24.9314 7.8051 24.9565 7.77624 24.9738 7.74309C24.9911 7.70993 25.0001 7.67339 25 7.63636V3.34091C25 2.45484 24.6313 1.60507 23.9749 0.97853C23.3185 0.351988 22.4283 0 21.5 0Z" fill="#090909" fill-opacity="0.75"/>
</svg>
