<svg width="24" height="25" viewBox="0 0 24 25" fill="none" xmlns="http://www.w3.org/2000/svg">
<g clip-path="url(#clip0_73_200)">
<path d="M13.6352 2.47024C13.7244 2.47024 13.7758 2.47399 13.7758 2.47399H15.7344L15.7243 4.72399H13.7788C12.7082 4.72399 12.7329 5.63822 12.7329 5.63822V9.20522H16.5212L15.9924 11.4522H12.7205V22.697H10.4728L10.4713 11.4522H7.48515L7.47915 9.20522H10.4724V5.70872C10.4727 2.65997 13.0048 2.47021 13.6352 2.47021V2.47024ZM15.7344 2.47396H15.7381H15.7344ZM13.6352 0.970215C13.0959 0.970215 12.0421 1.05949 11.0439 1.66099C10.0989 2.22949 8.97273 3.39384 8.97273 5.70836V7.70484H7.47948C7.08086 7.70484 6.69873 7.86384 6.41673 8.14586C6.2774 8.28575 6.16705 8.45177 6.09202 8.6344C6.017 8.81703 5.97876 9.01268 5.9795 9.21011L5.9855 11.4571C5.9885 12.2832 6.65938 12.9519 7.4855 12.9519H8.97163L8.97313 22.6966C8.97313 23.525 9.64478 24.1966 10.4731 24.1966H12.7209C13.5493 24.1966 14.2209 23.525 14.2209 22.6966V12.9519H15.9928C16.6584 12.9519 17.2445 12.5131 17.432 11.8745L17.9608 9.62749C18.0939 9.17414 18.0054 8.68401 17.7219 8.30636C17.5824 8.11962 17.4012 7.96801 17.1929 7.86359C16.9845 7.75916 16.7546 7.70482 16.5215 7.70486H14.2332V6.22474L15.7246 6.22399C16.55 6.22399 17.2209 5.55686 17.2246 4.73074L17.2347 2.55686C17.2362 2.52926 17.237 2.50163 17.237 2.47399C17.237 1.64561 16.5669 0.973988 15.7385 0.973988H13.8181C13.775 0.971738 13.7128 0.970238 13.6352 0.970215Z" fill="white"/>
</g>
<defs>
<clipPath id="clip0_73_200">
<rect width="24" height="24" fill="white" transform="translate(0 0.583496)"/>
</clipPath>
</defs>
</svg>
