<svg width="220" height="58" viewBox="0 0 220 58" fill="none" xmlns="http://www.w3.org/2000/svg">
<path fill-rule="evenodd" clip-rule="evenodd" d="M28.3227 48.4312H58.5007C60.3832 48.4312 61.9184 49.8841 61.9184 51.6657V53.932C61.9184 55.7136 60.3832 57.1665 58.5007 57.1665H13.5545C3.60708 57.1665 0.850342 53.3855 0.850342 45.1429V26.3515C0.850342 22.4715 2.73248 18.9549 6.03702 16.6591L26.6393 2.34672C31.1251 -0.769407 37.1218 -0.783426 41.624 2.31206L55.8407 12.087L58.9065 14.1463C59.7564 14.717 60.2462 15.5299 60.3343 16.5123C60.4219 17.4946 60.082 18.3738 59.3452 19.071L28.3231 48.4304L28.3227 48.4312ZM161.346 22.0173V26.4594C160.815 26.3838 160.312 26.3464 159.835 26.3464C156.361 26.3464 154.624 28.1405 154.624 31.7291V40.4621H150.01V22.1307H154.505V25.0664C154.956 24.088 155.685 23.3163 156.692 22.7516C157.7 22.1868 158.84 21.9047 160.113 21.9047C160.537 21.9047 160.948 21.9425 161.346 22.0177V22.0173ZM215.477 16.5216V22.1303H219.495V26.0075H215.477V34.5142C215.477 35.3173 215.676 35.9008 216.074 36.2646C216.472 36.6285 217.095 36.8104 217.943 36.8104C218.473 36.8104 219.004 36.7601 219.534 36.6596V40.2732C218.845 40.5489 217.903 40.6872 216.71 40.6872C214.907 40.6872 213.488 40.2042 212.454 39.2378C211.42 38.2718 210.903 36.9354 210.903 35.2289V26.0067H207.323V22.1295H208.318C209.299 22.1295 210.041 21.8662 210.545 21.3388C211.049 20.8118 211.301 20.1215 211.301 19.2685V16.5204H215.476L215.477 16.5216ZM191.414 29.8844V40.4617H186.801V22.1303H191.295V24.5768C191.905 23.573 192.72 22.8263 193.741 22.3371C194.762 21.8479 195.856 21.6032 197.022 21.6032C199.303 21.6032 201.039 22.2806 202.233 23.6361C203.426 24.9913 204.022 26.7351 204.022 28.8681V40.4617H199.408V29.6211C199.408 28.3914 199.09 27.4067 198.454 26.6662C197.818 25.9257 196.81 25.5557 195.431 25.5557C194.158 25.5557 193.171 25.9635 192.468 26.7791C191.765 27.5948 191.414 28.6297 191.414 29.8848L191.414 29.8844ZM168.227 29.2822H177.732C177.679 28.128 177.248 27.1617 176.44 26.3838C175.631 25.6059 174.471 25.2168 172.959 25.2168C171.581 25.2168 170.467 25.6246 169.618 26.4403C168.77 27.2559 168.306 28.2032 168.226 29.2822H168.227ZM178.25 34.0627L182.147 35.2297C181.59 36.9112 180.55 38.2976 179.025 39.389C177.5 40.4808 175.624 41.0265 173.397 41.0265C170.64 41.0265 168.3 40.1357 166.377 38.354C164.455 36.5724 163.494 34.1885 163.494 31.2021C163.494 28.3914 164.429 26.0827 166.298 24.2761C168.167 22.4695 170.375 21.5659 172.92 21.5659C175.89 21.5659 178.21 22.4255 179.88 24.1445C181.551 25.8634 182.386 28.1783 182.386 31.0895C182.386 31.8674 182.346 32.3317 182.267 32.4821H168.107C168.16 33.8621 168.697 35.0038 169.718 35.9075C170.739 36.8107 171.965 37.2626 173.397 37.2626C175.89 37.2626 177.507 36.1961 178.25 34.0631V34.0627ZM47.9771 17.4767L36.1994 9.37906C34.9453 8.51706 33.3509 8.52056 32.1013 9.38879L11.4991 23.7012C10.5631 24.3513 10.0808 25.253 10.0808 26.3518V45.1433C10.0808 46.9522 11.6435 48.4316 13.5549 48.4316H15.2699L47.9775 17.4771L47.9771 17.4767Z" fill="white"/>
<path d="M70.7811 29.2826H80.2869C80.2338 28.1285 79.8029 27.1621 78.9941 26.3842C78.1854 25.6064 77.0255 25.2172 75.5138 25.2172C74.135 25.2172 73.0213 25.6251 72.1726 26.4407C71.324 27.2564 70.8601 28.2037 70.7807 29.2826H70.7811ZM134.299 47.8778H129.367L134.021 38.2793L125.748 22.1311H130.958L136.527 33.7247L141.737 22.1311H146.629L134.299 47.8782L134.299 47.8778ZM108.805 35.4935L112.822 34.4394C112.901 35.3178 113.286 36.0579 113.975 36.6605C114.664 37.2627 115.592 37.5638 116.759 37.5638C117.661 37.5638 118.37 37.3628 118.887 36.9616C119.404 36.56 119.663 36.0579 119.663 35.4557C119.663 34.4017 118.907 33.7243 117.396 33.4232L114.532 32.821C112.861 32.4697 111.576 31.8172 110.674 30.8637C109.772 29.9102 109.322 28.7809 109.322 27.4761C109.322 25.8701 110.011 24.4834 111.39 23.3168C112.769 22.1498 114.453 21.5663 116.441 21.5663C117.714 21.5663 118.841 21.742 119.822 22.0933C120.803 22.4447 121.566 22.9027 122.109 23.4672C122.653 24.0316 123.07 24.5777 123.362 25.1047C123.654 25.6317 123.839 26.1587 123.919 26.6857L120.021 27.7398C119.915 27.0371 119.577 26.4033 119.007 25.8389C118.437 25.2741 117.582 24.9921 116.442 24.9921C115.646 24.9921 114.983 25.1989 114.453 25.613C113.923 26.0271 113.657 26.5225 113.657 27.0998C113.657 28.1289 114.307 28.7685 115.606 29.0197L118.549 29.5841C120.353 29.9608 121.731 30.6382 122.686 31.617C123.64 32.5959 124.118 33.7753 124.118 35.1554C124.118 36.6862 123.475 38.0475 122.189 39.2395C120.902 40.4314 119.106 41.0277 116.799 41.0277C115.473 41.0277 114.287 40.8396 113.24 40.4629C112.193 40.0863 111.37 39.6033 110.774 39.0139C110.177 38.4242 109.713 37.8345 109.382 37.2447C109.05 36.655 108.859 36.0715 108.805 35.4943L108.805 35.4935ZM88.162 35.4935C88.162 33.9378 88.6991 32.6894 89.7729 31.7483C90.8467 30.8072 92.2588 30.2112 94.0088 29.96L98.9807 29.2449C99.9351 29.1194 100.413 28.6805 100.413 27.9275C100.413 27.0994 100.108 26.4283 99.498 25.9137C98.8881 25.3995 97.9735 25.1421 96.7536 25.1421C95.5868 25.1421 94.6587 25.4494 93.9693 26.0641C93.2799 26.6791 92.8823 27.4757 92.7762 28.4545L88.5604 27.5508C88.746 25.8946 89.5811 24.483 91.066 23.3164C92.5506 22.1494 94.4336 21.5659 96.7137 21.5659C99.5244 21.5659 101.599 22.2059 102.938 23.4858C104.278 24.7654 104.947 26.4092 104.947 28.4167V37.526C104.947 38.7308 105.026 39.7092 105.186 40.4622H100.89C100.757 40.0855 100.691 39.308 100.691 38.1286C99.4182 40.0606 97.4298 41.027 94.725 41.027C92.763 41.027 91.1784 40.4812 89.9721 39.3894C88.7658 38.298 88.1624 36.9994 88.1624 35.4935H88.162ZM95.5996 37.6016C97.0314 37.6016 98.1917 37.2315 99.0799 36.4914C99.968 35.751 100.412 34.5403 100.412 32.8588V32.0307L95.3613 32.7458C93.6376 33.022 92.7757 33.8501 92.7757 35.2302C92.7757 35.8826 93.0276 36.4412 93.5314 36.9051C94.0352 37.3694 94.7246 37.6016 95.5996 37.6016ZM80.8038 34.0632L84.7014 35.2302C84.1446 36.9117 83.1041 38.298 81.5792 39.3894C80.0543 40.4812 78.1788 41.027 75.9513 41.027C73.1938 41.027 70.854 40.1361 68.9315 38.3545C67.009 36.5728 66.048 34.189 66.048 31.2026C66.048 28.3918 66.9827 26.0831 68.852 24.2766C70.7214 22.47 72.9291 21.5663 75.4743 21.5663C78.4438 21.5663 80.7643 22.426 82.4345 24.1449C84.1051 25.8638 84.9402 28.1788 84.9402 31.09C84.9402 31.8679 84.9006 32.3322 84.8208 32.4825H70.6617C70.7148 33.8626 71.2515 35.0043 72.2727 35.9079C73.2934 36.8112 74.5199 37.2631 75.9517 37.2631C78.4442 37.2631 80.0617 36.1966 80.8042 34.0636L80.8038 34.0632Z" fill="white"/>
</svg>
