<svg width="121" height="46" viewBox="0 0 121 46" fill="none" xmlns="http://www.w3.org/2000/svg">
<path fill-rule="evenodd" clip-rule="evenodd" d="M15.2007 38.971H31.8985C32.9402 38.971 33.7896 40.1401 33.7896 41.5737V43.3973C33.7896 44.8309 32.9402 46 31.8985 46H7.02933C1.52533 46 0 42.9575 0 36.325V21.2042C0 18.0821 1.0414 15.2524 2.86985 13.405L14.2693 1.88833C16.7513 -0.619117 20.0694 -0.630397 22.5605 1.86044L30.4267 9.72599L32.1231 11.3831C32.5933 11.8423 32.8643 12.4964 32.9131 13.2869C32.9616 14.0774 32.7735 14.7848 32.3658 15.3458L15.2009 38.9704L15.2007 38.971ZM88.8038 17.7166V21.291C88.5103 21.2302 88.2315 21.2001 87.9676 21.2001C86.0458 21.2001 85.0845 22.6437 85.0845 25.5314V32.5585H82.5317V17.8078H85.0185V20.1701C85.2681 19.3828 85.6714 18.7619 86.2289 18.3074C86.7864 17.8529 87.4174 17.626 88.1216 17.626C88.3563 17.626 88.5838 17.6564 88.8038 17.7169V17.7166ZM118.755 13.2944V17.8075H120.978V20.9274H118.755V27.7724C118.755 28.4187 118.865 28.8882 119.085 29.181C119.305 29.4737 119.65 29.6201 120.12 29.6201C120.413 29.6201 120.707 29.5797 121 29.4988V32.4065C120.619 32.6284 120.098 32.7397 119.438 32.7397C118.44 32.7397 117.655 32.351 117.083 31.5734C116.51 30.7961 116.224 29.7207 116.224 28.3476V20.9268H114.244V17.8069H114.794C115.337 17.8069 115.747 17.595 116.026 17.1706C116.305 16.7465 116.444 16.1911 116.444 15.5047V13.2935H118.755L118.755 13.2944ZM105.441 24.047V32.5582H102.888V17.8075H105.375V19.7762C105.713 18.9684 106.164 18.3676 106.728 17.9739C107.293 17.5803 107.898 17.3834 108.544 17.3834C109.806 17.3834 110.767 17.9285 111.427 19.0192C112.087 20.1097 112.417 21.5129 112.417 23.2292V32.5582H109.864V23.8351C109.864 22.8456 109.688 22.0532 109.336 21.4574C108.984 20.8616 108.427 20.5638 107.664 20.5638C106.959 20.5638 106.413 20.892 106.024 21.5483C105.635 22.2046 105.441 23.0374 105.441 24.0473L105.441 24.047ZM92.611 23.5624H97.8706C97.8413 22.6337 97.6028 21.8561 97.1553 21.2302C96.7079 20.6042 96.0661 20.2911 95.2297 20.2911C94.4668 20.2911 93.8505 20.6193 93.381 21.2756C92.9116 21.9319 92.6547 22.6942 92.6108 23.5624H92.611ZM98.1569 27.4091L100.313 28.3482C100.005 29.7013 99.4295 30.8168 98.5859 31.695C97.7422 32.5736 96.7042 33.0127 95.472 33.0127C93.9462 33.0127 92.6515 32.2958 91.5878 30.8622C90.5241 29.4286 89.9923 27.5104 89.9923 25.1073C89.9923 22.8456 90.5095 20.9879 91.5439 19.5342C92.5782 18.0805 93.7995 17.3533 95.208 17.3533C96.8511 17.3533 98.1348 18.0451 99.0592 19.4283C99.9835 20.8114 100.446 22.6741 100.446 25.0167C100.446 25.6426 100.423 26.0163 100.38 26.1372H92.545C92.5743 27.2477 92.8715 28.1664 93.4363 28.8936C94.0011 29.6204 94.6797 29.984 95.472 29.984C96.8511 29.984 97.7461 29.1258 98.1569 27.4095V27.4091ZM26.0757 14.0629L19.559 7.54702C18.8651 6.8534 17.9829 6.85622 17.2915 7.55485L5.89205 19.0716C5.37419 19.5947 5.10729 20.3203 5.10729 21.2045V36.3253C5.10729 37.7809 5.97198 38.9713 7.02955 38.9713H7.9785L26.0759 14.0632L26.0757 14.0629Z" fill="#7453EE"/>
<path d="M38.6935 23.5627H43.9531C43.9237 22.634 43.6853 21.8564 43.2378 21.2305C42.7903 20.6046 42.1486 20.2914 41.3121 20.2914C40.5492 20.2914 39.933 20.6196 39.4634 21.2759C38.9939 21.9323 38.7372 22.6945 38.6932 23.5627H38.6935ZM73.8387 38.5256H71.1099L73.6848 30.802L69.1072 17.8081H71.99L75.0712 27.1371L77.954 17.8081H80.6608L73.8385 38.5259L73.8387 38.5256ZM59.7323 28.5604L61.9549 27.7122C61.9989 28.419 62.2118 29.0145 62.593 29.4994C62.9745 29.984 63.488 30.2263 64.1336 30.2263C64.6326 30.2263 65.0249 30.0645 65.311 29.7417C65.597 29.4185 65.7402 29.0145 65.7402 28.53C65.7402 27.6818 65.3221 27.1368 64.4859 26.8945L62.9013 26.4099C61.977 26.1272 61.2656 25.6022 60.7666 24.8349C60.2677 24.0677 60.0185 23.159 60.0185 22.109C60.0185 20.8167 60.4 19.7009 61.1629 18.7622C61.9258 17.8232 62.8574 17.3536 63.9578 17.3536C64.6619 17.3536 65.2855 17.495 65.8284 17.7777C66.3713 18.0604 66.793 18.429 67.0938 18.8832C67.3947 19.3374 67.6256 19.7768 67.7871 20.2009C67.9485 20.6249 68.0512 21.049 68.0952 21.4731L65.9386 22.3212C65.8801 21.7558 65.6926 21.2458 65.3774 20.7917C65.062 20.3372 64.5888 20.1103 63.958 20.1103C63.5178 20.1103 63.1509 20.2767 62.8576 20.6099C62.5641 20.9431 62.4174 21.3417 62.4174 21.8062C62.4174 22.6343 62.7768 23.149 63.4957 23.3511L65.1242 23.8053C66.1219 24.1084 66.8848 24.6535 67.4129 25.4411C67.941 26.2288 68.2052 27.1778 68.2052 28.2883C68.2052 29.5201 67.8495 30.6155 67.1378 31.5746C66.4261 32.5337 65.4321 33.0136 64.1559 33.0136C63.4222 33.0136 62.7658 32.8622 62.1863 32.5591C61.6069 32.256 61.1519 31.8674 60.822 31.3932C60.4917 30.9186 60.2351 30.4441 60.0518 29.9696C59.8682 29.495 59.7621 29.0255 59.7327 28.561L59.7323 28.5604ZM48.3105 28.5604C48.3105 27.3085 48.6077 26.304 49.2018 25.5467C49.796 24.7895 50.5773 24.3099 51.5456 24.1078L54.2966 23.5323C54.8247 23.4314 55.0889 23.0782 55.0889 22.4723C55.0889 21.8059 54.9201 21.2659 54.5828 20.8519C54.2454 20.4381 53.7393 20.2309 53.0643 20.2309C52.4187 20.2309 51.9052 20.4782 51.5238 20.9728C51.1423 21.4677 50.9223 22.1087 50.8636 22.8964L48.5309 22.1692C48.6336 20.8365 49.0957 19.7006 49.9173 18.7619C50.7388 17.8229 51.7806 17.3533 53.0423 17.3533C54.5974 17.3533 55.7454 17.8683 56.4864 18.8982C57.2275 19.9279 57.5978 21.2505 57.5978 22.866V30.1959C57.5978 31.1653 57.6417 31.9526 57.7298 32.5585H55.353C55.2797 32.2554 55.243 31.6298 55.243 30.6807C54.5387 32.2353 53.4385 33.013 51.9419 33.013C50.8563 33.013 49.9795 32.5739 49.312 31.6953C48.6446 30.8171 48.3107 29.7721 48.3107 28.5604H48.3105ZM52.4258 30.2567C53.2181 30.2567 53.86 29.9589 54.3515 29.3634C54.8429 28.7676 55.0886 27.7934 55.0886 26.4403V25.774L52.2939 26.3494C51.3402 26.5717 50.8633 27.238 50.8633 28.3485C50.8633 28.8735 51.0027 29.323 51.2815 29.6963C51.5602 30.0699 51.9416 30.2567 52.4258 30.2567ZM44.2391 27.4094L46.3957 28.3485C46.0876 29.7016 45.5119 30.8171 44.6682 31.6953C43.8244 32.5739 42.7867 33.013 41.5542 33.013C40.0284 33.013 38.7338 32.2962 37.6701 30.8625C36.6063 29.4289 36.0746 27.5107 36.0746 25.1076C36.0746 22.8459 36.5918 20.9882 37.6261 19.5345C38.6605 18.0808 39.882 17.3536 41.2903 17.3536C42.9333 17.3536 44.2173 18.0454 45.1414 19.4286C46.0658 20.8117 46.5278 22.6745 46.5278 25.017C46.5278 25.643 46.506 26.0166 46.4618 26.1376H38.6274C38.6568 27.248 38.9538 28.1667 39.5188 28.8939C40.0835 29.6207 40.7622 29.9843 41.5544 29.9843C42.9336 29.9843 43.8285 29.1261 44.2394 27.4098L44.2391 27.4094Z" fill="#06062A"/>
</svg>
