<svg width="300" height="300" viewBox="0 0 300 300" fill="none" xmlns="http://www.w3.org/2000/svg">
<path d="M300 229.44H0V229.59H300V229.44Z" fill="#E6E6E6"/>
<path d="M46.932 236.136H30.99V236.286H46.932V236.136Z" fill="#E6E6E6"/>
<path d="M52.698 233.136H38.958V233.286H52.698V233.136Z" fill="#E6E6E6"/>
<path d="M195.246 233.58H158.376V233.73H195.246V233.58Z" fill="#E6E6E6"/>
<path d="M207.546 233.58H198.702V233.73H207.546V233.58Z" fill="#E6E6E6"/>
<path d="M257.832 234.606H228.636V234.756H257.832V234.606Z" fill="#E6E6E6"/>
<path d="M115.902 237H63.924V237.15H115.902V237Z" fill="#E6E6E6"/>
<path d="M267.354 234.606H263.1V234.756H267.354V234.606Z" fill="#E6E6E6"/>
<path d="M142.2 202.68H26.346C25.4384 202.678 24.5686 202.317 23.9274 201.674C23.2862 201.032 22.926 200.162 22.926 199.254V36.396C22.9339 35.4936 23.2975 34.6308 23.9379 33.9949C24.5782 33.3591 25.4436 33.0015 26.346 33H142.2C143.109 33 143.98 33.361 144.623 34.0035C145.265 34.646 145.626 35.5174 145.626 36.426V199.254C145.626 200.163 145.265 201.034 144.623 201.677C143.98 202.319 143.109 202.68 142.2 202.68ZM26.346 33.12C25.4782 33.1216 24.6465 33.4674 24.0334 34.0816C23.4203 34.6958 23.076 35.5282 23.076 36.396V199.254C23.076 200.122 23.4203 200.954 24.0334 201.568C24.6465 202.183 25.4782 202.528 26.346 202.53H142.2C143.068 202.528 143.901 202.183 144.515 201.569C145.129 200.955 145.474 200.122 145.476 199.254V36.396C145.474 35.5276 145.129 34.6953 144.515 34.0813C143.901 33.4672 143.068 33.1216 142.2 33.12H26.346Z" fill="#E6E6E6"/>
<path d="M271.986 202.68H156.126C155.218 202.678 154.347 202.317 153.705 201.675C153.063 201.033 152.702 200.162 152.7 199.254V36.396C152.709 35.4931 153.074 34.6302 153.716 33.9946C154.357 33.3589 155.223 33.0015 156.126 33H271.986C272.887 33.0031 273.751 33.3613 274.39 33.997C275.029 34.6327 275.392 35.4947 275.4 36.396V199.254C275.4 200.161 275.041 201.03 274.401 201.672C273.761 202.314 272.892 202.677 271.986 202.68ZM156.126 33.12C155.258 33.1216 154.425 33.4672 153.811 34.0813C153.197 34.6953 152.852 35.5276 152.85 36.396V199.254C152.852 200.122 153.197 200.955 153.811 201.569C154.425 202.183 155.258 202.528 156.126 202.53H271.986C272.854 202.528 273.687 202.183 274.301 201.569C274.915 200.955 275.26 200.122 275.262 199.254V36.396C275.26 35.5276 274.915 34.6953 274.301 34.0813C273.687 33.4672 272.854 33.1216 271.986 33.12H156.126Z" fill="#E6E6E6"/>
<path d="M92.0572 126.253C93.7274 119.007 89.2073 111.779 81.9614 110.109C74.7154 108.439 67.4874 112.959 65.8173 120.205C64.1471 127.451 68.6671 134.679 75.9131 136.349C83.159 138.019 90.387 133.499 92.0572 126.253Z" fill="#F0F0F0"/>
<path d="M170.748 120.444C169.074 116.844 170.406 114.234 174.51 114.234C177.078 114.234 180.27 115.254 183.378 116.904C183.732 115.962 184.716 115.398 186.306 115.398C189.108 115.398 192.966 117.144 195.99 119.598C196.923 118.974 198.023 118.645 199.146 118.656C201.828 118.548 205.068 119.55 207.888 121.182C208.053 121.025 208.248 120.903 208.462 120.823C208.675 120.742 208.902 120.705 209.13 120.714C210.024 120.744 210.901 120.961 211.706 121.35C212.511 121.74 213.226 122.294 213.804 122.976C213.87 123.054 213.924 123.138 213.984 123.216H168.666C167.232 121.938 168.816 120.51 170.748 120.444Z" fill="#F5F5F5"/>
<path d="M82.464 148.302L119.592 139.8V229.44H82.464V148.302Z" fill="#FAFAFA"/>
<path d="M138.858 139.8H119.592V229.44H138.858V139.8Z" fill="#EBEBEB"/>
<path d="M132.564 229.44H164.166V118.362H132.564V229.44Z" fill="#FAFAFA"/>
<path d="M180.564 118.362H164.166V229.44H180.564V118.362Z" fill="#EBEBEB"/>
<path d="M136.818 118.362H164.166V110.106H136.818V118.362Z" fill="#FAFAFA"/>
<path d="M136.818 118.362H164.166V116.508H136.818V118.362Z" fill="#EBEBEB"/>
<path d="M176.316 110.106H164.166V118.362H176.316V110.106Z" fill="#EBEBEB"/>
<path d="M141.066 110.106H164.16V101.85H141.066V110.106Z" fill="#FAFAFA"/>
<path d="M141.066 110.106H164.16V108.252H141.066V110.106Z" fill="#EBEBEB"/>
<path d="M172.062 101.856H164.166V110.112H172.062V101.856Z" fill="#EBEBEB"/>
<path d="M157.332 90.324H155.796V101.856H157.332V90.324Z" fill="#EBEBEB"/>
<path d="M175.326 229.44H198.402V132.798H175.326V229.44Z" fill="#FAFAFA"/>
<path d="M210.384 132.798H198.408V229.44H210.384V132.798Z" fill="#EBEBEB"/>
<path d="M204.396 152.4L221.892 167.4V229.44H204.396V152.4Z" fill="#FAFAFA"/>
<path d="M230.976 167.4H221.892V229.44H230.976V167.4Z" fill="#EBEBEB"/>
<path d="M230.976 167.4H221.892L204.396 152.4H213.474L230.976 167.4Z" fill="#EBEBEB"/>
<path d="M263.94 229.44C264.197 227.999 264.81 226.644 265.722 225.499C266.635 224.354 267.818 223.455 269.166 222.882C267.983 224.855 267.446 227.147 267.63 229.44H263.94Z" fill="#EBEBEB"/>
<path d="M111.78 229.44C111.523 227.999 110.91 226.644 109.997 225.499C109.085 224.354 107.901 223.455 106.554 222.882C107.737 224.855 108.274 227.147 108.09 229.44H111.78Z" fill="#EBEBEB"/>
<path d="M35.322 229.44C35.322 229.44 35.028 221.76 31.818 219.528C33.132 222.666 32.85 229.44 32.85 229.44H35.322Z" fill="#EBEBEB"/>
<path d="M34.116 229.44C34.116 229.44 34.416 225.03 37.626 223.752C36.306 225.552 36.594 229.44 36.594 229.44H34.116Z" fill="#EBEBEB"/>
<path d="M114.528 229.44C114.528 229.44 114.204 222.168 108.384 219.528C110.988 223.26 110.838 229.44 110.838 229.44H114.528Z" fill="#EBEBEB"/>
<path d="M56.208 180.486L60.444 210.366L60.864 213.354H63.582L63.156 210.366L58.92 180.486H56.208Z" fill="#E0E0E0"/>
<path d="M172.602 180.486L176.838 210.366L177.258 213.354H179.976L179.55 210.366L175.314 180.486H172.602Z" fill="#E0E0E0"/>
<path d="M73.6021 210.366L74.0281 213.354L76.3141 229.464H79.0321L76.7461 213.354L76.3261 210.366H73.6021Z" fill="#E6E6E6"/>
<path d="M190.002 210.366L190.428 213.354L192.708 229.464H195.42L193.14 213.354L192.72 210.366H190.002Z" fill="#E6E6E6"/>
<path d="M176.286 210.366L175.86 213.354L173.574 229.464H170.856L173.142 213.354L173.562 210.366H176.286Z" fill="#E6E6E6"/>
<path d="M59.886 210.366L59.46 213.354L57.18 229.464H54.468L56.748 213.354L57.174 210.366H59.886Z" fill="#E6E6E6"/>
<path d="M52.3019 184.644H176.7L174.39 176.322H49.9919L52.3019 184.644Z" fill="#F5F5F5"/>
<path d="M55.14 184.644H179.544L177.234 176.322H52.83L55.14 184.644Z" fill="#E6E6E6"/>
<path d="M54.036 195.018H178.434L176.124 186.702H51.72L54.036 195.018Z" fill="#F5F5F5"/>
<path d="M56.874 195.018H181.272L178.962 186.702H54.564L56.874 195.018Z" fill="#E6E6E6"/>
<path d="M55.764 205.41H180.168L177.858 197.094H53.454L55.764 205.41Z" fill="#F5F5F5"/>
<path d="M58.608 205.41H183.006L180.696 197.094H56.298L58.608 205.41Z" fill="#E6E6E6"/>
<path d="M194.328 210.366H70.476V213.354H194.328V210.366Z" fill="#E6E6E6"/>
<path d="M70.476 210.366H53.454V213.354H70.476V210.366Z" fill="#F5F5F5"/>
<path d="M44.1 88.482C41.778 83.466 43.626 79.896 49.302 79.896C52.86 79.896 57.27 81.3 61.572 83.586C62.058 82.284 63.426 81.504 65.622 81.504C69.498 81.504 74.832 83.904 79.02 87.33C80.309 86.4652 81.8299 86.0112 83.382 86.028C87.09 85.872 91.578 87.264 95.478 89.52C95.9417 89.0853 96.5588 88.8523 97.194 88.872C99.33 88.782 102.222 90.186 103.656 91.998C103.746 92.112 103.824 92.22 103.902 92.334H41.22C39.24 90.552 41.43 88.572 44.1 88.482Z" fill="#F5F5F5"/>
<path d="M208.746 98.826C208.904 98.8169 209.062 98.8169 209.22 98.826C209.076 97.188 209.922 96.138 211.74 96.138C213.356 96.2472 214.92 96.752 216.294 97.608C215.826 94.428 217.332 92.358 220.728 92.358C223.47 92.358 226.944 93.702 230.376 95.898C230.676 94.65 231.684 93.9 233.376 93.9C236.376 93.9 240.576 96.216 243.996 99.48C244.895 98.663 246.07 98.217 247.284 98.232C250.122 98.082 253.65 99.432 256.776 101.58C256.926 101.383 257.122 101.225 257.347 101.121C257.572 101.016 257.819 100.968 258.066 100.98C259.62 100.902 261.756 102.096 263.004 103.692H206.25C204.912 101.22 205.974 99.102 208.746 98.826Z" fill="#F5F5F5"/>
<path d="M113.268 62.538C113.424 62.5289 113.58 62.5289 113.736 62.538C113.592 60.894 114.444 59.85 116.256 59.85C117.874 59.9583 119.44 60.4632 120.816 61.32C120.348 58.134 121.848 56.064 125.244 56.064C127.992 56.064 131.46 57.414 134.892 59.61C135.192 58.362 136.2 57.612 137.892 57.612C140.892 57.612 145.092 59.922 148.512 63.192C149.413 62.3775 150.586 61.93 151.8 61.938C154.638 61.794 158.166 63.138 161.292 65.286C161.443 65.0894 161.639 64.9321 161.863 64.8277C162.088 64.7232 162.335 64.6746 162.582 64.686C164.136 64.602 166.278 65.796 167.52 67.398H110.766C109.434 64.932 110.496 62.814 113.268 62.538Z" fill="#F5F5F5"/>
<path d="M254.862 219.06L244.2 208.398H235.896L245.112 217.614H242.58V229.44H252.33V219.06H254.862Z" fill="#EBEBEB"/>
<path d="M246.558 219.06L235.896 208.398L225.234 219.06H229.212V229.44H242.58V219.06H246.558Z" fill="#FAFAFA"/>
<path d="M150 256.536C214.249 256.536 266.334 253.495 266.334 249.744C266.334 245.993 214.249 242.952 150 242.952C85.7505 242.952 33.666 245.993 33.666 249.744C33.666 253.495 85.7505 256.536 150 256.536Z" fill="#F5F5F5"/>
<path d="M240.696 64.632L224.706 48.642H212.25L226.074 62.466H222.27V80.196H236.892V64.632H240.696Z" fill="#7453EE"/>
<path opacity="0.4" d="M240.696 64.632L224.706 48.642H212.25L226.074 62.466H222.27V80.196H236.892V64.632H240.696Z" fill="white"/>
<path d="M228.24 64.632L212.25 48.642L196.26 64.632H202.23V80.196H222.27V64.632H228.24Z" fill="#7453EE"/>
<path opacity="0.7" d="M228.24 64.632L212.25 48.642L196.26 64.632H202.23V80.196H222.27V64.632H228.24Z" fill="white"/>
<path d="M250.992 128.46L235.002 112.464H222.546L236.37 126.288H232.566V144.018H247.188V128.46H250.992Z" fill="#7453EE"/>
<path opacity="0.4" d="M250.992 128.46L235.002 112.464H222.546L236.37 126.288H232.566V144.018H247.188V128.46H250.992Z" fill="white"/>
<path d="M238.536 128.46L222.546 112.464L206.556 128.46H212.52V144.018H232.566V128.46H238.536Z" fill="#7453EE"/>
<path opacity="0.7" d="M238.536 128.46L222.546 112.464L206.556 128.46H212.52V144.018H232.566V128.46H238.536Z" fill="white"/>
<path d="M179.028 145.086L163.032 129.096H150.582L164.406 142.914H160.602V160.65H175.224V145.086H179.028Z" fill="#7453EE"/>
<path opacity="0.4" d="M179.028 145.086L163.032 129.096H150.582L164.406 142.914H160.602V160.65H175.224V145.086H179.028Z" fill="white"/>
<path d="M166.572 145.086L150.582 129.096L134.592 145.086H140.556V160.644H160.602V145.086H166.572Z" fill="#7453EE"/>
<path opacity="0.7" d="M166.572 145.086L150.582 129.096L134.592 145.086H140.556V160.644H160.602V145.086H166.572Z" fill="white"/>
<path d="M178.074 91.356H169.47L168.24 90.132L158.25 71.532L178.074 91.356Z" fill="#2F54C6"/>
<path d="M169.44 109.422H187.566V87.438H169.44V109.422Z" fill="#7453EE"/>
<path opacity="0.3" d="M169.44 109.422H187.566V87.438H169.44V109.422Z" fill="black"/>
<path d="M176.844 90.132H192.288L172.458 70.302H157.02L176.844 90.132Z" fill="#7453EE"/>
<path opacity="0.3" d="M176.844 90.132H192.288L172.458 70.302H157.02L176.844 90.132Z" fill="black"/>
<path d="M169.44 84.57V109.422H144.594V84.57L157.02 72.504L157.146 72.63L158.25 73.698L169.44 84.57Z" fill="#7453EE"/>
<path opacity="0.3" d="M158.25 71.532V80.136L147.024 91.356H144.594V85.188L157.146 72.63L158.25 71.532Z" fill="black"/>
<path d="M176.844 90.132H168.24L157.02 78.906V70.302L176.844 90.132Z" fill="#7453EE"/>
<path d="M137.19 90.132H145.794L157.02 78.906V70.302L137.19 90.132Z" fill="#7453EE"/>
<path d="M134.4 115.428C129.282 119.58 124.002 123.486 118.692 127.326C113.382 131.166 108 134.898 102.6 138.6C97.2 142.302 91.71 145.866 86.196 149.4C83.454 151.2 80.67 152.904 77.904 154.656C76.5397 155.596 75.0322 156.309 73.44 156.768C72.5768 157.001 71.6923 157.145 70.8 157.2C69.7973 157.283 68.788 157.228 67.8 157.038C67.0265 156.881 66.2917 156.572 65.6376 156.13C64.9835 155.688 64.4231 155.122 63.9883 154.463C63.5536 153.804 63.2531 153.066 63.1041 152.291C62.9551 151.516 62.9605 150.719 63.12 149.946C63.12 149.856 63.162 149.742 63.186 149.646C63.4552 148.674 63.8591 147.745 64.386 146.886C64.8293 146.121 65.35 145.403 65.94 144.744C67.0514 143.515 68.3542 142.473 69.798 141.66C72.588 139.944 75.354 138.198 78.156 136.518C83.742 133.104 89.382 129.786 95.052 126.51C100.722 123.234 106.452 120.06 112.23 116.964C118.008 113.868 123.834 110.85 129.81 108.066C130.774 107.648 131.856 107.59 132.86 107.903C133.863 108.215 134.721 108.878 135.277 109.769C135.833 110.661 136.05 111.723 135.889 112.762C135.728 113.8 135.2 114.746 134.4 115.428Z" fill="#7453EE"/>
<path d="M134.4 115.428C129.282 119.58 124.002 123.486 118.692 127.326C113.382 131.166 108 134.898 102.6 138.6C97.2 142.302 91.71 145.866 86.196 149.4C83.454 151.2 80.67 152.904 77.904 154.656C76.5397 155.596 75.0322 156.309 73.44 156.768C72.5768 157.001 71.6923 157.145 70.8 157.2C69.7973 157.283 68.788 157.228 67.8 157.038C67.0265 156.881 66.2917 156.572 65.6376 156.13C64.9835 155.688 64.4231 155.122 63.9883 154.463C63.5536 153.804 63.2531 153.066 63.1041 152.291C62.9551 151.516 62.9605 150.719 63.12 149.946C63.12 149.856 63.162 149.742 63.186 149.646C63.4552 148.674 63.8591 147.745 64.386 146.886C64.8293 146.121 65.35 145.403 65.94 144.744C67.0514 143.515 68.3542 142.473 69.798 141.66C72.588 139.944 75.354 138.198 78.156 136.518C83.742 133.104 89.382 129.786 95.052 126.51C100.722 123.234 106.452 120.06 112.23 116.964C118.008 113.868 123.834 110.85 129.81 108.066C130.774 107.648 131.856 107.59 132.86 107.903C133.863 108.215 134.721 108.878 135.277 109.769C135.833 110.661 136.05 111.723 135.889 112.762C135.728 113.8 135.2 114.746 134.4 115.428Z" fill="#7453EE"/>
<path opacity="0.5" d="M134.4 115.428C129.282 119.58 124.002 123.486 118.692 127.326C113.382 131.166 108 134.898 102.6 138.6C97.2 142.302 91.71 145.866 86.196 149.4C83.454 151.2 80.67 152.904 77.904 154.656C76.5397 155.596 75.0322 156.309 73.44 156.768C72.5768 157.001 71.6923 157.145 70.8 157.2C69.7973 157.283 68.788 157.228 67.8 157.038C67.0265 156.881 66.2917 156.572 65.6376 156.13C64.9835 155.688 64.4231 155.122 63.9883 154.463C63.5536 153.804 63.2531 153.066 63.1041 152.291C62.9551 151.516 62.9605 150.719 63.12 149.946C63.12 149.856 63.162 149.742 63.186 149.646C63.4552 148.674 63.8591 147.745 64.386 146.886C64.8293 146.121 65.35 145.403 65.94 144.744C67.0514 143.515 68.3542 142.473 69.798 141.66C72.588 139.944 75.354 138.198 78.156 136.518C83.742 133.104 89.382 129.786 95.052 126.51C100.722 123.234 106.452 120.06 112.23 116.964C118.008 113.868 123.834 110.85 129.81 108.066C130.774 107.648 131.856 107.59 132.86 107.903C133.863 108.215 134.721 108.878 135.277 109.769C135.833 110.661 136.05 111.723 135.889 112.762C135.728 113.8 135.2 114.746 134.4 115.428Z" fill="white"/>
<path d="M112.26 244.578L117.156 243.444L114.864 232.026L109.968 233.16L112.26 244.578Z" fill="#EBB376"/>
<path d="M79.248 108.138C78.57 110.538 77.916 113.064 77.292 115.536C76.668 118.008 76.092 120.516 75.612 123.012C75.348 124.254 75.12 125.526 74.922 126.696C74.724 127.866 74.61 129.096 74.538 130.326C74.475 131.549 74.475 132.775 74.538 133.998C74.538 134.598 74.616 135.198 74.676 135.834C74.736 136.47 74.844 137.076 74.928 137.598L72.528 138.504C72.2131 137.859 71.9424 137.194 71.718 136.512C71.4832 135.857 71.283 135.19 71.118 134.514C70.7897 133.165 70.565 131.793 70.446 130.41C70.3349 129.013 70.3149 127.61 70.386 126.21C70.482 124.794 70.65 123.492 70.836 122.172C71.214 119.538 71.7 116.928 72.276 114.372C72.852 111.816 73.476 109.242 74.286 106.656L79.248 108.138Z" fill="#EBB376"/>
<path d="M72.186 108.966L77.232 112.986L80.262 115.386C80.262 115.386 80.58 114.54 80.964 113.328C81.696 110.988 82.65 107.28 81.99 105.576C80.952 102.876 78.99 100.44 76.506 100.98C74.4 101.454 72.186 108.966 72.186 108.966Z" fill="#263238"/>
<path d="M79.158 244.614H84.18L83.79 232.974H78.762L79.158 244.614Z" fill="#EBB376"/>
<path d="M114.864 232.032L116.094 238.146L111.15 239.046L109.962 233.166L114.864 232.032Z" fill="#DA9D62"/>
<path d="M78.762 232.974H83.79L83.988 238.974H78.96L78.762 232.974Z" fill="#DA9D62"/>
<path d="M95.142 131.472C95.142 131.472 92.226 165.966 89.202 185.406C86.76 201.108 84.828 237.816 84.828 237.816H78C78 237.816 74.736 202.368 75.978 186.816C79.116 147.522 73.578 140.562 80.148 131.454L95.142 131.472Z" fill="#7453EE"/>
<path opacity="0.6" d="M95.142 131.472C95.142 131.472 92.226 165.966 89.202 185.406C86.76 201.108 84.828 237.816 84.828 237.816H78C78 237.816 74.736 202.368 75.978 186.816C79.116 147.522 73.578 140.562 80.148 131.454L95.142 131.472Z" fill="black"/>
<path d="M72.858 138.114L69.894 140.13L70.314 141.852C70.314 141.852 76.488 138.648 74.838 137.364L72.858 138.114Z" fill="#EBB376"/>
<path d="M86.298 244.908C85.8507 244.897 85.4061 244.836 84.972 244.728C84.9499 244.721 84.93 244.709 84.9142 244.692C84.8984 244.675 84.8873 244.654 84.882 244.632C84.8783 244.609 84.8815 244.585 84.8911 244.564C84.9007 244.543 84.9163 244.525 84.936 244.512C85.11 244.398 86.628 243.414 87.216 243.678C87.2826 243.707 87.3402 243.754 87.3824 243.813C87.4247 243.872 87.4501 243.942 87.456 244.014C87.4794 244.127 87.4735 244.244 87.4389 244.355C87.4042 244.465 87.3419 244.565 87.258 244.644C86.98 244.844 86.6393 244.938 86.298 244.908ZM85.308 244.554C86.184 244.734 86.844 244.698 87.108 244.47C87.1631 244.415 87.2035 244.348 87.2256 244.273C87.2476 244.199 87.2505 244.12 87.234 244.044C87.2318 244.012 87.2212 243.982 87.2033 243.955C87.1853 243.929 87.1607 243.908 87.132 243.894C86.814 243.756 85.932 244.2 85.308 244.554Z" fill="#7453EE"/>
<path d="M85.002 244.728C84.9825 244.734 84.9614 244.734 84.942 244.728C84.9244 244.717 84.9097 244.702 84.8992 244.684C84.8888 244.667 84.8828 244.647 84.882 244.626C84.882 244.56 84.882 243.114 85.434 242.628C85.5005 242.565 85.5805 242.519 85.6679 242.492C85.7552 242.465 85.8476 242.458 85.938 242.472C86.0326 242.473 86.1241 242.506 86.1973 242.566C86.2704 242.626 86.3208 242.709 86.34 242.802C86.454 243.402 85.536 244.458 85.062 244.728C85.0424 244.734 85.0216 244.734 85.002 244.728ZM85.854 242.694C85.7568 242.696 85.6635 242.732 85.59 242.796C85.2752 243.263 85.1137 243.817 85.128 244.38C85.602 243.996 86.178 243.18 86.106 242.838C86.106 242.784 86.064 242.712 85.908 242.694H85.854Z" fill="#7453EE"/>
<path d="M117.6 242.688C117.578 242.687 117.556 242.679 117.537 242.667C117.519 242.655 117.504 242.637 117.494 242.617C117.484 242.597 117.48 242.575 117.482 242.552C117.483 242.53 117.491 242.508 117.504 242.49C117.666 242.298 119.064 240.654 119.778 240.654H119.826C119.891 240.659 119.954 240.68 120.008 240.717C120.061 240.754 120.104 240.805 120.132 240.864C120.18 240.957 120.206 241.06 120.206 241.164C120.206 241.268 120.18 241.371 120.132 241.464C119.82 242.124 118.41 242.496 117.594 242.664L117.6 242.688ZM119.772 240.888C119.382 240.888 118.518 241.704 117.924 242.37C119.022 242.112 119.766 241.77 119.94 241.38C119.975 241.319 119.994 241.25 119.994 241.179C119.994 241.108 119.975 241.039 119.94 240.978C119.93 240.954 119.913 240.933 119.892 240.917C119.871 240.901 119.846 240.891 119.82 240.888H119.772Z" fill="#7453EE"/>
<path d="M117.6 242.688C117.58 242.685 117.561 242.676 117.546 242.662C117.531 242.648 117.521 242.63 117.516 242.61C117.516 242.556 117.084 241.26 117.468 240.534C117.521 240.428 117.595 240.333 117.686 240.257C117.777 240.181 117.882 240.124 117.996 240.09C118.314 239.994 118.47 240.09 118.536 240.228C118.842 240.72 118.164 242.172 117.714 242.628C117.702 242.647 117.685 242.663 117.665 242.674C117.645 242.684 117.623 242.689 117.6 242.688ZM118.2 240.288C118.154 240.281 118.108 240.281 118.062 240.288C117.978 240.312 117.9 240.353 117.833 240.409C117.766 240.465 117.711 240.534 117.672 240.612C117.498 241.158 117.498 241.746 117.672 242.292C118.098 241.692 118.512 240.618 118.332 240.324C118.312 240.3 118.285 240.283 118.254 240.277C118.224 240.27 118.192 240.274 118.164 240.288H118.2Z" fill="#7453EE"/>
<path d="M85.44 88.842C86.04 91.842 87.24 97.842 85.17 99.852C85.17 99.852 85.986 102.852 91.53 102.852C97.62 102.852 94.44 99.852 94.44 99.852C91.116 99.06 91.2 96.594 91.782 94.272L85.44 88.842Z" fill="#EBB376"/>
<path d="M97.548 82.446C97.4987 82.4469 97.4504 82.4322 97.41 82.404C97.3843 82.3855 97.3625 82.3622 97.3459 82.3353C97.3293 82.3084 97.3181 82.2784 97.3131 82.2472C97.3081 82.216 97.3093 82.1841 97.3166 82.1533C97.324 82.1226 97.3373 82.0936 97.3559 82.068C97.5725 81.7596 97.8586 81.5066 98.1912 81.3294C98.5237 81.1522 98.8932 81.0558 99.2699 81.048C99.3263 81.057 99.3777 81.0858 99.4147 81.1292C99.4518 81.1727 99.4721 81.2279 99.4721 81.285C99.4721 81.3421 99.4518 81.3973 99.4147 81.4407C99.3777 81.4842 99.3263 81.513 99.2699 81.522C98.9703 81.5302 98.6769 81.6096 98.414 81.7536C98.1511 81.8975 97.9263 82.102 97.7579 82.35C97.7342 82.3828 97.7024 82.4089 97.6656 82.4257C97.6288 82.4425 97.5883 82.4495 97.548 82.446Z" fill="#263238"/>
<path d="M98.88 85.308C99.2035 86.2479 99.6558 87.1384 100.224 87.954C100.011 88.0924 99.7698 88.1828 99.518 88.219C99.2663 88.2553 99.0097 88.2365 98.766 88.164L98.88 85.308Z" fill="#DE5753"/>
<path d="M98.5439 84.6C98.5439 85.008 98.7299 85.344 98.994 85.35C99.258 85.356 99.486 85.044 99.504 84.636C99.522 84.228 99.318 83.898 99.0539 83.886C98.7899 83.874 98.5619 84.198 98.5439 84.6Z" fill="#263238"/>
<path d="M98.934 83.904L99.918 83.664C99.918 83.664 99.39 84.402 98.934 83.904Z" fill="#263238"/>
<path d="M84.6 244.032H78.954C78.8563 244.028 78.7608 244.061 78.6863 244.125C78.6119 244.188 78.5639 244.277 78.552 244.374L77.91 248.838C77.8963 248.951 77.9069 249.066 77.9412 249.174C77.9755 249.283 78.0327 249.383 78.1088 249.468C78.185 249.552 78.2784 249.62 78.3828 249.665C78.4872 249.711 78.6001 249.734 78.714 249.732C80.682 249.702 81.63 249.582 84.114 249.582C85.644 249.582 87.87 249.744 89.982 249.744C92.094 249.744 92.202 247.656 91.326 247.47C87.39 246.618 86.766 245.454 85.44 244.338C85.2038 244.142 84.907 244.034 84.6 244.032Z" fill="#263238"/>
<path d="M117.06 242.154L111.846 244.32C111.756 244.355 111.681 244.422 111.637 244.508C111.593 244.595 111.582 244.694 111.606 244.788L112.722 249.162C112.754 249.271 112.808 249.372 112.882 249.459C112.955 249.545 113.047 249.615 113.149 249.664C113.252 249.713 113.364 249.739 113.477 249.742C113.591 249.744 113.703 249.722 113.808 249.678C115.608 248.892 116.448 248.424 118.74 247.47C120.15 246.87 123.132 245.82 125.082 245.01C127.032 244.2 126.33 242.232 125.448 242.394C121.488 243.126 119.604 242.64 117.954 242.118C117.661 242.025 117.345 242.037 117.06 242.154Z" fill="#263238"/>
<path d="M105.708 106.074C106.686 108.378 107.742 110.736 108.81 113.028C109.35 114.18 109.912 115.312 110.496 116.424C111.096 117.54 111.696 118.632 112.296 119.676C112.614 120.192 112.932 120.708 113.262 121.182L113.754 121.866C113.855 122.009 113.969 122.141 114.096 122.262C114.75 122.83 115.567 123.179 116.43 123.258C118.476 123.552 121.044 123.138 123.342 122.52L124.41 124.83C123.803 125.195 123.174 125.521 122.526 125.808C121.889 126.105 121.233 126.361 120.564 126.576C119.153 127.056 117.674 127.309 116.184 127.326C115.353 127.333 114.525 127.224 113.724 127.002C112.835 126.757 111.999 126.35 111.258 125.802C110.879 125.513 110.527 125.19 110.208 124.836C109.938 124.53 109.74 124.272 109.5 123.984C109.05 123.42 108.648 122.85 108.246 122.28C106.751 120.03 105.404 117.685 104.214 115.26C103.014 112.86 101.934 110.46 100.938 107.976L105.708 106.074Z" fill="#EBB376"/>
<path d="M122.826 125.112L128.31 124.248L126.852 121.14C126.852 121.14 122.604 121.878 121.788 123.798L122.826 125.112Z" fill="#EBB376"/>
<path d="M128.304 121.824L127.704 120.498L126.852 121.14L128.304 124.248V121.824Z" fill="#EBB376"/>
<path d="M84.984 82.674C85.092 87.66 85.032 89.772 87.444 92.424C91.044 96.414 97.176 95.19 98.556 90.27C99.798 85.842 99.408 78.432 94.62 76.26C93.5657 75.7766 92.4055 75.5707 91.2493 75.6619C90.0931 75.753 88.9794 76.1382 88.014 76.7808C87.0486 77.4235 86.2634 78.3022 85.7331 79.3336C85.2028 80.365 84.9449 81.5149 84.984 82.674Z" fill="#EBB376"/>
<path d="M80.964 73.668C86.088 69.954 91.812 72.06 94.944 74.628C98.22 77.316 97.698 82.482 95.694 84.618C95.9018 84.9339 96.0394 85.2908 96.0974 85.6644C96.1553 86.0381 96.1324 86.4199 96.03 86.784C96.2829 88.3824 95.9313 90.0178 95.0439 91.3711C94.1565 92.7245 92.7968 93.6987 91.23 94.104L90.948 94.176C84.546 95.7 77.148 91.368 76.032 84.888C75.354 80.934 76.434 76.944 80.964 73.668Z" fill="#263238"/>
<path d="M94.548 84.984C94.63 85.924 95.0324 86.8073 95.688 87.486C96.576 88.404 97.488 87.876 97.65 86.79C97.788 85.812 97.494 84.156 96.414 83.634C95.334 83.112 94.47 83.874 94.548 84.984Z" fill="#EBB376"/>
<path opacity="0.3" d="M88.2 147.6C87.63 157.908 90.114 165.69 91.248 170.244C92.052 163.512 92.79 156.486 93.408 150.288C91.29 143.268 88.614 139.842 88.2 147.6Z" fill="black"/>
<path d="M85.77 237.948H77.04L76.578 234.888L85.818 234.576L85.77 237.948Z" fill="#7453EE"/>
<path opacity="0.3" d="M77.2321 112.986L80.2621 115.386C80.2621 115.386 80.5801 114.54 80.9641 113.328L79.1641 104.418L77.2321 112.986Z" fill="black"/>
<path d="M83.8199 74.502C85.3859 72.768 90.7079 70.122 95.2739 72.198C96.5764 72.7912 97.68 73.7475 98.4526 74.9522C99.2253 76.1569 99.634 77.5588 99.6299 78.99L95.5139 81.75L83.8199 74.502Z" fill="#263238"/>
<path d="M79.6199 79.056C81.8819 77.202 84.4199 70.482 79.6199 72.822C74.8199 75.162 73.3619 84.186 79.6199 79.056Z" fill="#7453EE"/>
<path d="M80.1299 74.748C81.1079 71.892 74.6579 66.21 70.3079 71.61C65.9579 77.01 77.3159 82.968 80.1299 74.748Z" fill="#263238"/>
<path d="M90.222 78.732C86.472 77.136 84.606 71.088 91.044 71.262C97.482 71.436 97.296 81.75 90.222 78.732Z" fill="#7453EE"/>
<path d="M89.01 75.6C86.736 72.762 89.25 65.466 95.772 67.8C102.294 70.134 94.23 82.086 89.01 75.6Z" fill="#263238"/>
<path d="M100.536 131.472C100.536 131.472 106.2 170.172 108.192 185.4C110.262 201.21 116.31 236.658 116.31 236.658L109.59 237.684C109.59 237.684 98.97 203.874 96.012 188.484C92.784 171.714 86.412 131.484 86.412 131.484L100.536 131.472Z" fill="#7453EE"/>
<path opacity="0.6" d="M100.536 131.472C100.536 131.472 106.2 170.172 108.192 185.4C110.262 201.21 116.31 236.658 116.31 236.658L109.59 237.684C109.59 237.684 98.97 203.874 96.012 188.484C92.784 171.714 86.412 131.484 86.412 131.484L100.536 131.472Z" fill="black"/>
<path d="M102.936 101.142C105.432 101.742 108.51 108.606 108.51 108.606L102.564 116.226C102.564 116.226 96.42 107.532 97.242 104.88C98.094 102.114 99.9059 100.404 102.936 101.142Z" fill="#263238"/>
<path d="M94.8 100.83C95.622 100.95 94.86 99.072 94.518 98.874C93.732 98.406 83.718 97.464 83.832 98.52C83.8926 99.1502 84.1631 99.7418 84.6 100.2C85.05 100.5 87.6 99.672 94.8 100.83Z" fill="#7453EE"/>
<path opacity="0.6" d="M94.8 100.83C95.622 100.95 94.86 99.072 94.518 98.874C93.732 98.406 83.718 97.464 83.832 98.52C83.8926 99.1502 84.1631 99.7418 84.6 100.2C85.05 100.5 87.6 99.672 94.8 100.83Z" fill="white"/>
<path d="M102.936 101.142C102.936 101.142 105.336 101.982 100.536 131.472H80.136C80.478 123.168 80.49 118.044 76.536 100.992C79.3926 100.402 82.2882 100.021 85.2 99.852C88.286 99.6297 91.384 99.6297 94.47 99.852C98.4 100.2 102.936 101.142 102.936 101.142Z" fill="#263238"/>
<path d="M79.8 130.278L78.882 132.078C78.81 132.222 78.978 132.366 79.212 132.366H100.62C100.8 132.366 100.956 132.276 100.968 132.156L101.148 130.356C101.148 130.23 101.004 130.122 100.8 130.122H80.148C80.0812 130.113 80.0131 130.123 79.9516 130.15C79.8901 130.178 79.8375 130.222 79.8 130.278Z" fill="#7453EE"/>
<path opacity="0.6" d="M79.8 130.278L78.882 132.078C78.81 132.222 78.978 132.366 79.212 132.366H100.62C100.8 132.366 100.956 132.276 100.968 132.156L101.148 130.356C101.148 130.23 101.004 130.122 100.8 130.122H80.148C80.0812 130.113 80.0131 130.123 79.9516 130.15C79.8901 130.178 79.8375 130.222 79.8 130.278Z" fill="white"/>
<path d="M82.596 132.6H82.038C81.93 132.6 81.846 132.54 81.852 132.474L82.116 130.074C82.116 130.002 82.218 129.948 82.326 129.948H82.884C82.992 129.948 83.076 130.002 83.07 130.074L82.806 132.474C82.8 132.528 82.704 132.6 82.596 132.6Z" fill="#7453EE"/>
<path d="M96 132.6H95.448C95.334 132.6 95.25 132.54 95.262 132.474L95.52 130.074C95.52 130.002 95.622 129.948 95.736 129.948H96.288C96.396 129.948 96.48 130.002 96.474 130.074L96.216 132.474C96.216 132.528 96.12 132.6 96 132.6Z" fill="#7453EE"/>
<path opacity="0.6" d="M82.596 132.6H82.038C81.93 132.6 81.846 132.54 81.852 132.474L82.116 130.074C82.116 130.002 82.218 129.948 82.326 129.948H82.884C82.992 129.948 83.076 130.002 83.07 130.074L82.806 132.474C82.8 132.528 82.704 132.6 82.596 132.6Z" fill="black"/>
<path opacity="0.6" d="M96 132.6H95.448C95.334 132.6 95.25 132.54 95.262 132.474L95.52 130.074C95.52 130.002 95.622 129.948 95.736 129.948H96.288C96.396 129.948 96.48 130.002 96.474 130.074L96.216 132.474C96.216 132.528 96.12 132.6 96 132.6Z" fill="black"/>
<path d="M117.3 236.658L108.696 238.122L107.718 234.876L116.928 233.298L117.3 236.658Z" fill="#7453EE"/>
<path d="M203.046 69.156C198.47 61.8277 191.823 56.0209 183.946 52.4701C176.07 48.9192 167.317 47.7837 158.795 49.207C150.273 50.6304 142.365 54.5488 136.07 60.4667C129.775 66.3845 125.376 74.0362 123.429 82.454C121.483 90.8719 122.076 99.6779 125.134 107.759C128.192 115.839 133.578 122.832 140.61 127.852C147.641 132.872 156.004 135.694 164.64 135.961C173.276 136.229 181.797 133.929 189.126 129.354C193.993 126.316 198.214 122.348 201.548 117.679C204.881 113.009 207.262 107.728 208.555 102.138C209.848 96.5482 210.026 90.7583 209.081 85.0992C208.136 79.44 206.085 74.0225 203.046 69.156ZM136.752 110.556C133.142 104.773 131.328 98.0491 131.539 91.235C131.75 84.4209 133.977 77.8224 137.939 72.274C141.9 66.7255 147.418 62.4763 153.794 60.0637C160.17 57.6511 167.119 57.1833 173.761 58.7197C180.403 60.256 186.44 63.7274 191.109 68.6948C195.778 73.6623 198.87 79.9028 199.992 86.6271C201.115 93.3515 200.218 100.258 197.416 106.472C194.613 112.687 190.031 117.931 184.248 121.542C180.408 123.939 176.133 125.556 171.668 126.301C167.202 127.046 162.634 126.904 158.223 125.884C153.813 124.863 149.647 122.983 145.963 120.352C142.278 117.722 139.149 114.391 136.752 110.55V110.556Z" fill="#7453EE"/>
<path d="M203.046 69.156C198.47 61.8277 191.823 56.0209 183.946 52.4701C176.07 48.9192 167.317 47.7837 158.795 49.207C150.273 50.6304 142.365 54.5488 136.07 60.4667C129.775 66.3845 125.376 74.0362 123.429 82.454C121.483 90.8719 122.076 99.6779 125.134 107.759C128.192 115.839 133.578 122.832 140.61 127.852C147.641 132.872 156.004 135.694 164.64 135.961C173.276 136.229 181.797 133.929 189.126 129.354C193.993 126.316 198.214 122.348 201.548 117.679C204.881 113.009 207.262 107.728 208.555 102.138C209.848 96.5482 210.026 90.7583 209.081 85.0992C208.136 79.44 206.085 74.0225 203.046 69.156ZM136.752 110.556C133.142 104.773 131.328 98.0491 131.539 91.235C131.75 84.4209 133.977 77.8224 137.939 72.274C141.9 66.7255 147.418 62.4763 153.794 60.0637C160.17 57.6511 167.119 57.1833 173.761 58.7197C180.403 60.256 186.44 63.7274 191.109 68.6948C195.778 73.6623 198.87 79.9028 199.992 86.6271C201.115 93.3515 200.218 100.258 197.416 106.472C194.613 112.687 190.031 117.931 184.248 121.542C180.408 123.939 176.133 125.556 171.668 126.301C167.202 127.046 162.634 126.904 158.223 125.884C153.813 124.863 149.647 122.983 145.963 120.352C142.278 117.722 139.149 114.391 136.752 110.55V110.556Z" fill="#7453EE"/>
<path opacity="0.5" d="M203.046 69.156C198.47 61.8277 191.823 56.0209 183.946 52.4701C176.07 48.9192 167.317 47.7837 158.795 49.207C150.273 50.6304 142.365 54.5488 136.07 60.4667C129.775 66.3845 125.376 74.0362 123.429 82.454C121.483 90.8719 122.076 99.6779 125.134 107.759C128.192 115.839 133.578 122.832 140.61 127.852C147.641 132.872 156.004 135.694 164.64 135.961C173.276 136.229 181.797 133.929 189.126 129.354C193.993 126.316 198.214 122.348 201.548 117.679C204.881 113.009 207.262 107.728 208.555 102.138C209.848 96.5482 210.026 90.7583 209.081 85.0992C208.136 79.44 206.085 74.0225 203.046 69.156ZM136.752 110.556C133.142 104.773 131.328 98.0491 131.539 91.235C131.75 84.4209 133.977 77.8224 137.939 72.274C141.9 66.7255 147.418 62.4763 153.794 60.0637C160.17 57.6511 167.119 57.1833 173.761 58.7197C180.403 60.256 186.44 63.7274 191.109 68.6948C195.778 73.6623 198.87 79.9028 199.992 86.6271C201.115 93.3515 200.218 100.258 197.416 106.472C194.613 112.687 190.031 117.931 184.248 121.542C180.408 123.939 176.133 125.556 171.668 126.301C167.202 127.046 162.634 126.904 158.223 125.884C153.813 124.863 149.647 122.983 145.963 120.352C142.278 117.722 139.149 114.391 136.752 110.55V110.556Z" fill="white"/>
<path opacity="0.2" d="M198.12 72.234C202.086 78.5889 204.079 85.9771 203.846 93.4645C203.613 100.952 201.166 108.202 196.813 114.298C192.46 120.395 186.397 125.064 179.391 127.715C172.385 130.366 164.75 130.88 157.452 129.192C150.153 127.504 143.519 123.69 138.389 118.232C133.258 112.775 129.86 105.918 128.626 98.5293C127.392 91.1407 128.376 83.552 131.454 76.7228C134.532 69.8936 139.567 64.1304 145.92 60.162C150.14 57.5262 154.838 55.7476 159.745 54.9278C164.653 54.108 169.673 54.2631 174.521 55.3841C179.368 56.5052 183.947 58.5702 187.997 61.4614C192.046 64.3525 195.486 68.0131 198.12 72.234Z" fill="#FAFAFA"/>
<path opacity="0.1" d="M203.502 86.934L144.702 123.642C139.907 120.388 135.923 116.078 133.056 111.042L197.256 70.956C200.532 75.7345 202.669 81.2006 203.502 86.934Z" fill="#E6E6E6"/>
</svg>
