<svg width="22" height="23" viewBox="0 0 22 23" fill="none" xmlns="http://www.w3.org/2000/svg">
<g clip-path="url(#clip0_73_198)">
<path d="M11 0.583496C8.01003 0.583496 7.6374 0.597934 6.46728 0.647434C5.29234 0.705184 4.49759 0.887371 3.79634 1.15962C3.06241 1.4367 2.39774 1.87051 1.84865 2.43081C1.28679 2.97861 0.85274 3.64365 0.577468 4.3785C0.305218 5.07975 0.12303 5.8745 0.0652803 7.04943C0.0123428 8.22025 0.00134277 8.59218 0.00134277 11.5821C0.00134277 14.5721 0.0157803 14.9447 0.0652803 16.1148C0.12303 17.2863 0.305218 18.0845 0.577468 18.7857C0.854544 19.5197 1.28835 20.1844 1.84865 20.7334C2.39645 21.2953 3.0615 21.7293 3.79634 22.0046C4.49759 22.2734 5.29578 22.4591 6.46728 22.5168C7.63809 22.5697 8.01003 22.5807 11 22.5807C13.9899 22.5807 14.3625 22.5663 15.5327 22.5168C16.7042 22.4591 17.5023 22.2727 18.2036 22.0046C18.9375 21.7275 19.6022 21.2937 20.1513 20.7334C20.7139 20.1862 21.148 19.521 21.4225 18.7857C21.6913 18.0845 21.8769 17.2863 21.9347 16.1148C21.9876 14.944 21.9986 14.5721 21.9986 11.5821C21.9986 8.59218 21.9841 8.21956 21.9347 7.04943C21.8769 5.87793 21.6906 5.07562 21.4225 4.3785C21.1454 3.64456 20.7116 2.97989 20.1513 2.43081C19.6041 1.86822 18.9389 1.43406 18.2036 1.15962C17.5023 0.887371 16.7042 0.705184 15.5327 0.647434C14.3618 0.594496 13.9899 0.583496 11 0.583496ZM11 2.5635C13.9363 2.5635 14.2869 2.57793 15.4474 2.62743C16.5178 2.67762 17.1008 2.85637 17.4879 3.00762C17.9664 3.18426 18.3995 3.46539 18.7556 3.83056C19.1202 4.18519 19.4003 4.6173 19.5751 5.09487C19.7264 5.48193 19.9051 6.06493 19.9553 7.13537C20.0048 8.29587 20.0193 8.64718 20.0193 11.5828C20.0193 14.5184 20.0048 14.8697 19.9512 16.0302C19.8935 17.1007 19.7147 17.6837 19.5641 18.0707C19.3558 18.5871 19.1235 18.948 18.7398 19.3385C18.3825 19.7014 17.9497 19.9812 17.4721 20.158C17.0898 20.3092 16.4986 20.488 15.424 20.5382C14.2573 20.5877 13.9136 20.6021 10.9697 20.6021C8.02584 20.6021 7.68278 20.5877 6.51472 20.5341C5.44428 20.4763 4.85372 20.2976 4.46665 20.147C3.94415 19.9387 3.58597 19.7063 3.20234 19.3227C2.81528 18.9356 2.56915 18.5671 2.3794 18.0549C2.2254 17.6727 2.0494 17.0814 1.99234 16.0069C1.95315 14.8539 1.93459 14.4964 1.93459 11.5663C1.93459 8.63756 1.95315 8.27937 1.99234 7.112C2.0494 6.03743 2.2254 5.44756 2.3794 5.06393C2.56915 4.54075 2.81597 4.18325 3.20234 3.79618C3.58528 3.41325 3.94415 3.16575 4.46665 2.97187C4.85372 2.82131 5.42984 2.64256 6.5044 2.58893C7.67109 2.547 8.01484 2.53187 10.9546 2.53187L11 2.5635ZM11 5.93706C10.2584 5.93679 9.52403 6.08265 8.83885 6.36632C8.15367 6.64998 7.5311 7.06588 7.00673 7.59026C6.48235 8.11463 6.06645 8.7372 5.78279 9.42238C5.49912 10.1076 5.35326 10.8419 5.35353 11.5835C5.35326 12.3251 5.49912 13.0594 5.78279 13.7446C6.06645 14.4298 6.48235 15.0524 7.00673 15.5767C7.5311 16.1011 8.15367 16.517 8.83885 16.8007C9.52403 17.0843 10.2584 17.2302 11 17.2299C11.7415 17.2302 12.4759 17.0843 13.1611 16.8007C13.8463 16.517 14.4688 16.1011 14.9932 15.5767C15.5176 15.0524 15.9335 14.4298 16.2171 13.7446C16.5008 13.0594 16.6467 12.3251 16.6464 11.5835C16.6467 10.8419 16.5008 10.1076 16.2171 9.42238C15.9335 8.7372 15.5176 8.11463 14.9932 7.59026C14.4688 7.06588 13.8463 6.64998 13.1611 6.36632C12.4759 6.08265 11.7415 5.93679 11 5.93706ZM11 15.2499C8.97322 15.2499 7.33353 13.6102 7.33353 11.5835C7.33353 9.55675 8.97322 7.91706 11 7.91706C13.0267 7.91706 14.6664 9.55675 14.6664 11.5835C14.6664 13.6102 13.0267 15.2499 11 15.2499ZM18.194 5.71156C18.1936 6.06195 18.0541 6.39787 17.8063 6.64551C17.5584 6.89315 17.2223 7.03225 16.8719 7.03225C16.6986 7.03225 16.5271 6.99812 16.367 6.93182C16.207 6.86552 16.0615 6.76834 15.939 6.64583C15.8165 6.52332 15.7193 6.37788 15.653 6.21781C15.5867 6.05775 15.5526 5.88619 15.5526 5.71293C15.5526 5.53968 15.5867 5.36812 15.653 5.20805C15.7193 5.04799 15.8165 4.90255 15.939 4.78004C16.0615 4.65753 16.207 4.56035 16.367 4.49405C16.5271 4.42775 16.6986 4.39362 16.8719 4.39362C17.5986 4.39362 18.194 4.98487 18.194 5.71156Z" fill="white"/>
</g>
<defs>
<clipPath id="clip0_73_198">
<rect width="22" height="22" fill="white" transform="translate(0 0.583496)"/>
</clipPath>
</defs>
</svg>
