<svg width="29" height="29" viewBox="0 0 29 29" fill="none" xmlns="http://www.w3.org/2000/svg">
	<path d="M14.1244 25.0834C12.6498 23.8265 11.283 22.4485 10.0382 20.9639C8.17023 18.7344 5.95203 15.4141 5.95203 12.2501C5.95122 10.6342 6.43012 9.05443 7.32812 7.71064C8.22613 6.36685 9.50287 5.31948 10.9968 4.70107C12.4907 4.08267 14.1346 3.92103 15.7204 4.23661C17.3063 4.5522 18.7628 5.33082 19.9057 6.47394C20.6666 7.23094 21.2697 8.13123 21.6801 9.12271C22.0906 10.1142 22.3001 11.1772 22.2967 12.2501C22.2967 15.4141 20.0785 18.7344 18.2105 20.9639C16.9658 22.4485 15.599 23.8265 14.1244 25.0834ZM14.1244 8.75011C13.1955 8.75011 12.3046 9.11886 11.6478 9.77523C10.9909 10.4316 10.6219 11.3219 10.6219 12.2501C10.6219 13.1784 10.9909 14.0686 11.6478 14.725C12.3046 15.3814 13.1955 15.7501 14.1244 15.7501C15.0533 15.7501 15.9441 15.3814 16.601 14.725C17.2578 14.0686 17.6268 13.1784 17.6268 12.2501C17.6268 11.3219 17.2578 10.4316 16.601 9.77523C15.9441 9.11886 15.0533 8.75011 14.1244 8.75011Z" fill="white" />
	<svg width="22" height="28" viewBox="0 0 22 28" fill="none" xmlns="http://www.w3.org/2000/svg">
		<path d="M11 16C10.0111 16 9.0444 15.7068 8.22215 15.1574C7.39991 14.6079 6.75904 13.8271 6.3806 12.9134C6.00217 11.9998 5.90315 10.9945 6.09608 10.0246C6.289 9.05465 6.76521 8.16373 7.46447 7.46447C8.16373 6.76521 9.05465 6.289 10.0246 6.09608C10.9945 5.90315 11.9998 6.00217 12.9134 6.3806C13.8271 6.75904 14.6079 7.39991 15.1574 8.22215C15.7068 9.0444 16 10.0111 16 11C15.9984 12.3256 15.4711 13.5964 14.5338 14.5338C13.5964 15.4711 12.3256 15.9984 11 16ZM11 8C10.4067 8 9.82664 8.17595 9.33329 8.50559C8.83994 8.83524 8.45543 9.30377 8.22836 9.85195C8.0013 10.4001 7.94189 11.0033 8.05765 11.5853C8.1734 12.1672 8.45912 12.7018 8.87868 13.1213C9.29824 13.5409 9.83279 13.8266 10.4147 13.9424C10.9967 14.0581 11.5999 13.9987 12.1481 13.7716C12.6962 13.5446 13.1648 13.1601 13.4944 12.6667C13.8241 12.1734 14 11.5933 14 11C13.9992 10.2046 13.6829 9.442 13.1204 8.87956C12.558 8.31712 11.7954 8.0008 11 8Z" fill="#090909" fill-opacity="0.75" />
		<path d="M11 28L2.56401 18.051C2.44679 17.9016 2.33079 17.7513 2.21601 17.6C0.774992 15.7018 -0.00348119 13.3832 1.17029e-05 11C1.17029e-05 8.08262 1.15894 5.28473 3.22184 3.22183C5.28474 1.15893 8.08263 0 11 0C13.9174 0 16.7153 1.15893 18.7782 3.22183C20.8411 5.28473 22 8.08262 22 11C22.0035 13.3821 21.2254 15.6996 19.785 17.597L19.784 17.6C19.784 17.6 19.484 17.994 19.439 18.047L11 28ZM3.81201 16.395C3.81401 16.395 4.04601 16.703 4.09901 16.769L11 24.908L17.91 16.758C17.954 16.703 18.188 16.393 18.189 16.392C19.3662 14.8411 20.0023 12.947 20 11C20 8.61305 19.0518 6.32387 17.364 4.63604C15.6761 2.94821 13.387 2 11 2C8.61306 2 6.32388 2.94821 4.63605 4.63604C2.94822 6.32387 2.00001 8.61305 2.00001 11C1.99791 12.9482 2.63479 14.8434 3.81301 16.395H3.81201Z" fill="#090909" fill-opacity="0.75" />
	</svg>
</svg>
