<svg width="29" height="29" viewBox="0 0 29 29" fill="none" xmlns="http://www.w3.org/2000/svg">
<path d="M14.1244 25.0834C12.6498 23.8265 11.283 22.4485 10.0382 20.9639C8.17023 18.7344 5.95203 15.4141 5.95203 12.2501C5.95122 10.6342 6.43012 9.05443 7.32812 7.71064C8.22613 6.36685 9.50287 5.31948 10.9968 4.70107C12.4907 4.08267 14.1346 3.92103 15.7204 4.23661C17.3063 4.5522 18.7628 5.33082 19.9057 6.47394C20.6666 7.23094 21.2697 8.13123 21.6801 9.12271C22.0906 10.1142 22.3001 11.1772 22.2967 12.2501C22.2967 15.4141 20.0785 18.7344 18.2105 20.9639C16.9658 22.4485 15.599 23.8265 14.1244 25.0834ZM14.1244 8.75011C13.1955 8.75011 12.3046 9.11886 11.6478 9.77523C10.9909 10.4316 10.6219 11.3219 10.6219 12.2501C10.6219 13.1784 10.9909 14.0686 11.6478 14.725C12.3046 15.3814 13.1955 15.7501 14.1244 15.7501C15.0533 15.7501 15.9441 15.3814 16.601 14.725C17.2578 14.0686 17.6268 13.1784 17.6268 12.2501C17.6268 11.3219 17.2578 10.4316 16.601 9.77523C15.9441 9.11886 15.0533 8.75011 14.1244 8.75011Z" fill="white"/>
</svg>
