<svg width="25" height="24" viewBox="0 0 25 24" fill="none" xmlns="http://www.w3.org/2000/svg">
<path d="M12.5 1C6.14855 1 1 5.9247 1 12C1 18.0753 6.14855 23 12.5 23C18.8514 23 24 18.0753 24 12C24 5.9247 18.8514 1 12.5 1Z" stroke="#7453EE" stroke-width="2" stroke-linecap="round" stroke-linejoin="round"/>
<path d="M3.61163 18.9806C3.61163 18.9806 6.17498 15.85 12.5 15.85C18.825 15.85 21.3895 18.9806 21.3895 18.9806H3.61163ZM12.5 12C13.415 12 14.2925 11.6523 14.9395 11.0335C15.5865 10.4146 15.95 9.57524 15.95 8.70002C15.95 7.82481 15.5865 6.98544 14.9395 6.36657C14.2925 5.7477 13.415 5.40002 12.5 5.40002C11.585 5.40002 10.7075 5.7477 10.0605 6.36657C9.41346 6.98544 9.04998 7.82481 9.04998 8.70002C9.04998 9.57524 9.41346 10.4146 10.0605 11.0335C10.7075 11.6523 11.585 12 12.5 12V12Z" stroke="#7453EE" stroke-width="2" stroke-linecap="round" stroke-linejoin="round"/>
</svg>
