<svg width="121" height="46" viewBox="0 0 121 46" fill="none" xmlns="http://www.w3.org/2000/svg">
<path fill-rule="evenodd" clip-rule="evenodd" d="M15.2007 38.971H31.8985C32.9402 38.971 33.7896 40.1401 33.7896 41.5737V43.3973C33.7896 44.8309 32.9402 46 31.8985 46H7.02933C1.52533 46 0 42.9575 0 36.325V21.2042C0 18.0821 1.0414 15.2524 2.86985 13.405L14.2693 1.88833C16.7513 -0.619117 20.0694 -0.630397 22.5605 1.86044L30.4267 9.72599L32.1231 11.3831C32.5933 11.8423 32.8643 12.4964 32.9131 13.2869C32.9616 14.0774 32.7735 14.7848 32.3658 15.3458L15.2009 38.9704L15.2007 38.971ZM88.8038 17.7166V21.291C88.5103 21.2302 88.2315 21.2001 87.9676 21.2001C86.0458 21.2001 85.0845 22.6437 85.0845 25.5314V32.5585H82.5317V17.8078H85.0185V20.1701C85.2681 19.3828 85.6714 18.7619 86.2289 18.3074C86.7864 17.8529 87.4174 17.626 88.1216 17.626C88.3563 17.626 88.5838 17.6564 88.8038 17.7169V17.7166ZM118.755 13.2944V17.8075H120.978V20.9274H118.755V27.7724C118.755 28.4187 118.865 28.8882 119.085 29.181C119.305 29.4737 119.65 29.6201 120.12 29.6201C120.413 29.6201 120.707 29.5797 121 29.4988V32.4065C120.619 32.6284 120.098 32.7397 119.438 32.7397C118.44 32.7397 117.655 32.351 117.083 31.5734C116.51 30.7961 116.224 29.7207 116.224 28.3476V20.9268H114.244V17.8069H114.794C115.337 17.8069 115.747 17.595 116.026 17.1706C116.305 16.7465 116.444 16.1911 116.444 15.5047V13.2935H118.755L118.755 13.2944ZM105.441 24.047V32.5582H102.888V17.8075H105.375V19.7762C105.713 18.9684 106.164 18.3676 106.728 17.9739C107.293 17.5803 107.898 17.3834 108.544 17.3834C109.806 17.3834 110.767 17.9285 111.427 19.0192C112.087 20.1097 112.417 21.5129 112.417 23.2292V32.5582H109.864V23.8351C109.864 22.8456 109.688 22.0532 109.336 21.4574C108.984 20.8616 108.427 20.5638 107.664 20.5638C106.959 20.5638 106.413 20.892 106.024 21.5483C105.635 22.2046 105.441 23.0374 105.441 24.0473L105.441 24.047ZM92.611 23.5624H97.8706C97.8413 22.6337 97.6028 21.8561 97.1553 21.2302C96.7079 20.6042 96.0661 20.2911 95.2297 20.2911C94.4668 20.2911 93.8505 20.6193 93.381 21.2756C92.9116 21.9319 92.6547 22.6942 92.6108 23.5624H92.611ZM98.1569 27.4091L100.313 28.3482C100.005 29.7013 99.4295 30.8168 98.5859 31.695C97.7422 32.5736 96.7042 33.0127 95.472 33.0127C93.9462 33.0127 92.6515 32.2958 91.5878 30.8622C90.5241 29.4286 89.9923 27.5104 89.9923 25.1073C89.9923 22.8456 90.5095 20.9879 91.5439 19.5342C92.5782 18.0805 93.7995 17.3533 95.208 17.3533C96.8511 17.3533 98.1348 18.0451 99.0592 19.4283C99.9835 20.8114 100.446 22.6741 100.446 25.0167C100.446 25.6426 100.423 26.0163 100.38 26.1372H92.545C92.5743 27.2477 92.8715 28.1664 93.4363 28.8936C94.0011 29.6204 94.6797 29.984 95.472 29.984C96.8511 29.984 97.7461 29.1258 98.1569 27.4095V27.4091ZM26.0757 14.0629L19.559 7.54702C18.8651 6.8534 17.9829 6.85622 17.2915 7.55485L5.89205 19.0716C5.37419 19.5947 5.10729 20.3203 5.10729 21.2045V36.3253C5.10729 37.7809 5.97198 38.9713 7.02955 38.9713H7.9785L26.0759 14.0632L26.0757 14.0629Z" fill="#7453EE"/>
<path d="M38.6931 23.5627H43.9527C43.9234 22.634 43.6849 21.8564 43.2375 21.2305C42.79 20.6046 42.1482 20.2914 41.3118 20.2914C40.5489 20.2914 39.9326 20.6196 39.4631 21.2759C38.9935 21.9323 38.7368 22.6945 38.6929 23.5627H38.6931ZM73.8384 38.5256H71.1095L73.6844 30.802L69.1068 17.8081H71.9897L75.0709 27.1371L77.9537 17.8081H80.6605L73.8381 38.5259L73.8384 38.5256ZM59.7319 28.5604L61.9545 27.7122C61.9985 28.419 62.2114 29.0145 62.5926 29.4994C62.9741 29.984 63.4876 30.2263 64.1332 30.2263C64.6322 30.2263 65.0246 30.0645 65.3106 29.7417C65.5966 29.4185 65.7399 29.0145 65.7399 28.53C65.7399 27.6818 65.3217 27.1368 64.4855 26.8945L62.901 26.4099C61.9766 26.1272 61.2652 25.6022 60.7662 24.8349C60.2673 24.0677 60.0182 23.159 60.0182 22.109C60.0182 20.8167 60.3996 19.7009 61.1625 18.7622C61.9254 17.8232 62.857 17.3536 63.9574 17.3536C64.6616 17.3536 65.2851 17.495 65.828 17.7777C66.3709 18.0604 66.7927 18.429 67.0935 18.8832C67.3943 19.3374 67.6252 19.7768 67.7867 20.2009C67.9482 20.6249 68.0509 21.049 68.0948 21.4731L65.9382 22.3212C65.8797 21.7558 65.6923 21.2458 65.3771 20.7917C65.0617 20.3372 64.5885 20.1103 63.9577 20.1103C63.5175 20.1103 63.1506 20.2767 62.8573 20.6099C62.5637 20.9431 62.4171 21.3417 62.4171 21.8062C62.4171 22.6343 62.7764 23.149 63.4954 23.3511L65.1239 23.8053C66.1215 24.1084 66.8844 24.6535 67.4125 25.4411C67.9406 26.2288 68.2048 27.1778 68.2048 28.2883C68.2048 29.5201 67.8491 30.6155 67.1374 31.5746C66.4258 32.5337 65.4317 33.0136 64.1556 33.0136C63.4218 33.0136 62.7655 32.8622 62.1859 32.5591C61.6066 32.256 61.1516 31.8674 60.8216 31.3932C60.4914 30.9186 60.2347 30.4441 60.0514 29.9696C59.8679 29.495 59.7617 29.0255 59.7324 28.561L59.7319 28.5604ZM48.3101 28.5604C48.3101 27.3085 48.6073 26.304 49.2015 25.5467C49.7956 24.7895 50.5769 24.3099 51.5452 24.1078L54.2962 23.5323C54.8243 23.4314 55.0885 23.0782 55.0885 22.4723C55.0885 21.8059 54.9197 21.2659 54.5825 20.8519C54.245 20.4381 53.739 20.2309 53.064 20.2309C52.4184 20.2309 51.9048 20.4782 51.5234 20.9728C51.1419 21.4677 50.922 22.1087 50.8632 22.8964L48.5306 22.1692C48.6333 20.8365 49.0953 19.7006 49.917 18.7619C50.7384 17.8229 51.7803 17.3533 53.0419 17.3533C54.5971 17.3533 55.745 17.8683 56.4861 18.8982C57.2271 19.9279 57.5974 21.2505 57.5974 22.866V30.1959C57.5974 31.1653 57.6413 31.9526 57.7295 32.5585H55.3527C55.2793 32.2554 55.2427 31.6298 55.2427 30.6807C54.5383 32.2353 53.4381 33.013 51.9415 33.013C50.8559 33.013 49.9792 32.5739 49.3117 31.6953C48.6442 30.8171 48.3104 29.7721 48.3104 28.5604H48.3101ZM52.4254 30.2567C53.2177 30.2567 53.8597 29.9589 54.3511 29.3634C54.8426 28.7676 55.0883 27.7934 55.0883 26.4403V25.774L52.2936 26.3494C51.3398 26.5717 50.863 27.238 50.863 28.3485C50.863 28.8735 51.0023 29.323 51.2811 29.6963C51.5598 30.0699 51.9413 30.2567 52.4254 30.2567ZM44.2388 27.4094L46.3954 28.3485C46.0873 29.7016 45.5116 30.8171 44.6678 31.6953C43.8241 32.5739 42.7863 33.013 41.5538 33.013C40.0281 33.013 38.7334 32.2962 37.6697 30.8625C36.606 29.4289 36.0742 27.5107 36.0742 25.1076C36.0742 22.8459 36.5914 20.9882 37.6257 19.5345C38.6601 18.0808 39.8816 17.3536 41.2899 17.3536C42.933 17.3536 44.2169 18.0454 45.141 19.4286C46.0654 20.8117 46.5275 22.6745 46.5275 25.017C46.5275 25.643 46.5056 26.0166 46.4614 26.1376H38.6271C38.6564 27.248 38.9534 28.1667 39.5184 28.8939C40.0832 29.6207 40.7618 29.9843 41.5541 29.9843C42.9332 29.9843 43.8282 29.1261 44.239 27.4098L44.2388 27.4094Z" fill="#06062A"/>
</svg>
