<svg width="100" height="100" viewBox="0 0 100 100" fill="none" xmlns="http://www.w3.org/2000/svg">
<circle cx="50" cy="50" r="50" fill="#B5B5FF"/>
<path d="M37.5 67.5H62.5V61.25C62.4974 58.9302 61.5746 56.7061 59.9343 55.0657C58.2939 53.4254 56.0698 52.5026 53.75 52.5H46.25C43.9302 52.5026 41.7061 53.4254 40.0657 55.0657C38.4254 56.7061 37.5026 58.9302 37.5 61.25V67.5ZM41.25 41.25C41.25 42.9806 41.7632 44.6723 42.7246 46.1112C43.6861 47.5502 45.0527 48.6717 46.6515 49.3339C48.2504 49.9962 50.0097 50.1695 51.707 49.8319C53.4044 49.4942 54.9635 48.6609 56.1872 47.4372C57.4109 46.2135 58.2443 44.6544 58.5819 42.957C58.9195 41.2597 58.7462 39.5004 58.0839 37.9015C57.4217 36.3027 56.3002 34.9361 54.8612 33.9746C53.4223 33.0132 51.7306 32.5 50 32.5C47.6794 32.5 45.4538 33.4219 43.8128 35.0628C42.1719 36.7038 41.25 38.9294 41.25 41.25Z" fill="#F8F8F8"/>
</svg>
