<svg width="658" height="723" viewBox="0 0 658 723" fill="none" xmlns="http://www.w3.org/2000/svg">
<path d="M658 552.95H0V553.312H658V552.95Z" fill="#EBEBEB"/>
<path d="M556.089 562.797H521.912V563.158H556.089V562.797Z" fill="#EBEBEB"/>
<path d="M415.409 565.4H403.973V565.762H415.409V565.4Z" fill="#EBEBEB"/>
<path d="M592.069 576.216H566.814V576.577H592.069V576.216Z" fill="#EBEBEB"/>
<path d="M90.4221 565.227H69.0371V565.588H90.4221V565.227Z" fill="#EBEBEB"/>
<path d="M145.931 565.227H97.4629V565.588H145.931V565.227Z" fill="#EBEBEB"/>
<path d="M388.668 571.328H265.385V571.69H388.668V571.328Z" fill="#EBEBEB"/>
<path d="M311.893 488.458H57.7864C55.7957 488.454 53.8878 487.583 52.4814 486.035C51.075 484.487 50.2852 482.389 50.2852 480.201V87.7137C50.3025 85.5389 51.1 83.4595 52.5045 81.9271C53.909 80.3947 55.8071 79.533 57.7864 79.5293H311.893C313.886 79.5293 315.797 80.3992 317.206 81.9476C318.616 83.496 319.407 85.5962 319.407 87.786V480.201C319.407 482.391 318.616 484.491 317.206 486.04C315.797 487.588 313.886 488.458 311.893 488.458ZM57.7864 79.8185C55.883 79.8223 54.0587 80.6558 52.714 82.136C51.3694 83.6163 50.6142 85.6222 50.6142 87.7137V480.201C50.6142 482.293 51.3694 484.299 52.714 485.779C54.0587 487.259 55.883 488.093 57.7864 488.097H311.893C313.797 488.093 315.623 487.26 316.97 485.78C318.317 484.3 319.075 482.294 319.078 480.201V87.7137C319.075 85.6209 318.317 83.615 316.97 82.1352C315.623 80.6554 313.797 79.8223 311.893 79.8185H57.7864Z" fill="#EBEBEB"/>
<path d="M596.556 488.458H342.436C340.444 488.454 338.535 487.583 337.127 486.036C335.718 484.488 334.925 482.39 334.922 480.201V87.7137C334.943 85.5376 335.743 83.4582 337.15 81.9262C338.556 80.3942 340.456 79.533 342.436 79.5293H596.556C598.533 79.5368 600.428 80.4001 601.829 81.9322C603.231 83.4642 604.027 85.5414 604.044 87.7137V480.201C604.044 482.386 603.256 484.482 601.852 486.03C600.449 487.577 598.544 488.45 596.556 488.458ZM342.436 79.8185C340.532 79.8223 338.706 80.6554 337.359 82.1352C336.012 83.615 335.254 85.6209 335.251 87.7137V480.201C335.254 482.294 336.012 484.3 337.359 485.78C338.706 487.26 340.532 488.093 342.436 488.097H596.556C598.46 488.093 600.286 487.26 601.633 485.78C602.98 484.3 603.738 482.294 603.741 480.201V87.7137C603.738 85.6209 602.98 83.615 601.633 82.1352C600.286 80.6554 598.46 79.8223 596.556 79.8185H342.436Z" fill="#EBEBEB"/>
<path d="M280.137 445.555H218.574V552.949H280.137V445.555Z" fill="#F0F0F0"/>
<path d="M85.6714 552.949H218.574V445.555H85.6714V552.949Z" fill="#F5F5F5"/>
<path d="M85.0259 532.807H150.418V492.405H85.0259V532.807Z" fill="#FAFAFA"/>
<g style="mix-blend-mode:multiply" opacity="0.7">
<path d="M280.138 455.244H85.0273V460.435H280.138V455.244Z" fill="#E6E6E6"/>
</g>
<path d="M283.532 442.418H218.574V457.427H283.532V442.418Z" fill="#F0F0F0"/>
<path d="M82.2761 457.427H218.574V442.417H82.2761V457.427Z" fill="#F5F5F5"/>
<path d="M96.8974 442.143H140.154V366.676H96.8974V442.143Z" fill="#F5F5F5"/>
<path d="M233.551 366.676H140.154V442.142H233.551V366.676Z" fill="#F0F0F0"/>
<path d="M233.998 399.602H188.043V427.987H233.998V399.602Z" fill="#F5F5F5"/>
<g style="mix-blend-mode:multiply" opacity="0.7">
<path d="M96.884 377.131H233.998V373.487H96.884V377.131Z" fill="#E6E6E6"/>
</g>
<path d="M94.5023 375.02H140.154V364.478H94.5023V375.02Z" fill="#F5F5F5"/>
<path d="M235.933 364.479H140.154V375.02H235.933V364.479Z" fill="#F0F0F0"/>
<path d="M62.2337 324.164L290.336 324.164V129.908L62.2337 129.908L62.2337 324.164Z" fill="#E6E6E6"/>
<path d="M57.4837 324.164L285.586 324.164V129.908L57.4837 129.908L57.4837 324.164Z" fill="#F5F5F5"/>
<path d="M46.4812 335.414L290.336 335.414V324.164L46.4812 324.164V335.414Z" fill="#E6E6E6"/>
<path d="M41.1385 335.414L274.479 335.414V324.164L41.1385 324.164V335.414Z" fill="#F5F5F5"/>
<path d="M277.07 314.07V140.029H66.0234V314.07H277.07Z" fill="#FAFAFA"/>
<path d="M144.431 314.07L203.533 140.029H143.26L84.1582 314.07H144.431Z" fill="white"/>
<path d="M187.99 314.07L247.092 140.029H213.889L154.801 314.07H187.99Z" fill="white"/>
<path d="M176.291 314.07V140.029H166.789V314.07H176.291Z" fill="#F5F5F5"/>
<path d="M69.6172 314.07L69.6172 140.029H66.0245L66.0245 314.07H69.6172Z" fill="#E6E6E6"/>
<path d="M179.885 314.056V140.016H176.292V314.056H179.885Z" fill="#E6E6E6"/>
<path d="M376.467 552.949H545.35V98.1677H376.467L376.467 552.949Z" fill="#F0F0F0"/>
<path d="M376.469 552.949H537.35V98.1677H376.469L376.469 552.949Z" fill="#F5F5F5"/>
<path d="M528.875 542.626V108.479L384.944 108.479V542.626H528.875Z" fill="#F0F0F0"/>
<path d="M415.961 304.064H404.643C401.162 304.064 398.34 307.165 398.34 310.991V311.714C398.34 315.539 401.162 318.64 404.643 318.64H415.961C419.442 318.64 422.265 315.539 422.265 311.714V310.991C422.265 307.165 419.442 304.064 415.961 304.064Z" fill="white"/>
<path d="M387.154 542.626V108.479H384.957V542.626H387.154Z" fill="#F0F0F0"/>
<path d="M328.999 618.251C469.92 618.251 584.158 610.923 584.158 601.882C584.158 592.842 469.92 585.514 328.999 585.514C188.079 585.514 73.8398 592.842 73.8398 601.882C73.8398 610.923 188.079 618.251 328.999 618.251Z" fill="#3CE999"/>
<path d="M221.483 222.062C221.864 223.71 221.483 225.084 220.746 225.142C220.009 225.2 218.982 223.927 218.601 222.25C218.219 220.572 218.535 219.242 219.338 219.17C220.14 219.098 221.088 220.428 221.483 222.062Z" fill="white"/>
<path d="M222.587 234.195C223.344 234 223.671 232.499 223.317 230.843C222.962 229.187 222.061 228.003 221.304 228.199C220.547 228.394 220.221 229.895 220.575 231.551C220.929 233.207 221.83 234.391 222.587 234.195Z" fill="white"/>
<path d="M247.04 513.807H117.4V597.718H247.04V513.807Z" fill="#407BFF"/>
<path opacity="0.7" d="M247.04 513.807H117.4V597.718H247.04V513.807Z" fill="white"/>
<path opacity="0.3" d="M150.735 513.807H117.4V597.718H150.735V513.807Z" fill="#407BFF"/>
<path opacity="0.7" d="M212.68 513.807H185.109V529.178H212.68V513.807Z" fill="white"/>
<path opacity="0.7" d="M139.418 513.807H128.719V529.178H139.418V513.807Z" fill="white"/>
<path opacity="0.3" d="M239.774 573.006H224.535V589.751H239.774V573.006Z" fill="#407BFF"/>
<path opacity="0.3" d="M220.048 573.006H204.809V589.751H220.048V573.006Z" fill="#407BFF"/>
<path d="M127.23 513.807H215.297V456.791H127.23V513.807Z" fill="#407BFF"/>
<path opacity="0.7" d="M127.23 513.807H215.297V456.791H127.23V513.807Z" fill="white"/>
<path opacity="0.3" d="M192.649 456.806H127.23V513.821H192.649V456.806Z" fill="#407BFF"/>
<path opacity="0.7" d="M150.576 467.246H169.303V456.806H150.576V467.246Z" fill="white"/>
<path opacity="0.7" d="M200.347 467.246H207.611V456.806H200.347V467.246Z" fill="white"/>
<path opacity="0.3" d="M132.153 508.398H142.51V497.018H132.153V508.398Z" fill="#407BFF"/>
<path opacity="0.3" d="M145.563 508.398H155.92V497.018H145.563V508.398Z" fill="#407BFF"/>
<path d="M279.992 591.428H368.256V534.296H279.992V591.428Z" fill="#407BFF"/>
<path opacity="0.7" d="M279.992 591.428H368.256V534.296H279.992V591.428Z" fill="white"/>
<path opacity="0.3" d="M345.569 534.297H280.006V591.428H345.569V534.297Z" fill="#407BFF"/>
<path opacity="0.7" d="M280.004 571.039H284.939V554.771H280.004V571.039Z" fill="white"/>
<path opacity="0.7" d="M339.318 571.054H351.807V554.786H339.318V571.054Z" fill="white"/>
<path opacity="0.3" d="M356.123 585.484H360.281V574.076H356.123V585.484Z" fill="#407BFF"/>
<path opacity="0.3" d="M361.506 585.484H365.664V574.076H361.506V585.484Z" fill="#407BFF"/>
<path d="M316.826 562.913L295.625 568.09L303.732 593.25L321.445 588.956L316.826 562.913Z" fill="#FFB573"/>
<path opacity="0.2" d="M316.827 562.928L295.613 568.104L300.153 582.188L319.42 577.503L316.827 562.928Z" fill="black"/>
<path d="M266.78 465.38C257.87 431.761 235.656 396.681 247.908 364.667L309.168 364.479C309.168 364.479 314.103 437.617 315.63 468.706C317.222 501.039 320.433 572.558 320.433 572.558L296.258 578.342C296.258 578.342 272.847 524.898 266.78 465.38Z" fill="#06062A"/>
<path opacity="0.2" d="M245.461 398.069C248.448 415.942 256.621 434.219 262.766 452.309C270.162 418.154 269.254 377.999 245.461 398.069Z" fill="black"/>
<path d="M336.146 586.7C336.146 586.7 330.501 589.491 323.592 585.08C323.175 584.879 322.722 584.782 322.267 584.797C321.811 584.812 321.365 584.939 320.96 585.167C317.406 586.787 307.918 590.749 301.786 589.91C301.651 589.887 301.513 589.9 301.384 589.95C301.256 589.999 301.14 590.082 301.048 590.192C300.955 590.302 300.889 590.436 300.855 590.581C300.82 590.726 300.819 590.878 300.851 591.023C301.725 594.581 302.319 598.214 302.628 601.883L308.247 600.567L308.971 598.384L311.932 599.728C321.215 598.161 330.326 595.544 339.12 591.92C339.936 587.972 336.146 586.7 336.146 586.7Z" fill="#407BFF"/>
<path d="M227.049 567.353L206.835 567.569L205.953 593.756L222.837 593.612L227.049 567.353Z" fill="#FFB573"/>
<path opacity="0.2" d="M227.05 567.367L206.823 567.57L206.336 582.247L224.694 582.073L227.05 567.367Z" fill="black"/>
<path d="M205.073 465.38C203.441 431.761 201.217 381.512 211.468 366.026L274.413 364.479C274.413 364.479 256.91 438.138 250.382 469.082C243.592 501.328 226.944 577.532 226.944 577.532H205.099C205.099 577.532 196.848 503.743 205.073 465.38Z" fill="#06062A"/>
<path d="M300.284 254.583L301.245 257.099L302.377 259.991C303.166 261.885 303.956 263.808 304.811 265.659C306.463 269.318 308.294 272.876 310.299 276.316C311.273 277.964 312.286 279.569 313.339 281.03C314.324 282.478 315.383 283.863 316.51 285.18C318.442 287.442 320.658 289.389 323.09 290.964L318.498 289.851C320.771 290.236 323.067 290.439 325.367 290.458C327.869 290.496 330.371 290.351 332.855 290.024C335.487 289.72 338.119 289.229 340.751 288.578C342.067 288.274 343.383 287.956 344.778 287.58L346.792 287.045L347.779 286.771C348.052 286.673 348.334 286.61 348.621 286.583L353.398 287.522C354.593 287.746 355.709 288.329 356.622 289.205C357.535 290.082 358.21 291.219 358.573 292.491C358.935 293.762 358.97 295.119 358.675 296.411C358.379 297.703 357.765 298.881 356.898 299.813L355.806 300.999L354.832 302.026C354.174 302.691 353.516 303.342 352.832 303.964C351.516 305.193 350.082 306.378 348.621 307.477C345.682 309.688 342.578 311.623 339.343 313.261C335.982 314.94 332.489 316.281 328.907 317.267C325.15 318.298 321.303 318.88 317.432 319.002C316.302 319.044 315.175 318.843 314.115 318.409L312.799 317.888C309.905 316.685 307.117 315.195 304.469 313.435C301.986 311.746 299.628 309.846 297.415 307.752C295.32 305.767 293.33 303.652 291.454 301.419C289.625 299.221 287.993 296.95 286.413 294.651C284.834 292.352 283.413 290.01 282.084 287.624C280.755 285.238 279.452 282.852 278.333 280.394C277.215 277.936 276.096 275.477 275.122 272.947C274.635 271.674 274.148 270.402 273.701 269.1L273.03 267.09L272.701 266.064L272.332 264.806C271.154 260.84 271.416 256.528 273.062 252.769C274.708 249.01 277.613 246.094 281.168 244.632C284.724 243.169 288.656 243.272 292.144 244.918C295.633 246.565 298.407 249.628 299.889 253.469L300.284 254.583Z" fill="#FFB573"/>
<path d="M346.976 301.982L344.041 293.205C344.133 283.372 355.609 285.7 355.609 285.7L364.176 283.604C365.234 283.448 366.308 283.708 367.209 284.337C368.109 284.967 368.778 285.926 369.098 287.045L371.19 293.162C371.688 294.392 371.729 295.786 371.307 297.05C370.884 298.313 370.031 299.346 368.927 299.929L361.373 302.821C359.941 303.428 358.394 303.631 356.872 303.414L346.976 301.982Z" fill="#FFB573"/>
<path d="M282.65 228.974C295.271 234.758 306.338 259.904 306.338 259.904C305.759 265.977 293.047 282.939 281.834 287.291C281.834 287.291 273.096 283.3 267.595 270.185C260.568 253.209 269.267 222.843 282.65 228.974Z" fill="#7453EE"/>
<path d="M275.544 227.195C256.851 225.243 238.018 225.573 219.39 228.179C216.84 228.593 214.392 229.574 212.199 231.064C210.005 232.553 208.111 234.519 206.632 236.84C205.154 239.162 204.123 241.79 203.601 244.565C203.079 247.34 203.078 250.202 203.598 252.978C212.337 301.288 203.177 355.485 208.862 366.286C208.862 366.286 273.781 367.226 310.076 364.479C320.025 312.032 300.469 279.931 290.639 238.966C288.941 231.967 282.098 227.947 275.544 227.195Z" fill="#7453EE"/>
<path d="M224.944 267.091C223.022 270.836 220.89 274.798 218.85 278.659L212.784 290.227C211.797 292.135 210.823 294.044 209.902 295.924C208.98 297.804 208.046 299.669 207.27 301.476C206.493 303.284 205.704 305.077 205.085 306.595C204.782 307.347 204.519 308.041 204.348 308.533L204.23 308.866V308.996C204.151 309.184 204.23 308.808 204.111 308.62L204.045 307.174C204.136 310.401 204.506 313.611 205.151 316.761C205.835 320.376 206.677 324.179 207.664 327.982C208.651 331.785 209.665 335.703 210.731 339.636C211.797 343.57 212.928 347.575 213.889 351.465L213.981 351.812C214.419 353.6 214.294 355.499 213.624 357.198C212.955 358.898 211.782 360.299 210.295 361.172C208.809 362.046 207.098 362.341 205.439 362.009C203.781 361.677 202.274 360.738 201.163 359.345C198.521 355.969 196.043 352.44 193.741 348.775C192.609 346.953 191.465 345.131 190.385 343.237C189.306 341.343 188.267 339.448 187.24 337.453C185.168 333.442 183.296 329.31 181.634 325.075C179.731 320.296 178.365 315.28 177.568 310.138C177.548 309.849 177.548 309.559 177.568 309.27V308.649C177.55 307.364 177.607 306.079 177.739 304.802C177.739 304.282 177.857 303.689 177.923 303.212L178.147 301.852C178.449 300.045 178.805 298.541 179.16 297.081C179.884 294.189 180.739 291.673 181.581 289.2C182.424 286.727 183.318 284.399 184.213 282.1C185.108 279.801 186.108 277.574 187.069 275.362C188.99 270.922 191.017 266.686 193.215 262.449C195.413 258.212 197.544 254.192 200.071 250.028C202.314 246.934 205.509 244.849 209.055 244.164C212.6 243.479 216.251 244.242 219.32 246.309C222.389 248.377 224.664 251.605 225.716 255.388C226.769 259.17 226.527 263.245 225.036 266.845L224.944 267.091Z" fill="#FFB573"/>
<path d="M212.638 230.97C200.149 237.13 189.727 262.044 189.727 262.044C190.95 270.72 208.624 289.287 217.863 292.786C217.863 292.786 225.574 285.325 229.167 267.944C233.286 247.975 219.389 232.56 212.638 230.97Z" fill="#7453EE"/>
<path d="M266.701 230.766C265.475 228.154 263.481 226.075 261.042 224.867C260.125 222.269 260.055 219.402 260.845 216.755L233.209 207.066C235.446 217.188 237.157 225.055 233.788 229.942C239.223 233.586 249.198 240.064 260.108 239.804C271.018 239.544 268.465 234.974 266.701 230.766Z" fill="#FFB573"/>
<path opacity="0.2" d="M260.567 217.695L239.801 216.351C246.302 223.971 256.146 226.849 260.633 223.74C260.148 221.763 260.125 219.684 260.567 217.695Z" fill="black"/>
<path d="M260.686 239.775L256.199 235.697L250.158 239.023C250.158 239.023 253.988 242.927 260.686 239.775Z" fill="#407BFF"/>
<path opacity="0.3" d="M260.686 239.775L256.199 235.697L250.158 239.023C250.158 239.023 253.988 242.927 260.686 239.775Z" fill="black"/>
<path d="M266.463 181.661C266.819 187.792 263.226 193.041 258.436 193.373C253.646 193.706 249.487 189.035 249.132 182.861C248.776 176.687 252.369 171.481 257.159 171.148C261.95 170.816 266.108 175.53 266.463 181.661Z" fill="#263238"/>
<path d="M270.371 203.568C270.727 209.699 267.134 214.948 262.344 215.281C257.554 215.613 253.395 210.943 253.04 204.768C252.684 198.594 256.29 193.388 261.067 193.056C265.844 192.723 270.016 197.423 270.371 203.568Z" fill="#263238"/>
<path d="M228.602 190.655C230.945 203.987 232.826 212.996 241.091 217.926C257.528 227.745 265.779 219.56 267.411 205.852C268.845 193.504 264.779 173.78 251.277 169.789C237.972 165.856 226.247 177.323 228.602 190.655Z" fill="#FFB573"/>
<path d="M260.673 200.994C274.833 197.769 272.859 212.938 269.45 218.346C266.45 223.161 259.949 227.325 248.657 222.163C236.919 216.813 240.051 207.588 236.3 202.02C234.984 199.996 237.932 191.696 239.853 196.049C243.999 205.476 254.803 198.492 260.673 200.994Z" fill="#263238"/>
<path d="M233.919 202.252C240.499 206.59 241.473 199.259 239.855 196.121C242.487 192.752 244.737 181.299 237.433 180.215C240.947 181.242 252.106 180.128 250.277 172.768C254.515 176.961 267.267 179.463 266.464 172.016C265.306 161.128 250.159 151.772 239.855 161.128C227.431 153.768 212.942 169.008 220.325 175.993C210.85 178.19 212.942 193.663 218.377 195.629C214.179 203.669 230.879 214.181 233.919 202.252Z" fill="#263238"/>
<path opacity="0.2" d="M248.04 190.756C246.512 190.175 244.839 190.279 243.381 191.045C244.936 191.285 246.519 191.187 248.04 190.756Z" fill="black"/>
<path opacity="0.2" d="M248.027 191.985C247.3 191.886 246.563 191.965 245.867 192.214C245.171 192.464 244.533 192.88 244 193.431C245.421 193.27 246.794 192.777 248.027 191.985Z" fill="black"/>
<path opacity="0.2" d="M259.409 177.858C255.515 177.506 251.599 177.598 247.723 178.133C254.237 178.249 259.409 177.858 259.409 177.858Z" fill="black"/>
<path opacity="0.2" d="M261.107 179.188C261.107 179.188 252.172 179.478 247.947 181.227C252.369 180.852 256.764 180.171 261.107 179.188Z" fill="black"/>
<path d="M225.036 205.723C226.059 207.143 227.327 208.326 228.769 209.204C230.21 210.083 231.795 210.639 233.432 210.842C237.828 211.348 238.815 207.429 237.38 203.12C236.064 199.245 231.669 194.198 227.536 195.615C223.404 197.032 222.562 202.18 225.036 205.723Z" fill="#FFB573"/>
<path d="M251.868 190.944C251.973 192.115 252.631 192.997 253.342 192.91C254.053 192.823 254.513 191.797 254.408 190.625C254.303 189.454 253.632 188.558 252.921 188.644C252.21 188.731 251.75 189.758 251.868 190.944Z" fill="#263238"/>
<path d="M262.989 189.961C263.095 191.132 263.753 192.029 264.463 191.928C265.174 191.827 265.634 190.814 265.529 189.643C265.424 188.472 264.753 187.575 264.042 187.662C263.331 187.749 262.871 188.775 262.989 189.961Z" fill="#263238"/>
<path d="M259.41 191.176L260.726 201.037C261.794 201.106 262.865 200.984 263.898 200.676C264.103 200.603 264.286 200.469 264.427 200.29C264.569 200.111 264.663 199.892 264.699 199.659C264.736 199.425 264.714 199.185 264.635 198.964C264.556 198.743 264.424 198.55 264.253 198.406C261.555 196.222 259.41 191.176 259.41 191.176Z" fill="#ED893E"/>
<path d="M246.092 187.85C245.985 187.843 245.881 187.808 245.789 187.749C245.719 187.698 245.66 187.632 245.614 187.556C245.567 187.479 245.535 187.393 245.519 187.303C245.503 187.213 245.504 187.121 245.521 187.031C245.538 186.941 245.571 186.855 245.618 186.78C246.154 185.84 246.886 185.053 247.753 184.485C248.62 183.917 249.598 183.583 250.605 183.512C250.78 183.512 250.947 183.588 251.071 183.723C251.194 183.859 251.263 184.043 251.263 184.235C251.263 184.426 251.194 184.61 251.071 184.746C250.947 184.882 250.78 184.958 250.605 184.958C249.804 185.023 249.027 185.297 248.341 185.757C247.654 186.217 247.077 186.85 246.657 187.604C246.589 187.693 246.501 187.762 246.403 187.805C246.304 187.848 246.197 187.863 246.092 187.85Z" fill="#263238"/>
<path d="M267.055 186.534C266.953 186.542 266.85 186.523 266.756 186.477C266.662 186.432 266.58 186.362 266.516 186.274C266.034 185.58 265.41 185.02 264.694 184.641C263.978 184.261 263.191 184.073 262.397 184.09C262.315 184.1 262.231 184.092 262.152 184.066C262.073 184.04 261.999 183.996 261.935 183.938C261.871 183.88 261.819 183.809 261.78 183.728C261.742 183.648 261.719 183.559 261.713 183.468C261.701 183.286 261.753 183.105 261.858 182.963C261.963 182.82 262.113 182.727 262.278 182.702C263.288 182.653 264.293 182.872 265.21 183.34C266.126 183.808 266.926 184.512 267.542 185.392C267.645 185.538 267.692 185.723 267.672 185.907C267.652 186.091 267.568 186.259 267.437 186.375C267.327 186.468 267.194 186.523 267.055 186.534Z" fill="#263238"/>
<path d="M235.116 223.436C235.116 223.436 244.578 235.004 256.172 235.669C249.408 239.182 244.525 246.731 244.525 246.731C244.525 246.731 232.194 243.419 229.457 226.487C231.286 224.13 235.116 223.436 235.116 223.436Z" fill="#EBEBEB"/>
<path d="M260.686 239.776L265.778 234.772L272.253 236.884C272.253 236.884 267.358 242.928 260.686 239.776Z" fill="#407BFF"/>
<path opacity="0.3" d="M260.686 239.776L265.778 234.772L272.253 236.884C272.253 236.884 267.358 242.928 260.686 239.776Z" fill="black"/>
<path d="M261.041 224.868C261.041 224.868 265.555 230.652 265.779 234.773C271.148 237.057 276.109 244.548 276.109 244.548C276.109 244.548 274.793 232.691 266.292 225.952C264.68 225.021 262.851 224.643 261.041 224.868Z" fill="#EBEBEB"/>
<path d="M203.098 601.868H207.493L208.678 599.902L210.981 601.883H237.498C237.663 599.59 237.273 597.29 236.366 595.217C236.366 595.217 228.47 594.421 225.391 590.083C225.282 589.914 225.131 589.782 224.956 589.705C224.781 589.628 224.589 589.609 224.404 589.65C221.772 590.257 211.244 592.44 205.506 590.156C205.363 590.089 205.208 590.063 205.054 590.078C204.899 590.093 204.751 590.149 204.621 590.242C204.491 590.335 204.384 590.461 204.309 590.61C204.234 590.759 204.193 590.925 204.19 591.096C204.074 594.712 203.709 598.313 203.098 601.868Z" fill="#407BFF"/>
<path d="M344.896 289.561C347.989 282.331 354.556 282.143 359.609 280.278C360.465 279.96 361.991 282.013 361.018 283.459C360.489 284.403 359.795 285.22 358.974 285.863C358.154 286.507 357.224 286.963 356.24 287.204C356.175 289.706 353.727 296.459 347.278 296.3C345.763 294.448 344.916 292.052 344.896 289.561Z" fill="#FFB573"/>
<path d="M262.792 205.491C262.792 205.491 259.121 204.565 248.764 204.421C249.79 206.836 252.448 208.643 257.752 208.759C262.016 208.976 262.792 205.491 262.792 205.491Z" fill="white"/>
<path d="M211.099 348.355L203.282 352.043C196.847 358.868 206.269 366.43 206.269 366.43L209.467 372.084C210.09 373.038 211 373.719 212.036 374.005C213.072 374.291 214.167 374.164 215.126 373.646L220.6 371.115C221.757 370.668 222.71 369.742 223.255 368.535C223.801 367.328 223.897 365.935 223.522 364.652L221.508 359.302C220.921 357.74 219.989 356.364 218.798 355.296L211.099 348.355Z" fill="#FFB573"/>
<path d="M466.654 216.278C458.639 202.093 461.811 193.735 470.602 192.058L505.752 206.59C518.254 223.176 493.908 222.207 507.41 235.423C520.912 248.64 481.932 265.442 462.771 248.177C443.61 230.912 474.655 230.463 466.654 216.278Z" fill="#263238"/>
<path d="M520.399 590.286L531.44 587.596C529.901 576.029 529.335 562.581 528.045 555.438L515.293 557.39L520.399 590.286Z" fill="#FFC3BD"/>
<path d="M439.295 592.253L449.691 592.152C450.652 580.584 454.363 566.789 454.718 559.501L441.874 559.154L439.295 592.253Z" fill="#FFC3BD"/>
<path d="M512.885 601.868C521.676 599.829 521.017 599.829 525.913 598.485C530.111 597.342 531.243 597.675 534.625 596.807C537.454 596.07 536.77 593.12 535.23 589.881C534.559 588.435 533.651 586.83 532.69 584.69C532.563 584.39 532.345 584.148 532.075 584.003C531.804 583.859 531.497 583.82 531.203 583.894L519.623 586.598C519.393 586.651 519.181 586.77 519.007 586.943C518.834 587.116 518.706 587.336 518.636 587.582C517.894 589.705 516.725 591.617 515.217 593.174C513.708 594.732 511.899 595.895 509.924 596.576C505.344 598.383 509.384 602.693 512.885 601.868Z" fill="#263238"/>
<path d="M425.712 601.868C432.135 601.868 436.385 601.232 441.373 601.044C445.65 600.885 446.229 601.868 450.585 601.868C453.441 601.868 454.243 598.34 453.52 595.679C452.817 593.66 452.219 591.598 451.73 589.505C451.674 589.204 451.523 588.934 451.304 588.744C451.085 588.553 450.812 588.454 450.532 588.464H438.583C438.358 588.472 438.138 588.534 437.938 588.647C437.737 588.759 437.562 588.919 437.425 589.114C435.958 591.299 434.055 593.085 431.864 594.339C429.672 595.592 427.248 596.278 424.778 596.344C419.909 596.764 422.186 601.868 425.712 601.868Z" fill="#263238"/>
<path d="M447.677 337.322C447.677 337.322 442.939 407.15 444.821 451.556C442.807 493.187 439.912 577.214 439.912 577.214C440.123 579.339 450.322 578.501 452.098 577.214C452.098 577.214 474.076 519.084 468.509 451.556C492.657 381.122 489.96 337.322 489.96 337.322H447.677Z" fill="#7453EE"/>
<path opacity="0.2" d="M471.629 365.346C475.393 366.025 485.486 373.906 486.802 378.88C484.154 395.757 480.443 412.412 475.695 428.724C469.615 410.157 468.615 383.363 471.629 365.346Z" fill="black"/>
<path d="M460.363 337.322C460.363 337.322 477.84 416.144 486.223 454.839C495.014 495.486 513.043 548.973 516.741 575.71C519.044 576.549 526.308 574.943 530.085 572.601C530.085 572.601 533.27 495.775 512.016 456.646C516.82 360.357 496.224 337.322 496.224 337.322H460.363Z" fill="#7453EE"/>
<path d="M514.662 570.448C514.977 572.276 515.175 574.127 515.254 575.986C515.255 576.142 515.286 576.297 515.344 576.439C515.402 576.582 515.486 576.711 515.59 576.816C515.695 576.922 515.819 577.003 515.953 577.054C516.088 577.105 516.23 577.125 516.372 577.114C521.426 576.839 528.216 573.932 530.414 572.964C530.614 572.876 530.784 572.721 530.9 572.521C531.016 572.321 531.072 572.087 531.059 571.85L530.809 566.601C530.8 566.43 530.757 566.263 530.682 566.112C530.608 565.961 530.504 565.83 530.379 565.728C530.253 565.626 530.109 565.555 529.956 565.521C529.803 565.487 529.645 565.491 529.493 565.531L515.438 569.132C515.18 569.201 514.956 569.375 514.812 569.62C514.668 569.865 514.614 570.161 514.662 570.448Z" fill="#263238"/>
<path opacity="0.1" d="M514.662 570.448C514.977 572.276 515.175 574.127 515.254 575.986C515.255 576.142 515.286 576.297 515.344 576.439C515.402 576.582 515.486 576.711 515.59 576.816C515.695 576.922 515.819 577.003 515.953 577.054C516.088 577.105 516.23 577.125 516.372 577.114C521.426 576.839 528.216 573.932 530.414 572.964C530.614 572.876 530.784 572.721 530.9 572.521C531.016 572.321 531.072 572.087 531.059 571.85L530.809 566.601C530.8 566.43 530.757 566.263 530.682 566.112C530.608 565.961 530.504 565.83 530.379 565.728C530.253 565.626 530.109 565.555 529.956 565.521C529.803 565.487 529.645 565.491 529.493 565.531L515.438 569.132C515.18 569.201 514.956 569.375 514.812 569.62C514.668 569.865 514.614 570.161 514.662 570.448Z" fill="white"/>
<path d="M438.769 571.286C438.676 572.732 438.479 575.32 438.282 577.214C438.252 577.515 438.33 577.816 438.5 578.054C438.669 578.292 438.917 578.447 439.19 578.487C443.687 578.921 448.212 578.892 452.705 578.4C452.923 578.377 453.129 578.279 453.294 578.121C453.459 577.963 453.575 577.752 453.626 577.518L454.745 572.341C454.784 572.174 454.789 572 454.759 571.831C454.729 571.661 454.665 571.502 454.572 571.363C454.479 571.224 454.358 571.11 454.22 571.03C454.081 570.949 453.928 570.903 453.771 570.895L439.927 570.288C439.653 570.255 439.379 570.341 439.163 570.528C438.946 570.714 438.805 570.986 438.769 571.286Z" fill="#263238"/>
<path opacity="0.1" d="M438.769 571.286C438.676 572.732 438.479 575.32 438.282 577.214C438.252 577.515 438.33 577.816 438.5 578.054C438.669 578.292 438.917 578.447 439.19 578.487C443.687 578.921 448.212 578.892 452.705 578.4C452.923 578.377 453.129 578.279 453.294 578.121C453.459 577.963 453.575 577.752 453.626 577.518L454.745 572.341C454.784 572.174 454.789 572 454.759 571.831C454.729 571.661 454.665 571.502 454.572 571.363C454.479 571.224 454.358 571.11 454.22 571.03C454.081 570.949 453.928 570.903 453.771 570.895L439.927 570.288C439.653 570.255 439.379 570.341 439.163 570.528C438.946 570.714 438.805 570.986 438.769 571.286Z" fill="white"/>
<path d="M461.916 275.101L461.047 276.692L460.231 278.138C459.692 279.063 459.126 279.931 458.573 280.798C457.454 282.548 456.257 284.211 455.046 285.845C452.601 289.111 449.963 292.198 447.15 295.085C445.834 296.531 444.294 297.977 442.847 299.322C441.399 300.666 439.846 301.997 438.254 303.211C435.107 305.729 431.8 307.996 428.358 309.993L427.884 310.268C426.68 310.993 425.299 311.286 423.936 311.107C421.857 310.831 419.822 310.253 417.882 309.386C416.072 308.563 414.35 307.52 412.75 306.277C411.261 305.131 409.877 303.828 408.618 302.387C407.412 301.033 406.299 299.583 405.288 298.049C403.387 295.193 401.755 292.131 400.419 288.91C399.761 287.349 399.182 285.758 398.656 284.168C398.138 282.521 397.699 280.846 397.34 279.15C397.103 278.087 397.211 276.967 397.645 275.982C398.079 274.997 398.813 274.21 399.719 273.756C400.625 273.302 401.647 273.21 402.608 273.495C403.57 273.78 404.41 274.425 404.986 275.318L405.236 275.708C405.894 276.764 406.71 278.051 407.473 279.208C408.236 280.365 409.065 281.521 409.881 282.635C411.454 284.79 413.179 286.806 415.04 288.665C416.636 290.324 418.445 291.717 420.409 292.8C421.892 293.635 423.533 294.071 425.199 294.073L420.725 295.186C423.361 293.251 425.9 291.161 428.331 288.925C430.785 286.659 433.123 284.246 435.333 281.695C437.557 279.15 439.715 276.504 441.715 273.742C442.728 272.296 443.676 270.966 444.637 269.563L445.953 267.452L446.597 266.425L447.137 265.543L447.479 264.979C448.701 262.87 450.635 261.38 452.856 260.838C455.077 260.295 457.404 260.745 459.323 262.087C461.243 263.429 462.599 265.555 463.092 267.995C463.586 270.436 463.177 272.992 461.955 275.101H461.916Z" fill="#FFC3BD"/>
<path d="M459.812 256.188C450.705 255.913 441.875 265.24 436.295 275.781C437.611 282.519 451.389 293.653 451.389 293.653C451.389 293.653 471.801 272.021 459.812 256.188Z" fill="#06062A"/>
<path d="M444.928 274.566C444.66 282.698 444.77 290.84 445.257 298.96C445.625 309.545 446.283 319.956 447.678 337.322H496.199C495.212 322.313 496.805 305.192 505.517 271.414C506.031 269.647 506.179 267.776 505.951 265.938C505.722 264.1 505.122 262.342 504.194 260.792C503.267 259.242 502.036 257.94 500.591 256.98C499.146 256.021 497.524 255.429 495.844 255.247C493.923 255.031 491.896 254.857 489.79 254.741C482.456 254.17 475.095 254.17 467.76 254.741C465.365 254.987 462.891 255.32 460.509 255.681C456.324 256.359 452.482 258.613 449.64 262.057C446.798 265.501 445.133 269.922 444.928 274.566Z" fill="#06062A"/>
<path d="M488.237 227.484C486.315 235.278 483.96 249.55 488.566 254.741C488.566 254.741 481.854 253.643 467.602 263.331C463.47 256.824 466.536 254.741 466.536 254.741C474.577 252.674 474.813 246.225 473.853 240.18L488.237 227.484Z" fill="#FFC3BD"/>
<path d="M470.615 261.379C475.3 262.102 476.774 269.896 476.774 269.896C476.774 269.896 488.052 261.133 491.619 254.958C490.201 254.072 488.827 253.107 487.5 252.066C487.5 252.066 473.353 258.4 470.615 261.379Z" fill="white"/>
<path d="M466.14 260.54C466.14 260.54 462.087 261.74 460.626 268.016C459.547 256.65 464.377 254.727 464.377 254.727C465.665 253.936 467.174 253.694 468.614 254.047C467.581 254.647 466.769 255.622 466.318 256.806C465.866 257.991 465.804 259.31 466.14 260.54Z" fill="white"/>
<path opacity="0.2" d="M482.38 232.662L473.865 240.167C474.115 241.597 474.247 243.049 474.26 244.505C477.313 244.013 481.709 240.369 482.261 236.899C482.534 235.506 482.574 234.071 482.38 232.662Z" fill="black"/>
<path d="M494.304 211.868C492.146 224.434 491.475 229.799 484.947 235.829C475.13 244.895 461.628 240.094 460.338 227.283C459.18 215.715 462.891 197.119 474.683 192.955C477.189 191.972 479.89 191.743 482.504 192.291C485.118 192.84 487.552 194.146 489.553 196.075C491.554 198.003 493.049 200.484 493.884 203.261C494.72 206.038 494.865 209.009 494.304 211.868Z" fill="#FFC3BD"/>
<path d="M494.593 218.462C487.71 221.455 483.21 209.41 485.25 201.11C473.3 207.226 453.666 198.348 456.653 189.628C461.075 193.287 463.72 192.087 463.72 192.087C463.72 192.087 500.726 166.059 497.857 189.064C518.505 198.102 506.898 214.109 494.593 218.462Z" fill="#263238"/>
<path d="M468.298 181.777C466.351 183.223 467.667 188.848 477.787 183.773L481.564 182.732C473.26 190.67 465.693 195.905 461.692 192.637C457.691 189.369 460.968 180.317 468.298 181.777Z" fill="#263238"/>
<path d="M476.168 214.008C476.023 215.078 475.418 215.902 474.852 215.844C474.286 215.786 473.839 214.89 473.97 213.834C474.102 212.779 474.734 211.94 475.352 211.998C475.971 212.056 476.313 212.894 476.168 214.008Z" fill="#263238"/>
<path d="M464.548 213.198C464.403 214.268 463.785 215.078 463.166 215.035C462.547 214.991 462.166 214.08 462.297 213.01C462.429 211.94 463.048 211.131 463.679 211.188C464.311 211.246 464.614 212.128 464.548 213.198Z" fill="#263238"/>
<path d="M463.878 211.26L461.693 210.335C461.693 210.335 462.601 212.432 463.878 211.26Z" fill="#263238"/>
<path d="M467.509 214.688C466.345 217.063 464.907 219.264 463.232 221.238C463.676 221.667 464.203 221.979 464.774 222.149C465.344 222.32 465.942 222.344 466.522 222.221L467.509 214.688Z" fill="#ED847E"/>
<path d="M471.471 227.022C470.932 227.073 470.39 227.073 469.852 227.022C469.815 227.021 469.779 227.011 469.747 226.993C469.714 226.975 469.685 226.949 469.663 226.917C469.64 226.885 469.624 226.848 469.616 226.809C469.608 226.77 469.607 226.729 469.615 226.69C469.625 226.607 469.663 226.531 469.721 226.477C469.78 226.423 469.855 226.396 469.931 226.4C471.149 226.502 472.372 226.302 473.51 225.817C474.649 225.332 475.674 224.572 476.511 223.595C476.564 223.54 476.635 223.51 476.708 223.51C476.782 223.51 476.852 223.54 476.906 223.595C476.956 223.654 476.983 223.732 476.983 223.812C476.983 223.893 476.956 223.97 476.906 224.029C475.493 225.731 473.557 226.797 471.471 227.022Z" fill="#263238"/>
<path d="M496.632 221.238C496.141 222.338 495.445 223.311 494.587 224.093C493.73 224.876 492.731 225.45 491.657 225.778C489.025 226.487 487.907 223.103 488.868 219.777C489.736 216.784 492.171 212.808 494.75 213.603C497.329 214.398 498.04 218.346 496.632 221.238Z" fill="#FFC3BD"/>
<path d="M479.537 206.576C479.453 206.582 479.37 206.57 479.291 206.54C479.212 206.51 479.139 206.464 479.076 206.403C478.505 205.814 477.825 205.37 477.081 205.1C476.338 204.83 475.55 204.742 474.773 204.841C474.695 204.863 474.614 204.867 474.535 204.854C474.455 204.841 474.379 204.81 474.311 204.765C474.242 204.719 474.183 204.659 474.135 204.587C474.088 204.516 474.054 204.435 474.036 204.349C474.028 204.168 474.084 203.991 474.192 203.854C474.299 203.717 474.451 203.63 474.615 203.612C475.599 203.47 476.599 203.568 477.545 203.898C478.491 204.227 479.36 204.782 480.089 205.521C480.143 205.582 480.183 205.655 480.207 205.736C480.232 205.816 480.24 205.901 480.231 205.985C480.222 206.07 480.197 206.15 480.156 206.223C480.116 206.295 480.062 206.356 479.997 206.403C479.867 206.517 479.704 206.579 479.537 206.576Z" fill="#263238"/>
<path d="M491.869 365.361C502.489 358.782 512.622 348.269 522.479 335.515C511.214 318.062 499.804 302.576 487.987 292.786C477.669 304.658 467.444 314.91 457.363 322.617C468.76 333.115 480.341 348.674 491.869 365.361Z" fill="white"/>
<path d="M461.666 206.576C461.598 206.591 461.527 206.59 461.459 206.572C461.391 206.555 461.327 206.521 461.271 206.474C461.156 206.367 461.084 206.216 461.069 206.051C461.054 205.886 461.099 205.722 461.192 205.592C461.731 204.774 462.434 204.101 463.246 203.628C464.058 203.154 464.958 202.891 465.877 202.859C465.951 202.863 466.024 202.883 466.091 202.919C466.157 202.955 466.216 203.006 466.263 203.069C466.31 203.132 466.345 203.205 466.364 203.283C466.384 203.362 466.389 203.444 466.378 203.525C466.358 203.689 466.285 203.841 466.171 203.95C466.057 204.059 465.91 204.119 465.759 204.117C465.03 204.151 464.317 204.368 463.676 204.752C463.035 205.135 462.483 205.675 462.061 206.33C462.016 206.401 461.957 206.459 461.889 206.502C461.821 206.544 461.745 206.57 461.666 206.576Z" fill="#263238"/>
<path d="M497.874 365.525L525.52 338.299C526.45 337.382 526.529 335.809 525.694 334.787L492.695 294.332C491.86 293.309 490.429 293.223 489.498 294.14L461.853 321.366C460.922 322.283 460.844 323.855 461.678 324.878L494.678 365.333C495.513 366.356 496.944 366.442 497.874 365.525Z" fill="#407BFF"/>
<path opacity="0.4" d="M497.874 365.525L525.52 338.299C526.45 337.382 526.529 335.809 525.694 334.787L492.695 294.332C491.86 293.309 490.429 293.223 489.498 294.14L461.853 321.366C460.922 322.283 460.844 323.855 461.678 324.878L494.678 365.333C495.513 366.356 496.944 366.442 497.874 365.525Z" fill="white"/>
<path d="M475.564 212.013L473.379 211.102C473.379 211.102 474.287 213.184 475.564 212.013Z" fill="#263238"/>
<path d="M477.248 346.809L478.274 342.991C478.462 342.29 478.798 341.648 479.256 341.117C479.713 340.587 480.279 340.183 480.906 339.94L486.921 337.67C488.107 337.225 489.372 337.096 490.613 337.295C491.853 337.493 493.032 338.014 494.053 338.812L495.369 339.825C494.053 346.274 488.302 352.188 488.302 352.188L486.842 354.068C486.55 354.463 486.189 354.791 485.781 355.033C485.374 355.275 484.926 355.426 484.465 355.477C484.004 355.528 483.538 355.478 483.094 355.331C482.651 355.183 482.238 354.941 481.88 354.617L478.446 351.465C477.857 350.899 477.431 350.158 477.219 349.332C477.006 348.505 477.016 347.629 477.248 346.809Z" fill="#FFC3BD"/>
<path d="M395.248 265.485L398.815 266.093C399.479 266.206 400.108 266.492 400.651 266.928C401.193 267.363 401.633 267.934 401.934 268.594L404.776 274.855C405.339 276.085 405.624 277.446 405.608 278.823C405.592 280.199 405.275 281.551 404.684 282.765L403.947 284.298C397.959 283.719 391.866 278.239 391.866 278.239L389.971 276.894C389.576 276.628 389.233 276.278 388.96 275.866C388.688 275.453 388.493 274.986 388.385 274.49C388.278 273.995 388.26 273.481 388.334 272.978C388.407 272.475 388.57 271.992 388.813 271.559L391.195 267.409C391.631 266.693 392.245 266.131 392.964 265.79C393.683 265.449 394.476 265.343 395.248 265.485Z" fill="#FFC3BD"/>
<path d="M385.365 288.375C385.314 288.374 385.264 288.361 385.218 288.336C385.173 288.311 385.133 288.275 385.102 288.231C384.532 287.269 384.303 286.112 384.457 284.977C384.576 284.408 384.798 283.872 385.11 283.4C385.422 282.928 385.817 282.53 386.273 282.23C386.306 282.206 386.344 282.189 386.384 282.181C386.423 282.173 386.463 282.174 386.503 282.183C386.542 282.193 386.579 282.211 386.612 282.236C386.645 282.261 386.673 282.294 386.694 282.331C386.716 282.367 386.732 282.408 386.74 282.45C386.749 282.493 386.749 282.537 386.742 282.58C386.734 282.623 386.719 282.664 386.698 282.701C386.676 282.737 386.648 282.769 386.615 282.794C386.229 283.042 385.892 283.374 385.625 283.769C385.358 284.164 385.167 284.614 385.062 285.093C384.94 286.052 385.136 287.027 385.615 287.84C385.645 287.891 385.662 287.95 385.665 288.011C385.668 288.072 385.656 288.133 385.63 288.187C385.605 288.241 385.567 288.287 385.521 288.32C385.474 288.353 385.42 288.372 385.365 288.375Z" fill="#E0E0E0"/>
<path d="M385.365 288.376C385.311 288.377 385.257 288.361 385.211 288.33C385.164 288.3 385.126 288.255 385.102 288.202C385.079 288.165 385.063 288.123 385.055 288.079C385.048 288.034 385.049 287.989 385.059 287.945C385.069 287.901 385.088 287.86 385.113 287.825C385.139 287.789 385.171 287.76 385.207 287.74C385.938 287.211 386.478 286.418 386.734 285.498C386.817 285.014 386.811 284.516 386.716 284.034C386.621 283.552 386.439 283.096 386.181 282.693C386.16 282.655 386.145 282.613 386.139 282.569C386.133 282.525 386.135 282.48 386.145 282.437C386.154 282.394 386.172 282.354 386.196 282.318C386.221 282.282 386.251 282.253 386.286 282.23C386.355 282.185 386.437 282.171 386.515 282.19C386.593 282.208 386.662 282.259 386.707 282.331C387.009 282.812 387.219 283.354 387.325 283.925C387.431 284.497 387.432 285.086 387.326 285.657C387.046 286.759 386.403 287.707 385.523 288.318C385.478 288.356 385.422 288.377 385.365 288.376Z" fill="#E0E0E0"/>
<path d="M510.188 268.956C510.622 269.997 510.912 270.735 511.241 271.602C511.57 272.47 511.846 273.265 512.136 274.089C512.715 275.752 513.215 277.43 513.702 279.093C514.659 282.458 515.458 285.875 516.097 289.33C516.756 292.819 517.221 296.349 517.492 299.9C517.78 303.506 517.85 307.129 517.702 310.745V311.367C517.685 311.762 517.632 312.155 517.544 312.538C517.025 314.694 516.25 316.764 515.241 318.698C514.408 320.291 513.494 321.831 512.504 323.311C510.681 326.016 508.699 328.586 506.569 331.004C504.49 333.346 502.358 335.559 500.16 337.67C497.962 339.781 495.725 341.762 493.277 343.671C492.45 344.303 491.448 344.597 490.444 344.503C489.44 344.408 488.498 343.931 487.781 343.153C487.063 342.375 486.616 341.346 486.517 340.245C486.418 339.143 486.672 338.038 487.237 337.121V337.019L491.909 329.587C493.448 327.1 494.975 324.642 496.396 322.169C497.817 319.696 499.173 317.224 500.344 314.867C500.881 313.76 501.36 312.62 501.779 311.454C502.082 310.654 502.286 309.812 502.384 308.952L502.213 310.745C501.989 307.853 501.713 305.034 501.239 302.142C500.765 299.25 500.213 296.358 499.528 293.466C498.844 290.574 498.081 287.682 497.225 284.877C496.804 283.431 496.344 281.985 495.909 280.654L495.212 278.586L494.567 276.721L494.396 276.229C493.661 273.96 493.744 271.468 494.628 269.264C495.512 267.06 497.131 265.312 499.151 264.378C501.171 263.444 503.441 263.394 505.493 264.24C507.545 265.086 509.225 266.763 510.188 268.927V268.956Z" fill="#FFC3BD"/>
<path d="M496.29 255.32C504.186 256.651 507.358 259.297 513.806 276.736C510.884 283.243 497.172 289.46 497.172 289.46C497.172 289.46 486.222 270.662 496.29 255.32Z" fill="#06062A"/>
<rect width="14.3255" height="23.9512" rx="1" transform="matrix(-0.301618 -0.953429 0.93418 -0.356801 375.432 292.606)" fill="#9EF57F"/>
<path d="M378.027 282.448L378.704 281.972C378.796 282.202 378.945 282.362 379.15 282.453C379.354 282.545 379.577 282.544 379.816 282.453C380.043 282.366 380.21 282.223 380.318 282.022C380.428 281.815 380.446 281.594 380.372 281.358C380.291 281.105 380.151 280.939 379.95 280.861C379.748 280.778 379.532 280.781 379.301 280.869C379.004 280.983 378.801 281.173 378.69 281.44L377.864 281.448L377.697 279.066L380.018 278.179L380.24 278.88L378.448 279.564L378.533 280.759C378.657 280.487 378.896 280.284 379.249 280.149C379.68 279.984 380.07 279.98 380.418 280.136C380.769 280.291 381.016 280.591 381.157 281.036C381.289 281.454 381.255 281.864 381.054 282.264C380.854 282.665 380.513 282.957 380.034 283.14C379.589 283.31 379.179 283.325 378.802 283.184C378.424 283.04 378.165 282.794 378.027 282.448ZM381.655 278.302C381.596 278.425 381.589 278.557 381.634 278.699C381.679 278.842 381.76 278.943 381.876 279.003C381.997 279.062 382.123 279.066 382.254 279.016C382.385 278.966 382.479 278.878 382.537 278.751C382.594 278.624 382.601 278.49 382.556 278.347C382.511 278.205 382.43 278.106 382.315 278.05C382.198 277.99 382.075 277.985 381.944 278.035C381.813 278.085 381.717 278.174 381.655 278.302ZM381.58 279.573C381.305 279.443 381.12 279.23 381.026 278.932C380.931 278.633 380.956 278.34 381.099 278.051C381.246 277.76 381.466 277.559 381.758 277.447C382.05 277.336 382.334 277.345 382.609 277.474C382.889 277.601 383.076 277.814 383.17 278.112C383.265 278.41 383.238 278.705 383.091 278.996C382.946 279.28 382.726 279.479 382.429 279.592C382.137 279.704 381.854 279.697 381.58 279.573ZM385.116 279.561C385.057 279.683 385.05 279.815 385.095 279.958C385.141 280.1 385.221 280.201 385.338 280.262C385.459 280.32 385.585 280.324 385.716 280.274C385.847 280.224 385.941 280.136 385.999 280.009C386.056 279.883 386.063 279.748 386.018 279.606C385.972 279.463 385.892 279.364 385.777 279.309C385.66 279.248 385.536 279.243 385.406 279.293C385.275 279.343 385.178 279.432 385.116 279.561ZM385.042 280.831C384.766 280.702 384.582 280.488 384.487 280.19C384.393 279.892 384.417 279.598 384.561 279.309C384.708 279.019 384.928 278.818 385.22 278.706C385.512 278.594 385.796 278.603 386.071 278.732C386.351 278.86 386.538 279.073 386.632 279.371C386.727 279.669 386.7 279.963 386.552 280.254C386.408 280.539 386.187 280.738 385.891 280.851C385.599 280.962 385.316 280.956 385.042 280.831ZM383.348 281.755L382.661 282.017L384.314 276.538L384.994 276.279L383.348 281.755Z" fill="white"/>
</svg>
