<svg width="27" height="23" viewBox="0 0 27 23" fill="none" xmlns="http://www.w3.org/2000/svg">
<path d="M24 0C25.6547 0 27 1.71602 27 3.83333V19.1667C27 21.281 25.6547 23 24 23H3C1.34297 23 0 21.281 0 19.1667V3.83333C0 1.71602 1.34297 0 3 0H24ZM12.75 7.66667C12.3375 7.66667 12 8.09792 12 8.625C12 9.15208 12.3375 9.58333 12.75 9.58333H23.25C23.6625 9.58333 24 9.15208 24 8.625C24 8.09792 23.6625 7.66667 23.25 7.66667H12.75ZM12.75 15.3333H23.25C23.6625 15.3333 24 14.9021 24 14.375C24 13.8479 23.6625 13.4167 23.25 13.4167H12.75C12.3375 13.4167 12 13.8479 12 14.375C12 14.9021 12.3375 15.3333 12.75 15.3333ZM7.69219 5.75C7.69219 5.08516 7.27031 4.54609 6.70781 4.54609C6.22969 4.54609 5.80781 5.08516 5.80781 5.75V6.10938C5.54531 6.18125 5.25469 6.28307 5.0625 6.41484C4.36219 6.82214 3.75328 7.57682 3.60516 8.67292C3.52219 9.28385 3.56625 9.87682 3.765 10.4099C3.95953 10.937 4.26562 11.3083 4.57641 11.5779C5.11875 12.051 5.83594 12.3266 6.38437 12.5362L6.4875 12.5721C7.14375 12.8297 7.58437 13.0154 7.86094 13.2729C7.97812 13.3807 8.02031 13.4646 8.03437 13.5185C8.05312 13.5664 8.08125 13.6742 8.04844 13.9138C8.02031 14.1234 7.93125 14.3031 7.67344 14.4409C7.3875 14.5966 6.92344 14.6745 6.32344 14.5547C6.04219 14.4948 5.54062 14.2792 5.09531 14.0875C4.99219 14.0396 4.88906 13.9977 4.79531 13.9557C4.305 13.7461 3.77391 14.0875 3.61031 14.7164C3.44672 15.3453 3.7125 16.0221 4.20375 16.1779C4.26047 16.2557 4.33078 16.2857 4.41141 16.3216C4.73906 16.4833 5.3625 16.7349 5.80781 16.8667V17.25C5.80781 17.9148 6.22969 18.4539 6.70781 18.4539C7.27031 18.4539 7.69219 17.9148 7.69219 17.25V16.9206C7.94063 16.8607 8.18437 16.7169 8.40937 16.6451C9.15 16.2437 9.74063 15.4651 9.89531 14.3271C9.97969 13.7042 9.94219 13.1052 9.75469 12.5602C9.57188 12.0211 9.27656 11.6258 8.9625 11.3383C8.39531 10.8052 7.63594 10.5177 7.06875 10.2961L6.98906 10.2841C6.36563 10.0266 5.91563 9.84687 5.62969 9.59531C5.50781 9.4875 5.47031 9.41562 5.46094 9.38568C5.45156 9.36172 5.42344 9.28984 5.45156 9.0862C5.47031 8.96641 5.54063 8.76875 5.83594 8.60104C6.09844 8.42734 6.60469 8.33151 7.17656 8.39141C7.38281 8.48724 8.01562 8.64297 8.19844 8.70286C8.69531 8.87656 9.21094 8.49323 9.34219 7.85234C9.47813 7.21745 9.17813 6.55859 8.67656 6.39088C8.47031 6.31901 8.00156 6.19922 7.69219 6.12734V5.75Z" fill="#090909" fill-opacity="0.75"/>
</svg>
