<svg width="32" height="32" viewBox="0 0 32 32" fill="none" xmlns="http://www.w3.org/2000/svg">
<path d="M15.9998 5L15.6868 5.28L4.27975 16.813L3.59375 17.501L4.28075 18.221L13.7808 27.721L14.5008 28.408L15.1908 27.721L26.7208 16.314L26.9998 16V5H15.9998ZM16.8438 7H24.9998V15.156L14.4998 25.594L6.40575 17.5L16.8438 7ZM21.9998 9C21.7345 9 21.4802 9.10536 21.2926 9.29289C21.1051 9.48043 20.9998 9.73478 20.9998 10C20.9998 10.2652 21.1051 10.5196 21.2926 10.7071C21.4802 10.8946 21.7345 11 21.9998 11C22.265 11 22.5193 10.8946 22.7069 10.7071C22.8944 10.5196 22.9998 10.2652 22.9998 10C22.9998 9.73478 22.8944 9.48043 22.7069 9.29289C22.5193 9.10536 22.265 9 21.9998 9Z" fill="black"/>
</svg>
