<svg width="13" height="17" viewBox="0 0 13 17" fill="none" xmlns="http://www.w3.org/2000/svg">
<path d="M3.98694 1.06598C4.42452 0.934045 4.89409 0.955963 5.31748 1.12808C5.74087 1.30021 6.09254 1.61215 6.31394 2.01198L6.38794 2.16098L7.04994 3.63198C7.25085 4.07846 7.31606 4.57416 7.23748 5.05741C7.15889 5.54067 6.93997 5.99016 6.60794 6.34998L6.47494 6.48198L5.43194 7.45498C5.24394 7.63298 5.38494 8.32198 6.06494 9.49998C6.67694 10.56 7.17494 11.055 7.41994 11.082H7.46294L7.51594 11.072L9.56594 10.445C9.84145 10.3605 10.1355 10.3571 10.4128 10.4353C10.6902 10.5136 10.9392 10.67 11.1299 10.886L11.2209 11.001L12.5779 12.881C12.8439 13.2495 12.9764 13.6975 12.9537 14.1514C12.931 14.6053 12.7544 15.0379 12.4529 15.378L12.3309 15.504L11.7889 16.018C11.3022 16.4789 10.6934 16.7904 10.0348 16.9153C9.37627 17.0403 8.69567 16.9736 8.07394 16.723C6.13894 15.943 4.38094 14.161 2.78394 11.395C1.18394 8.62198 0.51894 6.20498 0.81594 4.13498C0.905814 3.50924 1.16348 2.91953 1.56157 2.42847C1.95967 1.93741 2.48333 1.56334 3.07694 1.34598L3.26994 1.28198L3.98694 1.06598Z" fill="white"/>
</svg>
