<svg width="400" height="250" viewBox="0 0 400 250" fill="none" xmlns="http://www.w3.org/2000/svg">
<path d="M245.557 19.5C245.557 19.5 201.483 4.81 158.219 28.2C114.955 51.59 93.152 98.03 74.3787 135.225C55.6053 172.42 66.4213 210.255 99.4453 227.51C132.469 244.765 154.912 219.33 201.264 218.09C247.616 216.85 260.053 223.06 298.501 198.525C336.949 173.99 343.893 116.025 313.568 73.16C283.243 30.295 245.557 19.5 245.557 19.5Z" fill="#7453EE"/>
<path opacity="0.7" d="M245.557 19.5C245.557 19.5 201.483 4.81 158.219 28.2C114.955 51.59 93.152 98.03 74.3787 135.225C55.6053 172.42 66.4213 210.255 99.4453 227.51C132.469 244.765 154.912 219.33 201.264 218.09C247.616 216.85 260.053 223.06 298.501 198.525C336.949 173.99 343.893 116.025 313.568 73.16C283.243 30.295 245.557 19.5 245.557 19.5Z" fill="white"/>
<path d="M121.675 112.845C123.429 112.455 126.608 110.11 126.613 110.11C126.619 110.11 124.325 108.61 124.171 108.535C122.347 107.645 118.261 106.93 116.624 108.445C116.359 108.704 116.155 109.012 116.025 109.349C115.896 109.687 115.844 110.046 115.872 110.404C115.901 110.761 116.01 111.109 116.192 111.425C116.374 111.741 116.625 112.017 116.928 112.235C118.181 113.21 120.181 113.175 121.675 112.845Z" fill="#7453EE"/>
<path d="M129.829 120.835C131.349 120.055 133.605 117.24 133.781 117.015C135.496 118.229 137.295 119.333 139.168 120.32C140.235 120.905 141.371 121.46 142.496 122C141.963 121.825 141.429 121.67 141.376 121.655C139.365 121.25 135.227 121.57 134.069 123.435C133.886 123.75 133.776 124.098 133.746 124.456C133.716 124.814 133.767 125.174 133.896 125.512C134.024 125.85 134.227 126.16 134.491 126.419C134.755 126.679 135.075 126.884 135.429 127.02C136.912 127.645 138.837 127.12 140.187 126.43C141.536 125.74 143.525 123.365 144.043 122.73L145.339 123.345C147.424 124.315 149.509 125.275 151.525 126.275C152.235 126.63 152.917 127 153.605 127.37C153.115 127.215 152.699 127.085 152.635 127.075C150.624 126.665 146.485 126.985 145.333 128.855C145.15 129.17 145.04 129.518 145.011 129.875C144.981 130.233 145.031 130.592 145.16 130.93C145.288 131.268 145.491 131.577 145.755 131.836C146.02 132.095 146.339 132.299 146.693 132.435C148.176 133.065 150.096 132.535 151.445 131.845C152.795 131.155 154.592 129.01 155.211 128.26C155.899 128.66 156.592 129.055 157.243 129.475C157.68 129.765 158.128 130.02 158.549 130.335L159.808 131.245C160.592 131.85 161.408 132.47 162.144 133.075C162.677 133.495 163.152 133.905 163.648 134.315C162.944 133.955 161.552 133.28 161.429 133.235C159.509 132.545 155.365 132.275 153.925 133.96C153.694 134.246 153.529 134.574 153.441 134.923C153.354 135.272 153.346 135.635 153.418 135.987C153.49 136.339 153.64 136.674 153.859 136.968C154.078 137.262 154.36 137.51 154.688 137.695C156.053 138.525 158.037 138.275 159.488 137.785C161.088 137.245 163.669 134.89 163.989 134.59C164.805 135.275 165.589 135.94 166.32 136.59C168.288 138.315 169.941 139.865 171.237 141.12L172.464 140.26C171.104 138.995 169.349 137.41 167.243 135.645C166.421 134.95 165.525 134.225 164.576 133.485C165.178 132.556 165.722 131.594 166.203 130.605C167.915 130.895 171.227 130.315 171.653 130.235C171.931 131.235 172.187 132.19 172.421 133.105C173.029 135.49 173.488 137.605 173.829 139.28L175.163 138.34C174.795 136.765 174.336 134.89 173.749 132.795C173.467 131.795 173.152 130.72 172.811 129.625C173.211 129.45 176.48 127.99 177.579 126.78C178.571 125.685 179.515 124.025 179.179 122.54C179.111 122.185 178.965 121.848 178.749 121.55C178.532 121.252 178.251 121 177.924 120.811C177.596 120.622 177.23 120.5 176.849 120.454C176.468 120.407 176.08 120.436 175.712 120.54C173.531 121.22 172.352 124.955 172.373 126.885C172.373 127 172.533 128.23 172.645 129.01C172.501 128.56 172.373 128.125 172.224 127.67C171.931 126.76 171.611 125.86 171.269 124.895C171.088 124.43 170.901 123.965 170.736 123.495C170.571 123.025 170.315 122.545 170.101 122.07C169.568 120.965 169.035 119.875 168.411 118.785C169.259 118.545 172.256 117.645 173.419 116.695C174.581 115.745 175.781 114.245 175.669 112.725C175.657 112.366 175.565 112.014 175.398 111.692C175.231 111.369 174.993 111.083 174.7 110.852C174.407 110.621 174.066 110.451 173.698 110.352C173.33 110.254 172.944 110.229 172.565 110.28C170.293 110.64 168.528 114.17 168.235 116.075C168.235 116.195 168.171 117.575 168.16 118.35C167.792 117.7 167.424 117.045 167.029 116.4C165.883 114.53 164.661 112.665 163.451 110.805L162.352 109.09C162.656 109.01 166.24 108.015 167.547 106.95C168.709 106.01 169.909 104.505 169.797 102.98C169.785 102.622 169.692 102.27 169.524 101.948C169.357 101.625 169.119 101.339 168.827 101.109C168.534 100.878 168.193 100.708 167.825 100.609C167.458 100.51 167.072 100.485 166.693 100.535C164.421 100.9 162.656 104.425 162.363 106.33C162.363 106.475 162.277 108.48 162.288 108.99C161.483 107.73 160.688 106.49 159.973 105.195C158.987 103.481 158.121 101.709 157.381 99.89C157.52 99.85 161.269 98.825 162.608 97.74C163.765 96.795 164.965 95.29 164.859 93.77C164.845 93.4115 164.752 93.0597 164.584 92.7373C164.416 92.4149 164.178 92.1292 163.885 91.8986C163.591 91.6681 163.25 91.4979 162.882 91.3991C162.514 91.3003 162.128 91.275 161.749 91.325C159.477 91.685 157.712 95.21 157.419 97.12C157.419 97.27 157.328 99.425 157.349 99.815C157.307 99.71 157.248 99.605 157.205 99.495C156.518 97.6511 156.005 95.7537 155.675 93.825C155.477 92.765 155.355 91.735 155.259 90.735C155.979 90.61 159.253 90.01 160.592 89.16C161.931 88.31 163.221 86.97 163.291 85.445C163.32 85.0875 163.269 84.7281 163.14 84.3904C163.012 84.0527 162.809 83.744 162.545 83.4847C162.281 83.2253 161.961 83.0209 161.607 82.8849C161.254 82.7488 160.873 82.6841 160.491 82.695C158.192 82.82 156.027 86.14 155.509 88.01C155.483 88.11 155.317 89.17 155.211 89.945C155.173 89.495 155.125 89.025 155.099 88.595C154.997 86.965 155.013 85.465 155.04 84.135C155.04 83.38 155.093 82.7 155.131 82.065C155.771 81.595 158.331 79.685 159.051 78.385C159.771 77.085 160.315 75.3 159.627 73.92C159.477 73.5897 159.255 73.2926 158.974 73.0482C158.694 72.8038 158.362 72.6175 158 72.5014C157.637 72.3854 157.253 72.3422 156.872 72.3747C156.49 72.4072 156.121 72.5146 155.787 72.69C153.808 73.795 153.52 77.69 153.979 79.56C154.016 79.72 154.949 82.195 154.981 82.17L155.024 82.14C154.971 82.755 154.923 83.41 154.891 84.14C154.832 85.47 154.784 86.975 154.848 88.61C154.897 90.3772 155.055 92.1401 155.323 93.89C155.613 95.8504 156.088 97.7829 156.741 99.665C156.748 99.6875 156.757 99.7092 156.768 99.73C156.373 99.23 155.216 97.82 155.109 97.73C153.675 96.35 150.032 94.48 147.973 95.44C147.636 95.6084 147.34 95.8415 147.104 96.1242C146.869 96.4069 146.7 96.7329 146.608 97.081C146.516 97.429 146.503 97.7913 146.57 98.1444C146.637 98.4974 146.783 98.8332 146.997 99.13C147.867 100.42 149.781 100.975 151.312 101.095C153.035 101.235 156.576 100.05 156.859 99.955C157.562 101.854 158.399 103.706 159.365 105.5C159.931 106.545 160.533 107.585 161.152 108.62C160.795 108.185 160.475 107.805 160.421 107.755C158.987 106.375 155.344 104.5 153.28 105.46C152.943 105.629 152.647 105.863 152.412 106.147C152.177 106.43 152.009 106.756 151.917 107.105C151.826 107.453 151.813 107.816 151.881 108.169C151.948 108.522 152.094 108.858 152.309 109.155C153.173 110.44 155.088 110.995 156.619 111.12C158.149 111.245 161.211 110.29 162.011 110.03C162.256 110.425 162.491 110.82 162.736 111.215C163.904 113.1 165.077 114.98 166.165 116.855C166.555 117.52 166.907 118.18 167.264 118.855C166.944 118.47 166.672 118.15 166.624 118.105C165.189 116.725 161.547 114.85 159.488 115.815C159.15 115.983 158.854 116.216 158.619 116.499C158.384 116.782 158.214 117.108 158.122 117.456C158.03 117.804 158.017 118.166 158.085 118.519C158.152 118.872 158.297 119.208 158.512 119.505C159.381 120.795 161.296 121.35 162.827 121.47C164.357 121.59 167.12 120.735 168.075 120.425C168.416 121.115 168.757 121.805 169.061 122.49C169.253 122.96 169.472 123.4 169.637 123.885L170.171 125.295C170.469 126.2 170.779 127.135 171.04 128.03C171.232 128.65 171.397 129.24 171.573 129.84C171.2 129.175 170.432 127.895 170.357 127.795C169.252 126.451 167.795 125.397 166.128 124.735C166.014 124.579 165.884 124.435 165.739 124.305C165.472 124.047 165.151 123.845 164.796 123.712C164.441 123.578 164.06 123.516 163.678 123.53C163.295 123.543 162.92 123.632 162.577 123.791C162.234 123.95 161.93 124.174 161.685 124.45C160.261 126.145 161.477 129.87 162.629 131.45C162.699 131.54 163.552 132.49 164.107 133.075C163.728 132.775 163.36 132.48 162.965 132.18C162.187 131.57 161.392 130.99 160.539 130.355L159.232 129.5C158.811 129.195 158.325 128.925 157.867 128.635C156.8 127.98 155.669 127.37 154.523 126.775C155.088 126.135 157.056 123.835 157.472 122.44C157.888 121.045 158.005 119.18 157.013 117.94C156.792 117.648 156.507 117.402 156.177 117.22C155.848 117.037 155.481 116.922 155.101 116.881C154.721 116.84 154.335 116.874 153.97 116.982C153.605 117.089 153.268 117.268 152.981 117.505C151.301 119.005 151.915 122.835 152.784 124.58C152.837 124.69 153.616 125.875 154.059 126.515C153.365 126.165 152.677 125.81 151.968 125.475C149.909 124.505 147.797 123.585 145.691 122.66L143.765 121.795C143.973 121.57 146.379 118.885 146.843 117.325C147.253 115.935 147.376 114.06 146.384 112.85C146.162 112.558 145.877 112.312 145.548 112.13C145.218 111.947 144.851 111.832 144.471 111.791C144.091 111.75 143.706 111.784 143.341 111.892C142.976 111.999 142.639 112.178 142.352 112.415C140.672 113.89 141.285 117.745 142.149 119.49C142.219 119.62 143.344 121.325 143.648 121.745C142.24 121.11 140.843 120.465 139.488 119.78C137.657 118.858 135.892 117.825 134.203 116.69C134.299 116.585 136.821 113.795 137.296 112.19C137.712 110.805 137.829 108.93 136.837 107.69C136.616 107.398 136.332 107.152 136.002 106.97C135.673 106.787 135.306 106.672 134.927 106.632C134.547 106.591 134.162 106.626 133.797 106.734C133.433 106.843 133.096 107.022 132.811 107.26C131.125 108.735 131.744 112.585 132.608 114.33C132.677 114.47 133.888 116.3 134.133 116.615C134.037 116.55 133.925 116.49 133.829 116.425C132.169 115.244 130.625 113.925 129.216 112.485C128.427 111.7 127.717 110.91 127.045 110.125C127.579 109.65 129.957 107.455 130.555 106.06C131.152 104.665 131.461 102.87 130.624 101.56C130.438 101.247 130.183 100.974 129.877 100.759C129.57 100.544 129.219 100.391 128.846 100.312C128.473 100.232 128.086 100.227 127.711 100.296C127.335 100.366 126.98 100.508 126.667 100.715C124.821 102.01 124.971 105.9 125.637 107.715C125.675 107.815 126.171 108.785 126.528 109.485C126.235 109.125 125.92 108.76 125.643 108.415C124.576 107.105 123.728 105.85 122.976 104.73C122.549 104.09 122.176 103.505 121.829 102.95C122.091 102.23 123.088 99.32 122.939 97.855C122.789 96.39 122.176 94.63 120.805 93.855C120.486 93.6571 120.126 93.5245 119.749 93.4657C119.371 93.4069 118.985 93.4234 118.614 93.5139C118.244 93.6045 117.898 93.7672 117.599 93.9913C117.301 94.2155 117.055 94.4961 116.88 94.815C115.877 96.76 117.92 100.15 119.413 101.48C119.541 101.595 121.771 103.175 121.787 103.135V103.095C122.107 103.63 122.453 104.205 122.853 104.82C123.589 105.96 124.453 107.24 125.451 108.57C126.531 110.019 127.699 111.407 128.949 112.73C130.345 114.214 131.878 115.579 133.531 116.81L133.589 116.85C132.96 116.63 131.173 116.06 131.029 116.035C129.019 115.625 124.88 115.945 123.723 117.815C123.541 118.13 123.431 118.478 123.402 118.835C123.372 119.192 123.423 119.552 123.552 119.889C123.68 120.227 123.883 120.535 124.146 120.795C124.41 121.054 124.729 121.259 125.083 121.395C126.555 122.055 128.48 121.525 129.829 120.835Z" fill="#7453EE"/>
<path d="M154.901 90.5C154.944 90.5 153.877 88.075 153.792 87.925C152.795 86.24 149.808 83.53 147.552 83.95C147.183 84.0315 146.837 84.1844 146.534 84.3989C146.232 84.6133 145.981 84.8846 145.798 85.1953C145.614 85.506 145.501 85.8492 145.467 86.2031C145.433 86.5569 145.478 86.9135 145.6 87.25C146.069 88.705 147.76 89.715 149.205 90.21C150.869 90.795 154.901 90.5 154.901 90.5Z" fill="#7453EE"/>
<path d="M273.461 35.63H235.653L234.053 38.365C233.204 39.7995 231.961 40.9948 230.453 41.8271C228.945 42.6594 227.227 43.0983 225.477 43.0983C223.727 43.0983 222.009 42.6594 220.501 41.8271C218.993 40.9948 217.75 39.7995 216.901 38.365L215.328 35.63H177.547C175.635 35.6073 173.792 36.2972 172.423 37.5479C171.054 38.7987 170.271 40.508 170.245 42.3V224.83C170.271 226.622 171.054 228.331 172.423 229.582C173.792 230.833 175.635 231.523 177.547 231.5H273.461C275.373 231.523 277.217 230.833 278.587 229.582C279.957 228.332 280.741 226.623 280.768 224.83V42.3C280.741 40.5075 279.957 38.7982 278.587 37.5476C277.217 36.297 275.373 35.6073 273.461 35.63Z" fill="white"/>
<path d="M273.163 38.255H265.541V42.175H273.163V38.255Z" stroke="#263238" stroke-width="0.910723" stroke-linecap="round" stroke-linejoin="round"/>
<path d="M271.488 38.255H265.541V42.175H271.488V38.255Z" fill="#263238" stroke="#263238" stroke-width="0.804247" stroke-linecap="round" stroke-linejoin="round"/>
<path d="M274.219 39.35H273.147V41.075H274.219V39.35Z" fill="#263238" stroke="#263238" stroke-width="0.804247" stroke-linecap="round" stroke-linejoin="round"/>
<path d="M177.936 39.47H176.539V41.715H177.936V39.47Z" fill="#263238" stroke="#263238" stroke-width="0.979514" stroke-linecap="round" stroke-linejoin="round"/>
<path d="M180.133 38.68H178.736V41.715H180.133V38.68Z" fill="#263238" stroke="#263238" stroke-width="0.979514" stroke-linecap="round" stroke-linejoin="round"/>
<path d="M182.331 37.75H180.933V41.715H182.331V37.75Z" fill="#263238" stroke="#263238" stroke-width="0.979514" stroke-linecap="round" stroke-linejoin="round"/>
<path d="M173.627 43.515H277.365" stroke="#263238" stroke-width="1.10919" stroke-linecap="round" stroke-linejoin="round"/>
<path d="M286.149 98.365C286.354 98.365 286.551 98.2886 286.696 98.1526C286.841 98.0167 286.923 97.8323 286.923 97.64V78.18C286.923 77.9877 286.841 77.8033 286.696 77.6674C286.551 77.5314 286.354 77.455 286.149 77.455H284.133V40.28C284.133 39.053 283.875 37.8381 283.374 36.7046C282.873 35.5711 282.139 34.5412 281.213 33.6739C280.288 32.8065 279.189 32.1186 277.979 31.6495C276.77 31.1804 275.474 30.9393 274.165 30.94H176.843C175.534 30.9393 174.238 31.1804 173.028 31.6495C171.819 32.1186 170.72 32.8065 169.795 33.6739C168.869 34.5412 168.135 35.5711 167.634 36.7046C167.132 37.8381 166.875 39.053 166.875 40.28V232.11C166.875 233.337 167.132 234.552 167.634 235.685C168.135 236.819 168.869 237.849 169.795 238.716C170.72 239.583 171.819 240.271 173.028 240.74C174.238 241.21 175.534 241.451 176.843 241.45H274.165C275.474 241.451 276.77 241.21 277.979 240.74C279.189 240.271 280.288 239.583 281.213 238.716C282.139 237.849 282.873 236.819 283.374 235.685C283.875 234.552 284.133 233.337 284.133 232.11V115.11H286.149C286.354 115.11 286.551 115.034 286.696 114.898C286.841 114.762 286.923 114.577 286.923 114.385V105.71C286.923 105.518 286.841 105.333 286.696 105.197C286.551 105.061 286.354 104.985 286.149 104.985H284.133V98.365H286.149ZM280.768 224.83C280.741 226.622 279.957 228.332 278.587 229.582C277.217 230.833 275.373 231.523 273.461 231.5H177.547C175.635 231.523 173.792 230.833 172.423 229.582C171.054 228.331 170.271 226.622 170.245 224.83V42.3C170.271 40.508 171.054 38.7987 172.423 37.5479C173.792 36.2972 175.635 35.6073 177.547 35.63H215.355L216.928 38.365C217.777 39.7995 219.02 40.9948 220.528 41.8271C222.036 42.6594 223.754 43.0983 225.504 43.0983C227.254 43.0983 228.972 42.6594 230.48 41.8271C231.988 40.9948 233.231 39.7995 234.08 38.365L235.68 35.63H273.488C275.4 35.6073 277.243 36.297 278.613 37.5476C279.983 38.7982 280.768 40.5075 280.795 42.3L280.768 224.83Z" fill="#263238" stroke="#263238" stroke-width="1.10919" stroke-linecap="round" stroke-linejoin="round"/>
<path d="M228.107 36.675C228.107 36.1924 227.954 35.7207 227.668 35.3194C227.382 34.9181 226.976 34.6054 226.5 34.4207C226.024 34.236 225.501 34.1877 224.996 34.2819C224.491 34.376 224.028 34.6084 223.664 34.9496C223.3 35.2909 223.052 35.7257 222.951 36.199C222.851 36.6723 222.902 37.1629 223.099 37.6087C223.296 38.0546 223.63 38.4357 224.058 38.7038C224.486 38.9719 224.989 39.115 225.504 39.115C225.846 39.1156 226.185 39.053 226.501 38.9306C226.817 38.8082 227.104 38.6285 227.346 38.4018C227.588 38.1751 227.779 37.9058 227.91 37.6095C228.04 37.3132 228.107 36.9956 228.107 36.675Z" fill="white" stroke="#263238" stroke-width="1.10919" stroke-linecap="round" stroke-linejoin="round"/>
<path d="M239.179 49.045H180.512C179.325 49.045 178.187 49.487 177.348 50.2737C176.509 51.0604 176.037 52.1274 176.037 53.24V75.775L181.301 70.5H239.179C240.365 70.5 241.504 70.058 242.343 69.2713C243.182 68.4846 243.653 67.4176 243.653 66.305V53.24C243.653 52.1274 243.182 51.0604 242.343 50.2737C241.504 49.487 240.365 49.045 239.179 49.045Z" fill="#A3A3A3"/>
<path d="M189 64.0813C192.427 63.558 194.753 60.5288 194.195 57.3154C193.637 54.102 190.406 51.9213 186.978 52.4446C183.551 52.968 181.225 55.9972 181.783 59.2106C182.341 62.4239 185.572 64.6047 189 64.0813Z" fill="white"/>
<path d="M191.163 58.4C191.163 58.4 191.824 57.575 191.973 58.4C192.123 59.225 190.843 60.26 190.843 60.26L191.163 58.4Z" fill="white" stroke="#263238" stroke-width="1.10919" stroke-linecap="round" stroke-linejoin="round"/>
<path d="M184.837 58.4C184.837 58.4 184.181 57.575 184.032 58.4C183.883 59.225 185.157 60.26 185.157 60.26L184.837 58.4Z" fill="white" stroke="#263238" stroke-width="1.10919" stroke-linecap="round" stroke-linejoin="round"/>
<path d="M188.224 54.335C188.224 54.335 185.733 54.155 185.157 55.71C184.581 57.265 184.971 59.78 185.157 60.26C185.344 60.74 186.949 63.07 187.392 63.26C187.835 63.45 188.928 63.38 189.115 63.14C189.301 62.9 190.907 60.685 191.029 59.91C191.082 58.7664 191.058 57.6209 190.96 56.48C190.937 56.0776 190.793 55.6895 190.545 55.3605C190.296 55.0314 189.954 54.7747 189.557 54.62C189.133 54.4553 188.682 54.359 188.224 54.335Z" fill="white" stroke="#263238" stroke-width="1.10919" stroke-linecap="round" stroke-linejoin="round"/>
<path d="M190.96 56.47C190.937 56.0676 190.793 55.6795 190.545 55.3505C190.296 55.0214 189.954 54.7647 189.557 54.61C189.133 54.4488 188.682 54.3558 188.224 54.335C188.224 54.335 185.733 54.155 185.157 55.71C184.887 56.5963 184.791 57.5214 184.875 58.44C185.003 58.58 185.408 58.995 185.355 58.47C185.28 57.85 185.205 55.97 185.723 55.58C186.24 55.19 186.309 54.825 187.04 55.375C187.771 55.925 187.701 56.405 188.437 56.065C189.173 55.725 189.317 54.965 189.973 55.24C190.629 55.515 190.416 56.82 190.416 57.44C190.416 58.06 190.416 59.225 190.859 58.675C190.94 58.56 191.004 58.4356 191.051 58.305C191.029 57.675 190.992 57 190.96 56.47Z" fill="#263238" stroke="#263238" stroke-width="1.10919" stroke-linecap="round" stroke-linejoin="round"/>
<path d="M187.163 62.875C187.163 62.875 187.952 61.375 188.453 61.935C188.766 62.2822 188.992 62.6905 189.115 63.13C188.812 63.319 188.447 63.3975 188.087 63.3505C187.727 63.3035 187.398 63.1343 187.163 62.875Z" fill="#263238" stroke="#263238" stroke-width="1.10919" stroke-linecap="round" stroke-linejoin="round"/>
<path d="M187.52 54.22C187.396 53.9521 187.199 53.7193 186.949 53.545L186.592 53.345C186.592 53.345 187.451 53.01 187.733 53.28C187.914 53.4471 188.081 53.6259 188.235 53.815C188.235 53.815 188.379 52.875 188.736 53.21C188.939 53.4022 189.155 53.5825 189.381 53.75C189.381 53.75 188.379 54.015 188.379 54.69" fill="#263238"/>
<path d="M187.52 54.22C187.396 53.9521 187.199 53.7193 186.949 53.545L186.592 53.345C186.592 53.345 187.451 53.01 187.733 53.28C187.914 53.4471 188.081 53.6259 188.235 53.815C188.235 53.815 188.379 52.875 188.736 53.21C188.939 53.4022 189.155 53.5825 189.381 53.75C189.381 53.75 188.379 54.015 188.379 54.69" stroke="#263238" stroke-width="1.10919" stroke-linecap="round" stroke-linejoin="round"/>
<path d="M197.989 54.055H211.024" stroke="white" stroke-width="2.21839" stroke-linecap="round" stroke-linejoin="round"/>
<path d="M197.989 58.31H237.888" stroke="white" stroke-width="1.10919" stroke-linecap="round" stroke-linejoin="round"/>
<path d="M197.989 61.83H237.888" stroke="white" stroke-width="1.10919" stroke-linecap="round" stroke-linejoin="round"/>
<path d="M197.989 65.72H237.888" stroke="white" stroke-width="1.10919" stroke-linecap="round" stroke-linejoin="round"/>
<path d="M270.315 79.5H211.616C211.029 79.5 210.447 79.6085 209.904 79.8194C209.362 80.0303 208.869 80.3394 208.454 80.729C208.039 81.1186 207.71 81.5811 207.485 82.09C207.261 82.599 207.146 83.1443 207.147 83.695V96.78C207.147 97.8917 207.617 98.958 208.455 99.7445C209.293 100.531 210.43 100.974 211.616 100.975H269.499L274.789 106.23V83.685C274.787 82.5741 274.314 81.5097 273.475 80.7252C272.636 79.9406 271.5 79.5 270.315 79.5Z" fill="#7453EE"/>
<path d="M229.125 84.495H242.16" stroke="#263238" stroke-width="2.21839" stroke-linecap="round" stroke-linejoin="round"/>
<path d="M229.125 88.755H269.024" stroke="#263238" stroke-width="1.10919" stroke-linecap="round" stroke-linejoin="round"/>
<path d="M229.125 92.275H269.024" stroke="#263238" stroke-width="1.10919" stroke-linecap="round" stroke-linejoin="round"/>
<path d="M229.125 96.165H269.024" stroke="#263238" stroke-width="1.10919" stroke-linecap="round" stroke-linejoin="round"/>
<path d="M219.387 95.84C222.859 95.84 225.675 93.2007 225.675 89.945C225.675 86.6893 222.859 84.05 219.387 84.05C215.914 84.05 213.099 86.6893 213.099 89.945C213.099 93.2007 215.914 95.84 219.387 95.84Z" fill="white"/>
<path d="M218.597 85.465C217.946 85.4283 217.3 85.5962 216.762 85.9421C216.224 86.2881 215.825 86.7922 215.627 87.375C214.891 89.2209 214.477 91.1658 214.4 93.135C214.4 94.355 216.976 95.32 218.384 95.42C219.792 95.52 222.96 95.47 224.048 93.845C225.136 92.22 223.371 88.92 222.933 86.89C222.496 84.86 220.112 85.365 218.597 85.465Z" fill="#263238" stroke="#263238" stroke-width="1.10919" stroke-linecap="round" stroke-linejoin="round"/>
<path d="M222.56 89.54C222.56 89.54 223.221 88.715 223.365 89.54C223.509 90.365 222.24 91.395 222.24 91.395L222.56 89.54Z" fill="white" stroke="#263238" stroke-width="1.10919" stroke-linecap="round" stroke-linejoin="round"/>
<path d="M216.235 89.54C216.235 89.54 215.573 88.715 215.429 89.54C215.285 90.365 216.555 91.395 216.555 91.395L216.235 89.54Z" fill="white" stroke="#263238" stroke-width="1.10919" stroke-linecap="round" stroke-linejoin="round"/>
<path d="M219.621 85.5C219.621 85.5 217.131 85.32 216.555 86.875C215.979 88.43 216.363 90.945 216.555 91.42C216.747 91.895 218.341 94.235 218.789 94.42C219.237 94.605 220.32 94.54 220.512 94.3C220.704 94.06 222.299 91.845 222.427 91.07C222.479 89.9264 222.456 88.7809 222.357 87.64C222.335 87.2375 222.191 86.8491 221.943 86.52C221.694 86.1908 221.352 85.9343 220.955 85.78C220.53 85.6171 220.079 85.5224 219.621 85.5Z" fill="white" stroke="#263238" stroke-width="1.10919" stroke-linecap="round" stroke-linejoin="round"/>
<path d="M217.728 86.075C217.728 86.075 221.755 89.54 222.56 89.54C223.365 89.54 223.472 86.99 222.603 85.77C221.733 84.55 217.6 83.84 217.728 86.075Z" fill="#263238" stroke="#263238" stroke-width="1.10919" stroke-linecap="round" stroke-linejoin="round"/>
<path d="M239.179 110.84H180.512C179.326 110.84 178.189 111.281 177.35 112.067C176.511 112.853 176.039 113.918 176.037 115.03V137.565L181.328 132.31H239.179C239.766 132.311 240.348 132.203 240.891 131.992C241.434 131.782 241.927 131.474 242.342 131.085C242.758 130.695 243.088 130.233 243.313 129.725C243.538 129.216 243.653 128.671 243.653 128.12V115.03C243.653 114.479 243.538 113.934 243.313 113.425C243.088 112.917 242.758 112.455 242.342 112.065C241.927 111.676 241.434 111.368 240.891 111.157C240.348 110.947 239.766 110.839 239.179 110.84Z" fill="#A3A3A3"/>
<path d="M193.787 122.32C195.124 119.315 193.611 115.863 190.406 114.609C187.201 113.356 183.518 114.775 182.181 117.78C180.844 120.784 182.358 124.236 185.563 125.49C188.768 126.744 192.45 125.324 193.787 122.32Z" fill="white"/>
<path d="M191.163 120.195C191.163 120.195 191.824 119.37 191.973 120.195C192.123 121.02 190.843 122.05 190.843 122.05L191.163 120.195Z" fill="white" stroke="#263238" stroke-width="1.10919" stroke-linecap="round" stroke-linejoin="round"/>
<path d="M184.837 120.195C184.837 120.195 184.181 119.37 184.032 120.195C183.883 121.02 185.157 122.05 185.157 122.05L184.837 120.195Z" fill="white" stroke="#263238" stroke-width="1.10919" stroke-linecap="round" stroke-linejoin="round"/>
<path d="M188.224 116.125C188.224 116.125 185.733 115.945 185.157 117.5C184.581 119.055 184.971 121.57 185.157 122.05C185.344 122.53 186.949 124.865 187.392 125.05C187.835 125.235 188.928 125.17 189.115 124.93C189.301 124.69 190.907 122.48 191.029 121.7C191.082 120.556 191.058 119.411 190.96 118.27C190.938 117.868 190.794 117.48 190.546 117.152C190.297 116.823 189.955 116.568 189.557 116.415C189.133 116.251 188.682 116.153 188.224 116.125Z" fill="white" stroke="#263238" stroke-width="1.10919" stroke-linecap="round" stroke-linejoin="round"/>
<path d="M190.96 118.26C190.938 117.858 190.794 117.47 190.546 117.142C190.297 116.813 189.955 116.558 189.557 116.405C189.132 116.244 188.682 116.15 188.224 116.125C188.224 116.125 185.733 115.945 185.157 117.5C184.887 118.388 184.791 119.315 184.875 120.235C185.003 120.37 185.408 120.79 185.355 120.265C185.28 119.645 185.205 117.765 185.723 117.375C186.24 116.985 186.309 116.62 187.04 117.17C187.771 117.72 187.701 118.2 188.437 117.855C189.173 117.51 189.317 116.755 189.973 117.03C190.629 117.305 190.416 118.61 190.416 119.23C190.416 119.85 190.416 121.02 190.859 120.47C190.939 120.353 191.004 120.227 191.051 120.095C191.029 119.47 190.992 118.785 190.96 118.26Z" fill="#263238" stroke="#263238" stroke-width="1.10919" stroke-linecap="round" stroke-linejoin="round"/>
<path d="M187.163 124.665C187.163 124.665 187.952 123.165 188.453 123.725C188.765 124.073 188.991 124.481 189.115 124.92C188.812 125.109 188.447 125.188 188.087 125.141C187.727 125.094 187.398 124.924 187.163 124.665Z" fill="#263238" stroke="#263238" stroke-width="1.10919" stroke-linecap="round" stroke-linejoin="round"/>
<path d="M187.52 116C187.397 115.733 187.2 115.502 186.949 115.33L186.592 115.13C186.592 115.13 187.451 114.795 187.733 115.06C187.913 115.23 188.08 115.41 188.235 115.6C188.235 115.6 188.379 114.66 188.736 114.995C188.938 115.187 189.154 115.365 189.381 115.53C189.381 115.53 188.379 115.8 188.379 116.47" fill="#263238"/>
<path d="M187.52 116C187.397 115.733 187.2 115.502 186.949 115.33L186.592 115.13C186.592 115.13 187.451 114.795 187.733 115.06C187.913 115.23 188.08 115.41 188.235 115.6C188.235 115.6 188.379 114.66 188.736 114.995C188.938 115.187 189.154 115.365 189.381 115.53C189.381 115.53 188.379 115.8 188.379 116.47" stroke="#263238" stroke-width="1.10919" stroke-linecap="round" stroke-linejoin="round"/>
<path d="M197.989 115.845H211.024" stroke="white" stroke-width="2.21839" stroke-linecap="round" stroke-linejoin="round"/>
<path d="M197.989 120.105H237.888" stroke="white" stroke-width="1.10919" stroke-linecap="round" stroke-linejoin="round"/>
<path d="M197.989 123.625H237.888" stroke="white" stroke-width="1.10919" stroke-linecap="round" stroke-linejoin="round"/>
<path d="M197.989 127.51H237.888" stroke="white" stroke-width="1.10919" stroke-linecap="round" stroke-linejoin="round"/>
<path d="M239.179 141.605H180.512C179.921 141.6 179.335 141.705 178.788 141.914C178.241 142.123 177.743 142.431 177.324 142.821C176.904 143.211 176.571 143.675 176.344 144.187C176.117 144.698 176 145.246 176 145.8V168.335L181.291 163.08H239.179C240.365 163.08 241.504 162.638 242.343 161.851C243.182 161.065 243.653 159.998 243.653 158.885V145.8C243.654 145.249 243.539 144.703 243.314 144.194C243.09 143.685 242.76 143.222 242.344 142.832C241.929 142.443 241.435 142.134 240.892 141.923C240.349 141.712 239.766 141.604 239.179 141.605Z" fill="#A3A3A3"/>
<path d="M193.784 153.083C195.122 150.078 193.608 146.626 190.403 145.372C187.198 144.118 183.515 145.538 182.178 148.542C180.841 151.547 182.355 154.999 185.56 156.253C188.765 157.506 192.447 156.087 193.784 153.083Z" fill="white"/>
<path d="M191.163 150.96C191.163 150.96 191.824 150.135 191.973 150.96C192.123 151.785 190.843 152.815 190.843 152.815L191.163 150.96Z" fill="white" stroke="#263238" stroke-width="1.10919" stroke-linecap="round" stroke-linejoin="round"/>
<path d="M184.837 150.96C184.837 150.96 184.181 150.135 184.032 150.96C183.883 151.785 185.157 152.815 185.157 152.815L184.837 150.96Z" fill="white" stroke="#263238" stroke-width="1.10919" stroke-linecap="round" stroke-linejoin="round"/>
<path d="M188.224 146.89C188.224 146.89 185.733 146.71 185.157 148.27C184.581 149.83 184.971 152.335 185.157 152.815C185.344 153.295 186.949 155.63 187.392 155.815C187.835 156 188.928 155.935 189.115 155.695C189.301 155.455 190.907 153.24 191.029 152.46C191.082 151.316 191.058 150.171 190.96 149.03C190.938 148.628 190.794 148.24 190.546 147.912C190.297 147.583 189.955 147.328 189.557 147.175C189.132 147.013 188.682 146.916 188.224 146.89Z" fill="white" stroke="#263238" stroke-width="1.10919" stroke-linecap="round" stroke-linejoin="round"/>
<path d="M190.96 149.025C190.938 148.623 190.794 148.235 190.546 147.907C190.297 147.578 189.955 147.323 189.557 147.17C189.132 147.009 188.682 146.915 188.224 146.89C188.224 146.89 185.733 146.71 185.157 148.27C184.887 149.156 184.791 150.081 184.875 151C185.003 151.14 185.408 151.555 185.355 151.03C185.28 150.41 185.205 148.555 185.723 148.14C186.24 147.725 186.309 147.385 187.04 147.935C187.771 148.485 187.701 148.965 188.437 148.62C189.173 148.275 189.317 147.52 189.973 147.795C190.629 148.07 190.416 149.38 190.416 149.995C190.416 150.61 190.416 151.785 190.859 151.235C190.938 151.119 191.003 150.995 191.051 150.865C191.029 150.235 190.992 149.55 190.96 149.025Z" fill="#263238" stroke="#263238" stroke-width="1.10919" stroke-linecap="round" stroke-linejoin="round"/>
<path d="M187.163 155.43C187.163 155.43 187.952 153.955 188.453 154.495C188.766 154.842 188.992 155.25 189.115 155.69C188.812 155.877 188.446 155.954 188.086 155.907C187.727 155.859 187.398 155.689 187.163 155.43Z" fill="#263238" stroke="#263238" stroke-width="1.10919" stroke-linecap="round" stroke-linejoin="round"/>
<path d="M187.52 146.775C187.397 146.508 187.2 146.277 186.949 146.105L186.592 145.905C186.592 145.905 187.451 145.57 187.733 145.835C187.913 146.004 188.08 146.185 188.235 146.375C188.235 146.375 188.379 145.435 188.736 145.77C188.938 145.962 189.154 146.14 189.381 146.305C189.381 146.305 188.379 146.575 188.379 147.245" fill="#263238"/>
<path d="M187.52 146.775C187.397 146.508 187.2 146.277 186.949 146.105L186.592 145.905C186.592 145.905 187.451 145.57 187.733 145.835C187.913 146.004 188.08 146.185 188.235 146.375C188.235 146.375 188.379 145.435 188.736 145.77C188.938 145.962 189.154 146.14 189.381 146.305C189.381 146.305 188.379 146.575 188.379 147.245" stroke="#263238" stroke-width="1.10919" stroke-linecap="round" stroke-linejoin="round"/>
<path d="M197.989 146.61H211.024" stroke="white" stroke-width="2.21839" stroke-linecap="round" stroke-linejoin="round"/>
<path d="M197.989 150.87H237.888" stroke="white" stroke-width="1.10919" stroke-linecap="round" stroke-linejoin="round"/>
<path d="M197.989 154.39H237.888" stroke="white" stroke-width="1.10919" stroke-linecap="round" stroke-linejoin="round"/>
<path d="M197.989 158.275H237.888" stroke="white" stroke-width="1.10919" stroke-linecap="round" stroke-linejoin="round"/>
<path d="M239.179 199.58H180.512C179.325 199.58 178.187 200.022 177.348 200.809C176.509 201.595 176.037 202.662 176.037 203.775V226.31L181.328 221.055H239.179C239.766 221.056 240.349 220.948 240.892 220.737C241.435 220.526 241.929 220.217 242.344 219.828C242.76 219.438 243.09 218.975 243.314 218.466C243.539 217.957 243.654 217.411 243.653 216.86V203.775C243.653 202.662 243.182 201.595 242.343 200.809C241.504 200.022 240.365 199.58 239.179 199.58Z" fill="#A3A3A3"/>
<path d="M189.008 214.619C192.435 214.096 194.761 211.066 194.203 207.853C193.645 204.64 190.414 202.459 186.986 202.982C183.559 203.506 181.232 206.535 181.791 209.748C182.349 212.961 185.58 215.142 189.008 214.619Z" fill="white"/>
<path d="M191.163 208.94C191.163 208.94 191.824 208.115 191.973 208.94C192.123 209.765 190.843 210.795 190.843 210.795L191.163 208.94Z" fill="white" stroke="#263238" stroke-width="1.10919" stroke-linecap="round" stroke-linejoin="round"/>
<path d="M184.837 208.94C184.837 208.94 184.181 208.115 184.032 208.94C183.883 209.765 185.157 210.795 185.157 210.795L184.837 208.94Z" fill="white" stroke="#263238" stroke-width="1.10919" stroke-linecap="round" stroke-linejoin="round"/>
<path d="M188.224 204.87C188.224 204.87 185.733 204.69 185.157 206.245C184.581 207.8 184.971 210.315 185.157 210.795C185.344 211.275 186.949 213.605 187.392 213.795C187.835 213.985 188.928 213.915 189.115 213.675C189.301 213.435 190.907 211.225 191.029 210.445C191.082 209.301 191.058 208.156 190.96 207.015C190.937 206.613 190.793 206.225 190.545 205.896C190.296 205.566 189.954 205.31 189.557 205.155C189.132 204.993 188.682 204.896 188.224 204.87Z" fill="white" stroke="#263238" stroke-width="1.10919" stroke-linecap="round" stroke-linejoin="round"/>
<path d="M190.96 207C190.937 206.598 190.793 206.21 190.545 205.88C190.296 205.551 189.954 205.295 189.557 205.14C189.132 204.981 188.681 204.888 188.224 204.865C188.224 204.865 185.733 204.685 185.157 206.24C184.887 207.128 184.791 208.055 184.875 208.975C185.003 209.11 185.408 209.53 185.355 209C185.28 208.385 185.205 206.525 185.723 206.115C186.24 205.705 186.309 205.355 187.04 205.905C187.771 206.455 187.701 206.94 188.437 206.595C189.173 206.25 189.317 205.495 189.973 205.77C190.629 206.045 190.416 207.35 190.416 207.97C190.416 208.59 190.416 209.76 190.859 209.21C190.938 209.093 191.003 208.967 191.051 208.835C191.029 208.21 190.992 207.53 190.96 207Z" fill="#263238" stroke="#263238" stroke-width="1.10919" stroke-linecap="round" stroke-linejoin="round"/>
<path d="M187.163 213.41C187.163 213.41 187.952 211.935 188.453 212.47C188.765 212.818 188.991 213.226 189.115 213.665C188.812 213.854 188.447 213.933 188.087 213.886C187.727 213.839 187.398 213.669 187.163 213.41Z" fill="#263238" stroke="#263238" stroke-width="1.10919" stroke-linecap="round" stroke-linejoin="round"/>
<path d="M187.52 204.755C187.397 204.488 187.2 204.257 186.949 204.085L186.592 203.885C186.592 203.885 187.451 203.545 187.733 203.815C187.912 203.983 188.079 204.162 188.235 204.35C188.235 204.35 188.379 203.415 188.736 203.75C188.938 203.942 189.154 204.12 189.381 204.285C189.381 204.285 188.379 204.555 188.379 205.225" fill="#263238"/>
<path d="M187.52 204.755C187.397 204.488 187.2 204.257 186.949 204.085L186.592 203.885C186.592 203.885 187.451 203.545 187.733 203.815C187.912 203.983 188.079 204.162 188.235 204.35C188.235 204.35 188.379 203.415 188.736 203.75C188.938 203.942 189.154 204.12 189.381 204.285C189.381 204.285 188.379 204.555 188.379 205.225" stroke="#263238" stroke-width="1.10919" stroke-linecap="round" stroke-linejoin="round"/>
<path d="M197.989 204.59H211.024" stroke="white" stroke-width="2.21839" stroke-linecap="round" stroke-linejoin="round"/>
<path d="M197.989 208.85H237.888" stroke="white" stroke-width="1.10919" stroke-linecap="round" stroke-linejoin="round"/>
<path d="M197.989 212.365H237.888" stroke="white" stroke-width="1.10919" stroke-linecap="round" stroke-linejoin="round"/>
<path d="M197.989 216.255H237.888" stroke="white" stroke-width="1.10919" stroke-linecap="round" stroke-linejoin="round"/>
<path d="M270.315 172.3H211.616C211.028 172.301 210.447 172.41 209.904 172.621C209.361 172.833 208.869 173.142 208.454 173.532C208.038 173.922 207.709 174.385 207.485 174.894C207.261 175.403 207.146 175.949 207.147 176.5V189.585C207.146 190.136 207.261 190.681 207.485 191.19C207.71 191.699 208.039 192.161 208.454 192.551C208.869 192.941 209.362 193.25 209.904 193.461C210.447 193.671 211.029 193.78 211.616 193.78H269.499L274.789 199.035V176.5C274.79 175.949 274.675 175.403 274.45 174.893C274.226 174.384 273.896 173.921 273.481 173.53C273.065 173.14 272.572 172.831 272.028 172.62C271.485 172.409 270.903 172.3 270.315 172.3Z" fill="#7453EE"/>
<path d="M229.125 177.31H242.16" stroke="#263238" stroke-width="2.21839" stroke-linecap="round" stroke-linejoin="round"/>
<path d="M229.125 181.57H269.024" stroke="#263238" stroke-width="1.10919" stroke-linecap="round" stroke-linejoin="round"/>
<path d="M229.125 185.085H269.024" stroke="#263238" stroke-width="1.10919" stroke-linecap="round" stroke-linejoin="round"/>
<path d="M229.125 188.975H269.024" stroke="#263238" stroke-width="1.10919" stroke-linecap="round" stroke-linejoin="round"/>
<path d="M219.387 188.655C222.859 188.655 225.675 186.016 225.675 182.76C225.675 179.504 222.859 176.865 219.387 176.865C215.914 176.865 213.099 179.504 213.099 182.76C213.099 186.016 215.914 188.655 219.387 188.655Z" fill="white"/>
<path d="M218.597 178.28C217.946 178.243 217.3 178.411 216.762 178.757C216.224 179.103 215.825 179.607 215.627 180.19C214.89 182.036 214.476 183.981 214.4 185.95C214.4 187.17 216.976 188.135 218.384 188.235C219.792 188.335 222.96 188.285 224.048 186.66C225.136 185.035 223.371 181.735 222.933 179.7C222.496 177.665 220.112 178.18 218.597 178.28Z" fill="#263238" stroke="#263238" stroke-width="1.10919" stroke-linecap="round" stroke-linejoin="round"/>
<path d="M222.56 182.355C222.56 182.355 223.221 181.53 223.365 182.355C223.509 183.18 222.24 184.21 222.24 184.21L222.56 182.355Z" fill="white" stroke="#263238" stroke-width="1.10919" stroke-linecap="round" stroke-linejoin="round"/>
<path d="M216.235 182.355C216.235 182.355 215.573 181.53 215.429 182.355C215.285 183.18 216.555 184.21 216.555 184.21L216.235 182.355Z" fill="white" stroke="#263238" stroke-width="1.10919" stroke-linecap="round" stroke-linejoin="round"/>
<path d="M219.621 178.285C219.621 178.285 217.131 178.105 216.555 179.665C215.979 181.225 216.363 183.73 216.555 184.21C216.747 184.69 218.341 187.025 218.789 187.21C219.237 187.395 220.32 187.33 220.512 187.09C220.704 186.85 222.299 184.635 222.427 183.855C222.479 182.711 222.456 181.566 222.357 180.425C222.335 180.023 222.191 179.635 221.943 179.307C221.695 178.978 221.352 178.723 220.955 178.57C220.53 178.408 220.079 178.311 219.621 178.285Z" fill="white" stroke="#263238" stroke-width="1.10919" stroke-linecap="round" stroke-linejoin="round"/>
<path d="M217.728 178.89C217.728 178.89 221.755 182.355 222.56 182.355C223.365 182.355 223.472 179.805 222.603 178.585C221.733 177.365 217.6 176.655 217.728 178.89Z" fill="#263238" stroke="#263238" stroke-width="1.10919" stroke-linecap="round" stroke-linejoin="round"/>
<path d="M285.333 229.35L284.661 240.5C284.769 240.719 284.924 240.914 285.117 241.073C285.31 241.233 285.536 241.352 285.781 241.425C286.501 241.545 302.197 241.425 302.197 241.425C302.307 240.827 302.263 240.214 302.069 239.635C301.953 239.255 301.735 238.908 301.437 238.628C301.138 238.348 300.768 238.144 300.363 238.035C299.573 237.85 294.123 235.51 293.659 235.325C293.195 235.14 292.939 232.185 292.939 232.185L285.333 229.35Z" fill="white" stroke="#263238" stroke-width="1.10919" stroke-miterlimit="10"/>
<path d="M302.197 241.42C302.261 241.024 302.261 240.621 302.197 240.225L284.683 239.785L284.64 240.495C284.748 240.714 284.903 240.909 285.096 241.068C285.289 241.228 285.515 241.347 285.76 241.42C286.501 241.54 302.197 241.42 302.197 241.42Z" fill="white" stroke="#263238" stroke-width="1.10919" stroke-miterlimit="10"/>
<path d="M288.592 172.86C288.592 172.86 289.941 200.22 289.792 201.06L284.704 229.82C284.704 229.82 289.04 232.065 291.136 232.485C292.768 232.772 294.417 232.959 296.075 233.045C296.075 233.045 302.96 206.81 303.259 205.27C303.557 203.73 299.813 170.5 299.813 170.5L288.592 172.86Z" fill="#263238" stroke="#263238" stroke-width="1.10919" stroke-miterlimit="10"/>
<path d="M288.8 226.395C288.8 226.395 282.693 234.275 283.413 235.075C284.133 235.875 289.456 240.615 290.773 241.17C292.091 241.725 304.107 241.17 304.107 241.17C304.229 240.849 304.296 240.511 304.304 240.17C304.304 239.67 304.24 237.77 303.52 237.215C302.8 236.66 297.344 234.26 297.12 233.89C296.896 233.52 296.661 230.505 296.661 230.505L288.8 226.395Z" fill="white" stroke="#263238" stroke-width="1.10919" stroke-miterlimit="10"/>
<path d="M304.101 241.17C304.224 240.849 304.29 240.511 304.299 240.17V239.94L295.957 240.235C295.957 240.235 293.397 240.6 292.021 239.555C290.864 238.68 285.803 234.355 284.181 232.965C283.568 234.015 283.211 234.83 283.413 235.06C284.139 235.86 289.456 240.6 290.773 241.155C292.091 241.71 304.101 241.17 304.101 241.17Z" fill="white" stroke="#263238" stroke-width="1.10919" stroke-miterlimit="10"/>
<path d="M284.267 160.095C284.267 160.095 285.168 168.23 285.915 169.495C286.661 170.76 287.861 172.72 287.861 172.72L299.2 202.605L287.531 226.735C287.531 226.735 296.064 231.925 297.856 232.485C298.625 232.769 299.43 232.958 300.251 233.045C300.251 233.045 314.016 202.885 314.016 200.78C314.016 198.675 304.416 168.515 304.416 168.515L305.067 158.13L284.267 160.095Z" fill="#263238" stroke="#263238" stroke-width="1.10919" stroke-miterlimit="10"/>
<path d="M295.616 162.62L301.909 164.98L296.693 161.1L300.288 162.62" stroke="#696969" stroke-width="1.10919" stroke-linecap="round" stroke-linejoin="round"/>
<path d="M292 183.12L299.216 202.605L288.741 225.19" stroke="#696969" stroke-width="1.10919" stroke-miterlimit="10"/>
<path d="M290.539 179.175L291.28 181.185" stroke="#696969" stroke-width="1.10919" stroke-miterlimit="10"/>
<path d="M313.227 145C313.227 145 316.768 141.88 317.493 141.5C318.219 141.12 321.104 140.305 321.312 139.375C321.52 138.445 321.243 133.875 320.96 134.07C320.677 134.265 316.928 139.245 316.928 139.245L312.043 142.83L313.227 145Z" fill="white" stroke="#263238" stroke-width="1.10919" stroke-miterlimit="10"/>
<path d="M318.256 137.77L317.829 140.82" stroke="#263238" stroke-width="1.10919" stroke-miterlimit="10"/>
<path d="M319.387 136.175L319.531 139.895" stroke="#263238" stroke-width="1.10919" stroke-miterlimit="10"/>
<path d="M320.533 134.915C320.533 134.915 320.464 138.83 320.533 139.23V134.915Z" fill="white"/>
<path d="M320.533 134.915C320.533 134.915 320.464 138.83 320.533 139.23" stroke="#263238" stroke-width="1.10919" stroke-miterlimit="10"/>
<path d="M321.509 138.3C321.509 138.3 322.715 136.905 322.432 135.98C322.354 135.712 322.211 135.465 322.013 135.258C321.816 135.05 321.571 134.889 321.296 134.785L321.509 138.3Z" fill="white" stroke="#263238" stroke-width="1.10919" stroke-miterlimit="10"/>
<path d="M312.805 141.42C313.019 141.55 314.715 144.005 314.715 144.005L312.581 146.66C312.581 146.66 313.648 148.52 313.008 148.985C312.368 149.45 307.061 152.035 307.061 152.035L305.291 145.335C305.291 145.335 309.253 143.01 309.467 143.08C309.676 143.182 309.867 143.316 310.032 143.475L312.805 141.42Z" fill="#7453EE" stroke="#263238" stroke-width="1.10919" stroke-miterlimit="10"/>
<path d="M315.061 140.525L315.797 141L323.595 130.54L322.859 130.06L315.061 140.525Z" fill="#263238" stroke="#263238" stroke-width="1.10919" stroke-miterlimit="10"/>
<path d="M292.875 121.265C292.437 121.465 286.256 128.485 283.973 131.23C281.691 133.975 281.915 138.455 282.021 140.895C282.128 143.335 280.955 161.445 280.955 161.445C280.955 161.445 290.395 160.735 296.037 160.225C301.68 159.715 309.707 159.225 309.707 159.225C309.707 159.225 307.429 149.87 306.347 145.695C305.264 141.52 303.525 135.525 302.331 132.695C301.506 130.793 300.525 128.955 299.397 127.195L292.875 121.265Z" fill="#7453EE" stroke="#263238" stroke-width="1.10919" stroke-miterlimit="10"/>
<path d="M304.373 121.57L300.901 125.23L295.568 118.925L298.715 115.465C298.715 115.465 300.56 113.635 301.648 113.835C302.736 114.035 304.373 121.57 304.373 121.57Z" fill="white" stroke="#263238" stroke-width="1.10919" stroke-miterlimit="10"/>
<path d="M300.688 117.805L302.805 123.34L304.373 121.57L300.688 117.805Z" fill="#263238" stroke="#263238" stroke-width="1.10919" stroke-miterlimit="10"/>
<path d="M300.267 115.365C300.267 115.365 298.965 117.295 297.883 116.89C296.8 116.485 293.867 113.53 292.549 109.89C291.232 106.25 296.021 105.615 296.779 104.195C297.536 102.775 298.192 102.565 299.275 97.58C300.357 92.595 312.512 94.53 314.357 97.175C316.203 99.82 315.877 105.11 320.976 103.38C326.075 101.65 331.611 99.82 332.805 104.09C334 108.36 330.091 113.55 331.504 115.385C332.917 117.22 337.472 115.885 337.147 117.62C336.821 119.355 334.432 120.47 335.189 120.875C335.947 121.28 340.181 119.25 338.987 121.08C337.792 122.91 335.301 124.845 334.976 124.03C334.651 123.215 334.976 122.2 333.781 122.81C332.587 123.42 328.981 125.86 327.488 124.54C325.995 123.22 327.92 118.435 325.424 117.925C322.928 117.415 316.853 119.045 314.789 119.145C312.725 119.245 312.512 118.645 308.715 116.91C304.917 115.175 300.267 115.365 300.267 115.365Z" fill="#263238" stroke="#263238" stroke-width="1.10919" stroke-miterlimit="10"/>
<path d="M301.12 112.5C301.12 112.5 307.52 112.805 311.643 111.785C313.528 111.373 315.379 110.829 317.179 110.16C317.179 110.16 317.285 114.125 316.203 115.245C315.12 116.365 313.707 117.38 313.707 118.195C313.707 119.01 314.773 120.33 314.139 121.045C313.504 121.76 311.968 121.755 311.536 121.755C311.104 121.755 307.632 124.81 306.656 124.81C305.68 124.81 300.789 118.705 300.688 117.81C300.629 116.726 300.629 115.639 300.688 114.555" fill="white"/>
<path d="M301.12 112.5C301.12 112.5 307.52 112.805 311.643 111.785C313.528 111.373 315.379 110.829 317.179 110.16C317.179 110.16 317.285 114.125 316.203 115.245C315.12 116.365 313.707 117.38 313.707 118.195C313.707 119.01 314.773 120.33 314.139 121.045C313.504 121.76 311.968 121.755 311.536 121.755C311.104 121.755 307.632 124.81 306.656 124.81C305.68 124.81 300.789 118.705 300.688 117.81C300.629 116.726 300.629 115.639 300.688 114.555" stroke="#263238" stroke-width="1.10919" stroke-miterlimit="10"/>
<path d="M312.533 116.075L311.339 117.395C310.962 117.341 310.61 117.189 310.322 116.955C310.034 116.722 309.823 116.417 309.712 116.075" stroke="#263238" stroke-width="1.10919" stroke-miterlimit="10"/>
<path d="M308.496 119.125C308.496 119.125 308.389 120.755 309.803 120.96" stroke="#263238" stroke-width="1.10919" stroke-miterlimit="10"/>
<path d="M311.211 114.345C311.211 114.345 313.163 113.735 314.032 115.26" stroke="#263238" stroke-width="1.10919" stroke-miterlimit="10"/>
<path d="M302.747 114.04C302.747 114.04 301.147 109.54 299.6 111.19C298.053 112.84 298.949 115.69 300.133 116.28C300.484 116.456 300.875 116.548 301.272 116.548C301.669 116.548 302.06 116.456 302.411 116.28" fill="white"/>
<path d="M302.747 114.04C302.747 114.04 301.147 109.54 299.6 111.19C298.053 112.84 298.949 115.69 300.133 116.28C300.484 116.456 300.875 116.548 301.272 116.548C301.669 116.548 302.06 116.456 302.411 116.28" stroke="#263238" stroke-width="1.10919" stroke-miterlimit="10"/>
<path d="M296 117.295C296 117.295 303.157 123.91 302.933 124.825C302.709 125.74 301.52 126.325 301.52 126.325C301.52 126.325 301.845 128.155 301.307 128.56C300.955 128.811 300.546 128.982 300.112 129.06C300.112 129.06 293.333 122.5 292.437 121.465C291.541 120.43 292.224 119.94 292.763 119.735C293.151 119.601 293.55 119.499 293.957 119.43C293.957 119.43 294.72 117 296 117.295Z" fill="#7453EE" stroke="#263238" stroke-width="1.10919" stroke-miterlimit="10"/>
<path d="M285.637 132.075C285.22 134.441 284.995 136.832 284.965 139.23C284.965 142.805 286.533 160.375 287.323 161.325C288.112 162.275 291.248 163.11 292.597 162.27C293.947 161.43 305.616 154.38 305.728 153.22C305.84 152.06 303.931 147.855 303.147 147.54C302.363 147.225 301.685 147.33 300.565 148.275C299.287 149.206 297.94 150.049 296.533 150.8C296.533 150.8 295.749 137.335 294.853 134.07C293.957 130.805 293.504 130.18 292.944 129.97" fill="#7453EE"/>
<path d="M285.637 132.075C285.22 134.441 284.995 136.832 284.965 139.23C284.965 142.805 286.533 160.375 287.323 161.325C288.112 162.275 291.248 163.11 292.597 162.27C293.947 161.43 305.616 154.38 305.728 153.22C305.84 152.06 303.931 147.855 303.147 147.54C302.363 147.225 301.685 147.33 300.565 148.275C299.287 149.206 297.94 150.049 296.533 150.8C296.533 150.8 295.749 137.335 294.853 134.07C293.957 130.805 293.504 130.18 292.944 129.97" stroke="#263238" stroke-width="1.10919" stroke-miterlimit="10"/>
<path d="M306.331 145.675C306.331 145.675 309.531 138.49 309.765 137.965C310 137.44 310.779 136.595 311.451 136.49C312.123 136.385 317.285 135.335 317.733 135.23C318.181 135.125 318.523 135.65 317.285 136.385C316.048 137.12 313.019 137.44 313.019 137.44L312.565 140.595C312.565 140.595 315.6 138.385 315.6 139.545C315.6 140.705 313.355 141.435 313.019 141.545C312.683 141.655 311.787 143 311.467 143.225C310.952 143.446 310.416 143.622 309.867 143.75C309.867 143.75 309.643 145.015 309.195 145.435C308.747 145.855 306.725 147.225 306.725 147.225L306.331 145.675Z" fill="white" stroke="#263238" stroke-width="1.10919" stroke-miterlimit="10"/>
<path d="M309.765 137.965C309.765 137.965 311.067 136.465 311.259 136.465C312.177 137.073 313.055 137.733 313.888 138.44C314.048 138.585 313.045 140.115 312.891 140.36C312.736 140.605 312.677 140.805 312.256 140.66C311.971 140.549 311.705 140.399 311.467 140.215" fill="white"/>
<path d="M309.765 137.965C309.765 137.965 311.067 136.465 311.259 136.465C312.177 137.073 313.055 137.733 313.888 138.44C314.048 138.585 313.045 140.115 312.891 140.36C312.736 140.605 312.677 140.805 312.256 140.66C311.971 140.549 311.705 140.399 311.467 140.215" stroke="#263238" stroke-width="1.10919" stroke-miterlimit="10"/>
<path d="M309.419 139.19C309.419 139.19 310.837 137.69 311.045 137.69C311.253 137.69 313.045 139.02 313.045 139.265C313.045 139.51 312.731 140.995 312.469 141.045C312.099 141.047 311.729 141.013 311.365 140.945" fill="white"/>
<path d="M309.419 139.19C309.419 139.19 310.837 137.69 311.045 137.69C311.253 137.69 313.045 139.02 313.045 139.265C313.045 139.51 312.731 140.995 312.469 141.045C312.099 141.047 311.729 141.013 311.365 140.945" stroke="#263238" stroke-width="1.10919" stroke-miterlimit="10"/>
<path d="M309.365 140.62C309.744 140.232 310.168 139.885 310.629 139.585C311.045 139.385 311.995 140.225 312.571 140.585C313.147 140.945 313.835 141.15 313.52 141.495C313.205 141.84 311.995 141.35 311.733 141.35C311.441 141.305 311.157 141.221 310.891 141.1L310.208 143.025" fill="white"/>
<path d="M309.365 140.62C309.744 140.232 310.168 139.885 310.629 139.585C311.045 139.385 311.995 140.225 312.571 140.585C313.147 140.945 313.835 141.15 313.52 141.495C313.205 141.84 311.995 141.35 311.733 141.35C311.441 141.305 311.157 141.221 310.891 141.1L310.208 143.025" stroke="#263238" stroke-width="1.10919" stroke-miterlimit="10"/>
<path d="M302.587 147.855L306.512 144.91L308.309 148.065L304.939 151.325C304.939 151.325 302.587 150.905 302.587 147.855Z" fill="#7453EE" stroke="#263238" stroke-width="1.10919" stroke-miterlimit="10"/>
<path d="M70.9333 234.525C69.3243 234.051 67.8194 233.309 66.4907 232.335C64.7147 230.9 59.104 227 57.4827 226C55.8613 225 56.0587 229.62 56.608 232C57.0523 234.056 57.9837 235.992 59.3333 237.665C60.3573 238.805 67.04 241.165 67.7867 241.325C68.5333 241.485 71.52 241.535 72.128 241.265C72.736 240.995 71.4667 236.5 70.9333 234.525Z" fill="white" stroke="#263238" stroke-width="1.10919" stroke-miterlimit="10"/>
<path d="M59.6746 235.72C58.112 233.84 57.008 228.075 56.96 225.865C55.8933 226.1 56.128 229.915 56.608 232.015C57.0522 234.071 57.9836 236.007 59.3333 237.68C60.3573 238.82 67.04 241.18 67.7866 241.34C68.7959 241.465 69.8154 241.502 70.832 241.45C67.2 240.255 61.248 237.61 59.6746 235.72Z" fill="white" stroke="#263238" stroke-width="1.10919" stroke-miterlimit="10"/>
<path d="M143.84 200.265C143.84 200.265 141.995 203.47 141.061 205.33C140.128 207.19 139.328 208.53 139.328 208.53C139.328 208.53 138.437 206.9 137.76 207.205C137.287 207.404 136.794 207.556 136.288 207.66C136.288 207.66 135.445 204.83 134.155 203.345C132.864 201.86 131.771 202.575 130.576 201.585C128.885 200.185 128.203 199.765 127.072 198.915C125.68 197.87 123.552 202.295 123.515 203.965C123.477 205.635 132.603 216.13 134.88 219C137.157 221.87 139.456 223.675 140.939 221.93C142.421 220.185 143.125 218.525 144.245 212.93C145.365 207.335 148.101 198.78 143.84 200.265Z" fill="#7453EE" stroke="#263238" stroke-width="1.10919" stroke-miterlimit="10"/>
<path d="M127.061 198.915L122.917 196C122.469 195.175 121.568 193.46 121.077 192.265C120.405 190.64 120.112 189.605 118.571 188.475C117.029 187.345 113.381 185.975 112.917 185.51C112.453 185.045 112.267 186.82 113.109 187.645C113.485 188.072 113.959 188.414 114.496 188.645C114.496 188.645 108.485 187.945 108.475 188.385C108.464 188.825 113.584 194.885 115.435 196.29C116.208 196.89 117.936 197.455 118.917 198.115C119.401 198.441 119.848 198.813 120.251 199.225C120.021 199.345 119.947 199.34 119.92 199.325C120.133 199.605 123.317 203.865 124.293 203.68C125.269 203.495 128.533 203.22 127.061 198.915Z" fill="white" stroke="#263238" stroke-width="1.10919" stroke-miterlimit="10"/>
<path d="M108.644 181.664L107.996 182.078L116.322 193.537L116.97 193.123L108.644 181.664Z" fill="#263238" stroke="#263238" stroke-width="1.10919" stroke-miterlimit="10"/>
<path d="M110.341 185.325C110.341 185.325 107.141 188.565 107.525 188.865C107.909 189.165 109.125 190.29 109.456 190.15C109.787 190.01 111.472 187.4 111.557 187.105C111.643 186.81 110.341 185.325 110.341 185.325Z" fill="white" stroke="#263238" stroke-width="1.10919" stroke-miterlimit="10"/>
<path d="M111.941 187.5C111.941 187.5 109.52 190.83 109.749 191.13C109.979 191.43 113.04 194.785 113.424 195.01C113.808 195.235 115.968 193.295 115.968 193.295L111.941 187.5Z" fill="white" stroke="#263238" stroke-width="1.10919" stroke-miterlimit="10"/>
<path d="M113.232 189.41C113.232 189.41 110.971 192.745 111.205 192.75" stroke="#263238" stroke-width="1.10919" stroke-miterlimit="10"/>
<path d="M114.747 191.715L112.661 194.025" stroke="#263238" stroke-width="1.10919" stroke-miterlimit="10"/>
<path d="M114.496 188.63L116.437 189.47C116.437 189.47 115.952 193.94 118.571 195.47" fill="white"/>
<path d="M114.496 188.63L116.437 189.47C116.437 189.47 115.952 193.94 118.571 195.47" stroke="#263238" stroke-width="1.10919" stroke-miterlimit="10"/>
<path d="M119.92 199.31C119.92 199.31 119.909 199.3 119.92 199.31V199.31Z" fill="white" stroke="#263238" stroke-width="1.10919" stroke-miterlimit="10"/>
<path d="M142.096 223.625C142.096 223.625 123.227 202.5 121.179 200.23C119.131 197.96 114.512 197.02 111.803 197.81C109.093 198.6 105.797 205.7 105.141 208.635C104.485 211.57 99.1253 224.24 98.208 225.905C97.2907 227.57 95.8933 229.37 95.8773 230.075C95.8613 230.78 95.8507 231.335 95.8507 231.335L94.912 233.28C94.912 233.28 99.2427 233.78 101.045 233.535C102.848 233.29 105.429 231.37 105.899 230.395C106.368 229.42 107.691 227.02 109.285 225.97C111.557 224.47 115.509 214.435 115.509 214.435L122.976 229.73C122.976 229.73 137.749 231.685 141.051 231.325C144.352 230.965 142.096 223.625 142.096 223.625Z" fill="#263238" stroke="#263238" stroke-width="1.10919" stroke-miterlimit="10"/>
<path d="M141.381 221.93C141.381 221.93 139.077 224.69 139.067 225.255V225.815L126.459 227C126.459 227 113.44 226.76 111.488 227.145C109.536 227.53 81.248 234.59 79.4453 234.84C77.6426 235.09 76.7786 233.665 76.032 233.65C75.2853 233.635 74.544 233.06 73.4986 233.04C72.4533 233.02 71.5253 234.41 70.9226 234.54C70.5346 234.674 70.1293 234.76 69.7173 234.795C69.2693 234.795 69.5893 233.795 69.2693 234.795C68.9493 235.795 68.144 238.56 68.864 239.835C69.3283 240.629 69.9794 241.313 70.768 241.835C70.768 241.835 95.0186 241.86 99.0346 241.935C103.051 242.01 115.52 240.98 117.019 240.865C118.517 240.75 140.192 241.99 143.632 242.055C147.072 242.12 158.453 242.055 160.421 240.96C162.389 239.865 164.912 233.745 164.512 231.355C164.112 228.965 143.301 222.125 143.301 222.125L141.381 221.93Z" fill="#263238" stroke="#263238" stroke-width="1.10919" stroke-miterlimit="10"/>
<path d="M140.523 219.95C140.31 220.437 140.247 220.971 140.341 221.49C140.469 222.49 163.899 232.99 164.656 232.6C165.413 232.21 165.947 228.13 165.947 228.13L140.549 218.685L140.523 219.95Z" fill="#7453EE" stroke="#263238" stroke-width="1.10919" stroke-miterlimit="10"/>
<path d="M150.507 186.315C150.507 186.315 146.203 191.85 144.613 196.17C143.024 200.49 140.469 215.315 139.536 217.125C138.603 218.935 138.576 220.055 139.915 220.36C141.253 220.665 154.021 225.95 158.325 227.57C162.629 229.19 166.491 230.67 167.141 228.155C167.792 225.64 167.829 224.1 167.755 220.31C167.68 216.52 167.611 198.695 167.269 193.5C166.928 188.305 163.963 179.825 160.069 180.035C156.176 180.245 150.507 186.315 150.507 186.315Z" fill="#7453EE" stroke="#263238" stroke-width="1.10919" stroke-miterlimit="10"/>
<path d="M158.661 166.835C158.203 163.785 156.645 161.295 153.984 159.735C154.405 159.294 154.975 159.004 155.598 158.913C156.221 158.821 156.859 158.935 157.403 159.235C157.403 159.235 157.76 158.045 156.725 157.63C156.421 157.519 156.092 157.483 155.769 157.523C155.445 157.563 155.138 157.679 154.875 157.86C154.875 157.86 155.051 156.265 156.203 155.49C157.355 154.715 159.6 155.82 159.6 155.82C159.6 155.82 159.12 151.685 156.267 152.43C153.413 153.175 153.792 155.43 153.792 155.43C153.792 155.43 153.259 153.56 151.563 153.395C149.867 153.23 148.56 154.535 148.56 154.535C148.56 154.535 150.005 153.365 151.525 155.39C151.927 155.875 152.192 156.447 152.299 157.053C152.405 157.659 152.348 158.28 152.133 158.86C151.682 158.694 151.22 158.553 150.752 158.435C146.741 157.435 142.165 158.515 140.213 160.345C138.653 160.706 137.189 161.366 135.915 162.285C133.781 163.98 135.776 166.32 136.069 166.64L136.229 167.48C136.431 169.183 136.728 170.876 137.12 172.55C137.52 173.755 138.219 174.165 138.187 174.83C138.155 175.495 136.987 177.87 137.819 178.68C138.651 179.49 139.371 179.245 139.371 179.245C139.371 179.245 142.64 185.69 144.069 185.18C145.499 184.67 147.957 182.325 147.957 182.325L151.184 184.25L157.131 178.105L156.064 175.425C156.064 175.425 159.285 170.97 158.661 166.835Z" fill="white" stroke="#263238" stroke-width="1.10919" stroke-miterlimit="10"/>
<path d="M138.72 166.545C140.448 165.775 144.869 164.825 144.112 166.07C143.355 167.315 143.184 169.495 144.155 169.74C145.125 169.985 147.184 171.285 147.888 171.74C148.592 172.195 149.488 171.885 149.488 171.195C149.488 170.505 150.267 169.145 151.84 169.86C153.413 170.575 153.509 171.955 153.109 173.555C152.896 174.479 152.309 175.289 151.472 175.815C151.472 175.815 153.349 177.23 156.24 175.875L156.053 175.415C156.053 175.415 159.253 170.95 158.645 166.815C158.187 163.765 156.629 161.275 153.968 159.715C154.389 159.274 154.959 158.984 155.582 158.893C156.205 158.801 156.843 158.915 157.387 159.215C157.387 159.215 157.744 158.025 156.709 157.61C156.405 157.499 156.076 157.463 155.753 157.503C155.429 157.543 155.122 157.659 154.859 157.84C154.859 157.84 155.035 156.245 156.187 155.47C157.339 154.695 159.584 155.8 159.584 155.8C159.584 155.8 159.104 151.665 156.251 152.41C153.397 153.155 153.776 155.41 153.776 155.41C153.776 155.41 153.243 153.54 151.547 153.375C149.851 153.21 148.544 154.515 148.544 154.515C148.544 154.515 149.989 153.345 151.509 155.37C151.911 155.855 152.176 156.427 152.283 157.033C152.389 157.639 152.332 158.26 152.117 158.84C151.666 158.674 151.204 158.533 150.736 158.415C146.725 157.415 142.149 158.495 140.197 160.325C138.637 160.686 137.173 161.346 135.899 162.265C133.765 163.96 135.76 166.3 136.053 166.62C136.069 166.65 136.992 167.315 138.72 166.545Z" fill="#263238" stroke="#263238" stroke-width="1.10919" stroke-miterlimit="10"/>
<path d="M140.064 172.53L140.032 174.03C140.561 174.162 141.115 174.173 141.649 174.063C142.184 173.954 142.682 173.726 143.104 173.4" stroke="#263238" stroke-width="1.10919" stroke-miterlimit="10"/>
<path d="M138.256 171.125C138.674 170.641 139.262 170.312 139.915 170.198C140.567 170.083 141.242 170.19 141.819 170.5" stroke="#263238" stroke-width="1.10919" stroke-miterlimit="10"/>
<path d="M141.387 179.435C141.387 179.435 143.467 179.36 144.736 177.09" stroke="#263238" stroke-width="1.10919" stroke-miterlimit="10"/>
<path d="M145.125 182.025C143.888 182.575 142.331 181.055 141.6 180.93C141.008 180.825 141.109 181.93 141.173 182.36C142.176 183.93 143.365 185.45 144.091 185.19C145.52 184.69 147.979 182.335 147.979 182.335L148.091 182.405C148.42 181.889 148.627 181.313 148.699 180.715C148.715 179.8 146.357 181.5 145.125 182.025Z" fill="#263238" stroke="#263238" stroke-width="1.10919" stroke-miterlimit="10"/>
<path d="M163.429 176.73C163.429 176.73 158.965 175.385 156.368 178.005C153.771 180.625 146.72 188.35 148.219 188.38C149.717 188.41 152.341 184.525 155.36 183.315C158.379 182.105 160.16 182.145 161.179 184.125C162.197 186.105 165.664 198.8 167.045 196.58C168.427 194.36 170.923 189.92 169.664 185.685C168.405 181.45 164.907 177.6 163.429 176.73Z" fill="white" stroke="#263238" stroke-width="1.10919" stroke-miterlimit="10"/>
<path d="M152.037 191.815C152.037 191.815 148.304 197.92 147.947 201.28C147.589 204.64 146.389 218.655 146.389 218.655C146.389 218.655 144.912 217.785 144.144 218.61C143.376 219.435 142.891 221.255 142.891 221.255C142.891 221.255 140.811 220.655 140.341 221.49C140.073 221.975 139.762 222.438 139.413 222.875L126.459 227C126.459 227 146.939 228.08 148.587 227.97C149.593 227.894 150.546 227.517 151.307 226.895C151.307 226.895 152.629 227.895 154.891 227.1C157.152 226.305 157.925 225.335 158.555 223.66C159.184 221.985 162.16 201.56 162.16 201.56" fill="#7453EE"/>
<path d="M152.037 191.815C152.037 191.815 148.304 197.92 147.947 201.28C147.589 204.64 146.389 218.655 146.389 218.655C146.389 218.655 144.912 217.785 144.144 218.61C143.376 219.435 142.891 221.255 142.891 221.255C142.891 221.255 140.811 220.655 140.341 221.49C140.073 221.975 139.762 222.438 139.413 222.875L126.459 227C126.459 227 146.939 228.08 148.587 227.97C149.593 227.894 150.546 227.517 151.307 226.895C151.307 226.895 152.629 227.895 154.891 227.1C157.152 226.305 157.925 225.335 158.555 223.66C159.184 221.985 162.16 201.56 162.16 201.56" stroke="#263238" stroke-width="1.10919" stroke-miterlimit="10"/>
<path d="M126.459 227C126.459 227 132.683 227.33 138.544 227.605C137.696 226.31 138.091 224.44 138.544 223.165L126.459 227Z" fill="white" stroke="#263238" stroke-width="1.10919" stroke-miterlimit="10"/>
<path d="M52.8 241.45H330.288" stroke="#263238" stroke-width="1.10919" stroke-miterlimit="10"/>
</svg>
