<svg width="50" height="50" viewBox="0 0 50 50" fill="none" xmlns="http://www.w3.org/2000/svg">
<path fill-rule="evenodd" clip-rule="evenodd" d="M14.175 -0.000244141H35.85C44.325 -0.000244141 50 5.94976 50 14.7998V35.2248C50 44.0498 44.325 49.9998 35.85 49.9998H14.175C5.7 49.9998 0 44.0498 0 35.2248V14.7998C0 5.94976 5.7 -0.000244141 14.175 -0.000244141ZM13.8 27.9998C12.15 27.9998 10.8 26.6498 10.8 24.9998C10.8 23.3498 12.15 22.0023 13.8 22.0023C15.45 22.0023 16.8 23.3498 16.8 24.9998C16.8 26.6498 15.45 27.9998 13.8 27.9998ZM22 24.9998C22 26.6498 23.35 27.9998 25 27.9998C26.65 27.9998 28 26.6498 28 24.9998C28 23.3498 26.65 22.0023 25 22.0023C23.35 22.0023 22 23.3498 22 24.9998ZM33.2 24.9998C33.2 26.6498 34.55 27.9998 36.2 27.9998C37.85 27.9998 39.175 26.6498 39.175 24.9998C39.175 23.3498 37.85 22.0023 36.2 22.0023C34.55 22.0023 33.2 23.3498 33.2 24.9998Z" fill="#200E32"/>
</svg>
