<svg width="26" height="27" viewBox="0 0 26 27" fill="none" xmlns="http://www.w3.org/2000/svg">
<path d="M25.1267 7.58127C25.0646 7.43339 24.96 7.30722 24.8263 7.21866C24.6925 7.1301 24.5356 7.08311 24.3752 7.08361H21.2877C20.9171 6.43719 20.4028 5.88472 19.7845 5.469C19.1662 5.05327 18.4604 4.78545 17.722 4.68627C16.9835 4.58709 16.2322 4.65921 15.5261 4.89706C14.82 5.1349 14.1781 5.53208 13.6501 6.05783C13.1879 6.50853 12.8204 7.04708 12.5693 7.64182C12.3181 8.23657 12.1884 8.87551 12.1876 9.52111V10.1406C8.05405 9.06408 4.67202 5.73283 4.64155 5.6922C4.53532 5.58768 4.40238 5.5144 4.25728 5.48036C4.11219 5.44633 3.96053 5.45286 3.8189 5.49924C3.67772 5.54417 3.55129 5.62639 3.45297 5.73722C3.35465 5.84806 3.28808 5.98339 3.2603 6.12892C2.37671 11.0242 3.84937 14.3047 5.24077 16.1938C5.93866 17.149 6.78568 17.9857 7.74937 18.6719C6.19546 20.4289 3.79859 21.343 3.77827 21.3531C3.66365 21.3957 3.56011 21.4635 3.47534 21.5516C3.39058 21.6397 3.32678 21.7457 3.28871 21.8619C3.25064 21.9781 3.23927 22.1013 3.25545 22.2225C3.27164 22.3437 3.31496 22.4596 3.38218 22.5617C3.46343 22.6836 3.76812 23.0797 4.50952 23.4555C5.43374 23.9125 6.65249 24.1461 8.12515 24.1461C15.2853 24.1461 21.2775 18.6313 21.8869 11.532L24.9541 8.47502C25.0643 8.35754 25.139 8.21126 25.1695 8.05309C25.2001 7.89493 25.1852 7.73134 25.1267 7.58127ZM20.5259 10.5977C20.3844 10.7381 20.301 10.9266 20.2923 11.1258C19.8759 17.5141 14.5337 22.5211 8.12515 22.5211C7.04859 22.5211 6.29702 22.3789 5.7689 22.2063C6.93687 21.5766 8.56187 20.4797 9.61812 18.9055C9.67943 18.8102 9.72014 18.7032 9.73763 18.5912C9.75512 18.4793 9.74901 18.3649 9.71968 18.2555C9.69011 18.1449 9.63781 18.0418 9.56611 17.9526C9.49441 17.8634 9.40489 17.7901 9.30327 17.7375C9.29312 17.7274 7.78999 16.9453 6.50015 15.168C5.03765 13.157 4.41812 10.7094 4.66187 7.88595C6.26656 9.20627 9.33374 11.3594 12.8681 11.9485C12.9848 11.9672 13.1042 11.9606 13.2181 11.929C13.332 11.8975 13.4378 11.8418 13.5283 11.7656C13.6167 11.6883 13.6877 11.5931 13.7368 11.4863C13.7858 11.3795 13.8116 11.2636 13.8126 11.1461V9.52111C13.8142 8.77564 14.0719 8.05335 14.5427 7.47533C15.0134 6.89731 15.6686 6.49869 16.3983 6.34632C17.1281 6.19394 17.888 6.29707 18.5507 6.6384C19.2135 6.97974 19.7387 7.53853 20.0384 8.22111C20.1032 8.3663 20.2087 8.48961 20.342 8.57613C20.4754 8.66265 20.631 8.70866 20.79 8.70861H22.415L20.5259 10.5977Z" fill="white"/>
</svg>
