<svg width="21" height="20" viewBox="0 0 21 20" fill="none" xmlns="http://www.w3.org/2000/svg">
<path d="M4.99321 8.34458C4.76803 8.34458 4.55194 8.38648 4.33686 8.42468C4.40654 8.13875 4.47823 7.8479 4.59335 7.58662C4.70846 7.20702 4.8882 6.87795 5.06692 6.54642C5.21637 6.18778 5.47992 5.94498 5.67379 5.6381C5.87676 5.33985 6.15343 5.14142 6.37255 4.8937C6.58763 4.63488 6.86935 4.50548 7.09352 4.32307C7.32779 4.15916 7.53176 3.97799 7.74987 3.89171L8.29413 3.61811L8.77276 3.37531L8.28302 0.986816L7.6802 1.16429C7.48733 1.22345 7.25206 1.29246 6.98447 1.37504C6.71082 1.43666 6.419 1.60551 6.09385 1.75957C5.77275 1.93457 5.40116 2.05289 5.05582 2.33389C4.70846 2.60257 4.30758 2.82687 3.95416 3.18675C3.61185 3.55772 3.19886 3.87939 2.89391 4.35142C2.56069 4.79264 2.23151 5.25604 1.97604 5.78353C1.68017 6.28637 1.47923 6.83851 1.26718 7.38449C1.07532 7.93047 0.920831 8.48877 0.79461 9.03105C0.555296 10.1181 0.448261 11.1509 0.406861 12.0345C0.372529 12.9195 0.392724 13.6552 0.435134 14.1876C0.450281 14.4391 0.478554 14.6831 0.498749 14.8519L0.523993 15.059L0.550247 15.0516C0.729845 16.0756 1.14329 17.0165 1.74274 17.7657C2.3422 18.5148 3.10318 19.0415 3.93764 19.2849C4.77211 19.5282 5.64597 19.4782 6.45813 19.1407C7.27029 18.8032 7.98757 18.1919 8.52699 17.3776C9.06641 16.5633 9.40593 15.5792 9.50627 14.5393C9.60661 13.4993 9.46368 12.4459 9.094 11.5009C8.72432 10.556 8.14301 9.75803 7.4173 9.19947C6.6916 8.6409 5.85116 8.34451 4.99321 8.34458ZM16.1006 8.34458C15.8754 8.34458 15.6594 8.38648 15.4443 8.42468C15.5139 8.13875 15.5856 7.8479 15.7008 7.58662C15.8159 7.20702 15.9956 6.87795 16.1743 6.54642C16.3238 6.18778 16.5873 5.94498 16.7812 5.6381C16.9842 5.33985 17.2608 5.14142 17.48 4.8937C17.695 4.63488 17.9768 4.50548 18.2009 4.32307C18.4352 4.15916 18.6392 3.97799 18.8573 3.89171L19.4015 3.61811L19.8802 3.37531L19.3904 0.986816L18.7876 1.16429C18.5947 1.22345 18.3595 1.29246 18.0919 1.37504C17.8182 1.43666 17.5264 1.60551 17.2013 1.75957C16.8812 1.93581 16.5086 2.05289 16.1632 2.33512C15.8159 2.6038 15.415 2.8281 15.0616 3.18798C14.7193 3.55895 14.3063 3.88062 14.0013 4.35142C13.6681 4.79264 13.3389 5.25604 13.0834 5.78353C12.7876 6.28637 12.5866 6.83851 12.3746 7.38449C12.1827 7.93047 12.0282 8.48877 11.902 9.03105C11.6627 10.1181 11.5557 11.1509 11.5143 12.0345C11.4799 12.9195 11.5001 13.6552 11.5425 14.1876C11.5577 14.4391 11.586 14.6831 11.6062 14.8519L11.6314 15.059L11.6577 15.0516C11.8373 16.0756 12.2507 17.0165 12.8502 17.7657C13.4496 18.5148 14.2106 19.0415 15.0451 19.2849C15.8795 19.5282 16.7534 19.4782 17.5655 19.1407C18.3777 18.8032 19.095 18.1919 19.6344 17.3776C20.1738 16.5633 20.5133 15.5792 20.6137 14.5393C20.714 13.4993 20.5711 12.4459 20.2014 11.5009C19.8317 10.556 19.2504 9.75803 18.5247 9.19947C17.799 8.6409 16.9586 8.34451 16.1006 8.34458Z" fill="#979797"/>
</svg>
