<svg width="18" height="18" viewBox="0 0 18 18" fill="none" xmlns="http://www.w3.org/2000/svg">
<path d="M6 10.5C6 10.6475 5.97094 10.7936 5.91448 10.9299C5.85802 11.0663 5.77526 11.1901 5.67093 11.2944C5.56661 11.3988 5.44275 11.4815 5.30645 11.538C5.17014 11.5944 5.02404 11.6235 4.8765 11.6235C4.72896 11.6235 4.58286 11.5944 4.44656 11.538C4.31025 11.4815 4.18639 11.3988 4.08207 11.2944C3.97774 11.1901 3.89498 11.0663 3.83852 10.9299C3.78206 10.7936 3.753 10.6475 3.753 10.5C3.753 10.202 3.87137 9.91626 4.08207 9.70557C4.29276 9.49487 4.57853 9.3765 4.8765 9.3765C5.17447 9.3765 5.46024 9.49487 5.67093 9.70557C5.88163 9.91626 6 10.202 6 10.5ZM13.1235 11.6235C13.271 11.6235 13.4171 11.5944 13.5534 11.538C13.6898 11.4815 13.8136 11.3988 13.9179 11.2944C14.0223 11.1901 14.105 11.0663 14.1615 10.9299C14.2179 10.7936 14.247 10.6475 14.247 10.5C14.247 10.3525 14.2179 10.2064 14.1615 10.0701C14.105 9.93375 14.0223 9.80989 13.9179 9.70557C13.8136 9.60124 13.6898 9.51848 13.5534 9.46202C13.4171 9.40556 13.271 9.3765 13.1235 9.3765C12.8255 9.3765 12.5398 9.49487 12.3291 9.70557C12.1184 9.91626 12 10.202 12 10.5C12 10.798 12.1184 11.0837 12.3291 11.2944C12.5398 11.5051 12.8255 11.6235 13.1235 11.6235ZM1.551 6.111L1.566 6H0.75C0.551088 6 0.360322 5.92098 0.21967 5.78033C0.0790178 5.63968 2.45703e-08 5.44891 2.45703e-08 5.25C2.45703e-08 5.05109 0.0790178 4.86032 0.21967 4.71967C0.360322 4.57902 0.551088 4.5 0.75 4.5H1.7595L2.0025 2.616C2.09588 1.89249 2.44969 1.22779 2.99773 0.746284C3.54577 0.264781 4.25048 -0.00052869 4.98 7.90989e-07H13.02C13.7499 -2.35836e-05 14.4548 0.266082 15.0027 0.748468C15.5505 1.23085 15.9037 1.89643 15.996 2.6205L16.2345 4.5H17.25C17.4489 4.5 17.6397 4.57902 17.7803 4.71967C17.921 4.86032 18 5.05109 18 5.25C18 5.44891 17.921 5.63968 17.7803 5.78033C17.6397 5.92098 17.4489 6 17.25 6H16.4265L16.4415 6.108C16.8945 6.25429 17.2893 6.54045 17.5694 6.92534C17.8494 7.31023 18.0002 7.77401 18 8.25V12.75C18 13.3467 17.7629 13.919 17.341 14.341C16.919 14.7629 16.3467 15 15.75 15H15.7455V16.875C15.7455 17.1734 15.627 17.4595 15.416 17.6705C15.205 17.8815 14.9189 18 14.6205 18C14.3221 18 14.036 17.8815 13.825 17.6705C13.614 17.4595 13.4955 17.1734 13.4955 16.875V15H4.5V16.875C4.5 17.1734 4.38147 17.4595 4.1705 17.6705C3.95952 17.8815 3.67337 18 3.375 18C3.07663 18 2.79048 17.8815 2.5795 17.6705C2.36853 17.4595 2.25 17.1734 2.25 16.875V15C1.65326 15 1.08097 14.7629 0.65901 14.341C0.237053 13.919 2.45703e-08 13.3467 2.45703e-08 12.75V8.25C-7.00847e-05 7.77546 0.1499 7.31304 0.428468 6.92886C0.707035 6.54469 1.09994 6.25842 1.551 6.111ZM3.4905 2.808L3.078 6H14.9145L14.5065 2.8095C14.4602 2.44785 14.2838 2.11545 14.0102 1.87445C13.7366 1.63344 13.3846 1.50033 13.02 1.5H4.98C4.61537 1.49992 4.2632 1.63266 3.98933 1.87339C3.71547 2.11412 3.53867 2.44637 3.492 2.808H3.4905ZM15.75 13.5C15.9489 13.5 16.1397 13.421 16.2803 13.2803C16.421 13.1397 16.5 12.9489 16.5 12.75V8.25C16.5 8.05109 16.421 7.86032 16.2803 7.71967C16.1397 7.57902 15.9489 7.5 15.75 7.5H2.25C2.05109 7.5 1.86032 7.57902 1.71967 7.71967C1.57902 7.86032 1.5 8.05109 1.5 8.25V12.75C1.5 12.9489 1.57902 13.1397 1.71967 13.2803C1.86032 13.421 2.05109 13.5 2.25 13.5H15.75Z" fill="black"/>
</svg>
