<svg width="28" height="28" viewBox="0 0 28 28" fill="none" xmlns="http://www.w3.org/2000/svg">
<path d="M19.8133 16.6667C19.92 15.7867 20 14.9067 20 14C20 13.0933 19.92 12.2133 19.8133 11.3333H24.32C24.5333 12.1867 24.6666 13.08 24.6666 14C24.6666 14.92 24.5333 15.8133 24.32 16.6667H19.8133ZM17.4533 24.08C18.2533 22.6 18.8666 21 19.2933 19.3333H23.2266C21.9349 21.5577 19.8854 23.2427 17.4533 24.08ZM17.12 16.6667H10.88C10.7466 15.7867 10.6666 14.9067 10.6666 14C10.6666 13.0933 10.7466 12.2 10.88 11.3333H17.12C17.24 12.2 17.3333 13.0933 17.3333 14C17.3333 14.9067 17.24 15.7867 17.12 16.6667ZM14 24.6133C12.8933 23.0133 12 21.24 11.4533 19.3333H16.5466C16 21.24 15.1066 23.0133 14 24.6133ZM8.66663 8.66666H4.77329C6.05177 6.43628 8.09969 4.74864 10.5333 3.91999C9.73329 5.39999 9.13329 6.99999 8.66663 8.66666ZM4.77329 19.3333H8.66663C9.13329 21 9.73329 22.6 10.5333 24.08C8.10479 23.2422 6.05975 21.5569 4.77329 19.3333ZM3.67996 16.6667C3.46663 15.8133 3.33329 14.92 3.33329 14C3.33329 13.08 3.46663 12.1867 3.67996 11.3333H8.18663C8.07996 12.2133 7.99996 13.0933 7.99996 14C7.99996 14.9067 8.07996 15.7867 8.18663 16.6667H3.67996ZM14 3.37332C15.1066 4.97332 16 6.75999 16.5466 8.66666H11.4533C12 6.75999 12.8933 4.97332 14 3.37332ZM23.2266 8.66666H19.2933C18.876 7.01527 18.2581 5.42118 17.4533 3.91999C19.9066 4.75999 21.9466 6.45332 23.2266 8.66666ZM14 0.666656C6.62663 0.666656 0.666626 6.66666 0.666626 14C0.666626 17.5362 2.07138 20.9276 4.57187 23.4281C5.80998 24.6662 7.27984 25.6483 8.89751 26.3184C10.5152 26.9884 12.249 27.3333 14 27.3333C17.5362 27.3333 20.9276 25.9286 23.4281 23.4281C25.9285 20.9276 27.3333 17.5362 27.3333 14C27.3333 12.249 26.9884 10.5152 26.3184 8.89754C25.6483 7.27987 24.6662 5.81001 23.4281 4.5719C22.1899 3.33379 20.7201 2.35166 19.1024 1.6816C17.4847 1.01153 15.7509 0.666656 14 0.666656Z" fill="#F8F8F8"/>
</svg>
