<svg width="100" height="100" viewBox="0 0 100 100" fill="none" xmlns="http://www.w3.org/2000/svg">
<circle cx="50" cy="50" r="50" fill="#B5B5FF"/>
<path d="M57.2654 53.332C57.3987 52.232 57.4987 51.132 57.4987 49.9987C57.4987 48.8654 57.3987 47.7654 57.2654 46.6654H62.8987C63.1654 47.732 63.332 48.8487 63.332 49.9987C63.332 51.1487 63.1654 52.2654 62.8987 53.332H57.2654ZM54.3154 62.5987C55.3154 60.7487 56.082 58.7487 56.6154 56.6654H61.532C59.9173 59.4458 57.3556 61.552 54.3154 62.5987ZM53.8987 53.332H46.0987C45.932 52.232 45.832 51.132 45.832 49.9987C45.832 48.8654 45.932 47.7487 46.0987 46.6654H53.8987C54.0487 47.7487 54.1654 48.8654 54.1654 49.9987C54.1654 51.132 54.0487 52.232 53.8987 53.332ZM49.9987 63.2654C48.6154 61.2654 47.4987 59.0487 46.8154 56.6654H53.182C52.4987 59.0487 51.382 61.2654 49.9987 63.2654ZM43.332 43.332H38.4654C40.0635 40.5441 42.6234 38.4345 45.6654 37.3987C44.6654 39.2487 43.9154 41.2487 43.332 43.332ZM38.4654 56.6654H43.332C43.9154 58.7487 44.6654 60.7487 45.6654 62.5987C42.6297 61.5515 40.0734 59.4449 38.4654 56.6654ZM37.0987 53.332C36.832 52.2654 36.6654 51.1487 36.6654 49.9987C36.6654 48.8487 36.832 47.732 37.0987 46.6654H42.732C42.5987 47.7654 42.4987 48.8654 42.4987 49.9987C42.4987 51.132 42.5987 52.232 42.732 53.332H37.0987ZM49.9987 36.7154C51.382 38.7154 52.4987 40.9487 53.182 43.332H46.8154C47.4987 40.9487 48.6154 38.7154 49.9987 36.7154ZM61.532 43.332H56.6154C56.0937 41.2678 55.3213 39.2752 54.3154 37.3987C57.382 38.4487 59.932 40.5654 61.532 43.332ZM49.9987 33.332C40.782 33.332 33.332 40.832 33.332 49.9987C33.332 54.419 35.088 58.6582 38.2136 61.7838C39.7612 63.3315 41.5985 64.5591 43.6206 65.3967C45.6427 66.2343 47.81 66.6654 49.9987 66.6654C54.419 66.6654 58.6582 64.9094 61.7838 61.7838C64.9094 58.6582 66.6654 54.419 66.6654 49.9987C66.6654 47.81 66.2343 45.6427 65.3967 43.6206C64.5591 41.5985 63.3315 39.7612 61.7838 38.2136C60.2362 36.6659 58.3988 35.4383 56.3768 34.6007C54.3547 33.7631 52.1874 33.332 49.9987 33.332Z" fill="#F8F8F8"/>
</svg>
